<?xml version="1.0" encoding="UTF-8"?>
<svg xmlns="http://www.w3.org/2000/svg" xmlns:xlink="http://www.w3.org/1999/xlink" width="1920" height="1080" viewBox="0 0 1920 1080">
<defs>
<g>
<g id="glyph-0-0">
<path d="M 11.929688 -10.007812 C 11.75 -10.222656 11.527344 -10.433594 11.261719 -10.648438 C 10.996094 -10.863281 10.699219 -11.046875 10.375 -11.207031 C 10.046875 -11.367188 9.6875 -11.5 9.289062 -11.601562 C 8.890625 -11.699219 8.46875 -11.75 8.019531 -11.75 C 7.285156 -11.75 6.597656 -11.636719 5.964844 -11.414062 C 5.332031 -11.1875 4.777344 -10.839844 4.3125 -10.375 C 3.84375 -9.90625 3.476562 -9.3125 3.207031 -8.59375 C 2.941406 -7.878906 2.808594 -7.027344 2.808594 -6.042969 C 2.808594 -5.179688 2.925781 -4.398438 3.164062 -3.699219 C 3.402344 -3 3.75 -2.410156 4.203125 -1.929688 C 4.660156 -1.449219 5.21875 -1.078125 5.875 -0.816406 C 6.53125 -0.554688 7.277344 -0.425781 8.105469 -0.425781 C 8.355469 -0.425781 8.617188 -0.4375 8.890625 -0.460938 C 9.160156 -0.484375 9.425781 -0.519531 9.679688 -0.570312 C 9.933594 -0.617188 10.171875 -0.675781 10.390625 -0.746094 C 10.609375 -0.816406 10.796875 -0.902344 10.949219 -0.996094 C 10.960938 -1.351562 10.972656 -1.707031 10.976562 -2.0625 C 10.984375 -2.417969 10.988281 -2.777344 10.988281 -3.148438 C 10.988281 -3.5625 10.976562 -3.976562 10.960938 -4.390625 C 10.941406 -4.804688 10.921875 -5.203125 10.898438 -5.582031 C 11.195312 -5.523438 11.476562 -5.492188 11.75 -5.492188 C 11.882812 -5.492188 12.011719 -5.5 12.140625 -5.511719 C 12.273438 -5.523438 12.398438 -5.546875 12.515625 -5.582031 C 12.492188 -5.308594 12.472656 -4.878906 12.460938 -4.292969 C 12.449219 -3.707031 12.445312 -2.933594 12.445312 -1.972656 C 12.445312 -1.734375 12.445312 -1.496094 12.453125 -1.253906 C 12.460938 -1.011719 12.460938 -0.769531 12.460938 -0.535156 C 12.210938 -0.4375 11.902344 -0.339844 11.527344 -0.238281 C 11.15625 -0.140625 10.757812 -0.0546875 10.335938 0.0078125 C 9.917969 0.0742188 9.496094 0.132812 9.074219 0.1875 C 8.652344 0.242188 8.273438 0.265625 7.929688 0.265625 C 6.875 0.265625 5.921875 0.140625 5.074219 -0.117188 C 4.226562 -0.371094 3.507812 -0.765625 2.914062 -1.296875 C 2.324219 -1.832031 1.867188 -2.496094 1.546875 -3.289062 C 1.226562 -4.082031 1.066406 -5 1.066406 -6.042969 C 1.066406 -7.050781 1.234375 -7.949219 1.5625 -8.738281 C 1.894531 -9.527344 2.363281 -10.191406 2.96875 -10.738281 C 3.574219 -11.28125 4.304688 -11.699219 5.164062 -11.980469 C 6.023438 -12.265625 6.976562 -12.410156 8.019531 -12.410156 C 8.621094 -12.410156 9.160156 -12.375 9.625 -12.3125 C 10.09375 -12.246094 10.507812 -12.160156 10.871094 -12.054688 C 11.230469 -11.945312 11.550781 -11.832031 11.820312 -11.714844 C 12.09375 -11.597656 12.335938 -11.484375 12.550781 -11.378906 C 12.457031 -11.210938 12.371094 -11 12.292969 -10.738281 C 12.214844 -10.476562 12.164062 -10.234375 12.140625 -10.007812 Z "/>
</g>
<g id="glyph-0-1">
<path d="M 4.730469 -8.019531 C 4.289062 -8.019531 3.917969 -7.917969 3.617188 -7.714844 C 3.316406 -7.515625 3.066406 -7.261719 2.871094 -6.960938 C 2.675781 -6.65625 2.527344 -6.324219 2.425781 -5.964844 C 2.324219 -5.601562 2.261719 -5.261719 2.238281 -4.941406 C 2.605469 -4.929688 2.988281 -4.917969 3.386719 -4.90625 C 3.785156 -4.894531 4.171875 -4.890625 4.550781 -4.890625 C 4.941406 -4.890625 5.339844 -4.894531 5.742188 -4.90625 C 6.144531 -4.917969 6.535156 -4.929688 6.914062 -4.941406 C 6.914062 -5.261719 6.890625 -5.601562 6.835938 -5.957031 C 6.78125 -6.3125 6.675781 -6.644531 6.515625 -6.949219 C 6.355469 -7.257812 6.132812 -7.515625 5.847656 -7.714844 C 5.5625 -7.917969 5.191406 -8.019531 4.730469 -8.019531 Z M 0.621094 -3.910156 C 0.621094 -5.367188 0.96875 -6.511719 1.664062 -7.34375 C 2.355469 -8.171875 3.367188 -8.585938 4.691406 -8.585938 C 5.320312 -8.585938 5.863281 -8.488281 6.320312 -8.292969 C 6.777344 -8.097656 7.160156 -7.835938 7.464844 -7.511719 C 7.773438 -7.183594 8.003906 -6.804688 8.152344 -6.363281 C 8.300781 -5.925781 8.375 -5.457031 8.375 -4.960938 C 8.375 -4.839844 8.371094 -4.726562 8.363281 -4.613281 C 8.359375 -4.5 8.347656 -4.386719 8.335938 -4.265625 C 7.695312 -4.277344 7.0625 -4.289062 6.433594 -4.300781 C 5.808594 -4.3125 5.171875 -4.320312 4.535156 -4.320312 C 4.144531 -4.320312 3.753906 -4.3125 3.367188 -4.300781 C 2.984375 -4.289062 2.59375 -4.277344 2.203125 -4.265625 C 2.191406 -4.207031 2.1875 -4.117188 2.1875 -4 L 2.1875 -3.769531 C 2.1875 -3.308594 2.253906 -2.875 2.390625 -2.472656 C 2.527344 -2.070312 2.726562 -1.722656 2.988281 -1.429688 C 3.246094 -1.140625 3.566406 -0.910156 3.945312 -0.738281 C 4.324219 -0.566406 4.765625 -0.480469 5.261719 -0.480469 C 5.5 -0.480469 5.742188 -0.511719 5.992188 -0.578125 C 6.242188 -0.644531 6.484375 -0.730469 6.71875 -0.84375 C 6.957031 -0.957031 7.179688 -1.089844 7.386719 -1.246094 C 7.59375 -1.398438 7.773438 -1.5625 7.929688 -1.742188 L 8.019531 -1.6875 L 7.910156 -0.816406 C 7.554688 -0.53125 7.113281 -0.289062 6.585938 -0.0898438 C 6.058594 0.113281 5.511719 0.214844 4.941406 0.214844 C 4.300781 0.214844 3.71875 0.117188 3.191406 -0.078125 C 2.664062 -0.273438 2.207031 -0.558594 1.820312 -0.933594 C 1.4375 -1.308594 1.140625 -1.75 0.933594 -2.257812 C 0.726562 -2.765625 0.621094 -3.320312 0.621094 -3.910156 Z "/>
</g>
<g id="glyph-0-2">
<path d="M 2.1875 -4.160156 C 2.1875 -3.664062 2.230469 -3.183594 2.320312 -2.71875 C 2.410156 -2.257812 2.558594 -1.847656 2.773438 -1.484375 C 2.988281 -1.121094 3.269531 -0.835938 3.625 -0.621094 C 3.980469 -0.410156 4.421875 -0.300781 4.941406 -0.300781 C 5.464844 -0.300781 5.902344 -0.410156 6.257812 -0.621094 C 6.613281 -0.835938 6.898438 -1.121094 7.109375 -1.484375 C 7.324219 -1.847656 7.476562 -2.257812 7.5625 -2.71875 C 7.652344 -3.183594 7.699219 -3.664062 7.699219 -4.160156 C 7.699219 -4.65625 7.652344 -5.136719 7.5625 -5.601562 C 7.476562 -6.0625 7.324219 -6.472656 7.109375 -6.835938 C 6.898438 -7.195312 6.613281 -7.484375 6.257812 -7.699219 C 5.902344 -7.910156 5.464844 -8.019531 4.941406 -8.019531 C 4.421875 -8.019531 3.980469 -7.910156 3.625 -7.699219 C 3.269531 -7.484375 2.988281 -7.195312 2.773438 -6.835938 C 2.558594 -6.472656 2.410156 -6.0625 2.320312 -5.601562 C 2.230469 -5.136719 2.1875 -4.65625 2.1875 -4.160156 Z M 0.621094 -4.160156 C 0.621094 -4.964844 0.75 -5.648438 1.003906 -6.214844 C 1.257812 -6.777344 1.59375 -7.230469 2.007812 -7.582031 C 2.421875 -7.933594 2.890625 -8.1875 3.40625 -8.347656 C 3.921875 -8.507812 4.433594 -8.585938 4.941406 -8.585938 C 5.464844 -8.585938 5.980469 -8.507812 6.488281 -8.347656 C 7 -8.1875 7.460938 -7.933594 7.875 -7.582031 C 8.289062 -7.230469 8.625 -6.777344 8.878906 -6.214844 C 9.132812 -5.652344 9.261719 -4.964844 9.261719 -4.160156 C 9.261719 -3.355469 9.132812 -2.667969 8.878906 -2.105469 C 8.625 -1.542969 8.289062 -1.085938 7.875 -0.738281 C 7.460938 -0.386719 7 -0.140625 6.488281 0 C 5.980469 0.140625 5.464844 0.214844 4.941406 0.214844 C 4.433594 0.214844 3.917969 0.140625 3.40625 0 C 2.890625 -0.140625 2.421875 -0.386719 2.007812 -0.738281 C 1.59375 -1.085938 1.257812 -1.542969 1.003906 -2.105469 C 0.75 -2.667969 0.621094 -3.355469 0.621094 -4.160156 Z "/>
</g>
<g id="glyph-0-3">
<path d="M 7.199219 1.921875 C 7.199219 1.210938 6.992188 0.710938 6.578125 0.425781 C 6.164062 0.140625 5.476562 0 4.515625 0 C 3.625 0 2.9375 0.144531 2.453125 0.433594 C 1.96875 0.726562 1.722656 1.25 1.722656 2.007812 C 1.722656 2.410156 1.792969 2.753906 1.929688 3.039062 C 2.066406 3.324219 2.25 3.554688 2.480469 3.734375 C 2.710938 3.910156 2.988281 4.042969 3.304688 4.125 C 3.625 4.207031 3.96875 4.25 4.335938 4.25 C 4.691406 4.25 5.042969 4.203125 5.386719 4.105469 C 5.730469 4.011719 6.035156 3.871094 6.300781 3.679688 C 6.566406 3.488281 6.785156 3.25 6.949219 2.960938 C 7.117188 2.667969 7.199219 2.324219 7.199219 1.921875 Z M 6.238281 -5.777344 C 6.238281 -6.523438 6.0625 -7.09375 5.707031 -7.484375 C 5.351562 -7.875 4.882812 -8.070312 4.300781 -8.070312 C 3.660156 -8.070312 3.164062 -7.855469 2.808594 -7.421875 C 2.453125 -6.988281 2.277344 -6.410156 2.277344 -5.6875 C 2.277344 -4.941406 2.4375 -4.351562 2.765625 -3.917969 C 3.089844 -3.488281 3.597656 -3.269531 4.285156 -3.269531 C 4.628906 -3.269531 4.921875 -3.339844 5.164062 -3.476562 C 5.40625 -3.613281 5.609375 -3.796875 5.769531 -4.027344 C 5.929688 -4.257812 6.046875 -4.523438 6.125 -4.828125 C 6.203125 -5.128906 6.238281 -5.445312 6.238281 -5.777344 Z M 0.890625 -5.6875 C 0.890625 -6.1875 0.976562 -6.617188 1.15625 -6.976562 C 1.332031 -7.339844 1.578125 -7.636719 1.894531 -7.875 C 2.207031 -8.113281 2.570312 -8.289062 2.976562 -8.410156 C 3.386719 -8.527344 3.820312 -8.585938 4.285156 -8.585938 C 4.511719 -8.585938 4.726562 -8.582031 4.933594 -8.570312 C 5.140625 -8.558594 5.40625 -8.539062 5.722656 -8.515625 C 5.996094 -8.492188 6.238281 -8.472656 6.453125 -8.460938 C 6.667969 -8.449219 6.839844 -8.445312 6.96875 -8.445312 C 7.632812 -8.445312 8.113281 -8.472656 8.410156 -8.53125 C 8.398438 -8.472656 8.386719 -8.410156 8.382812 -8.347656 C 8.375 -8.28125 8.375 -8.21875 8.375 -8.160156 C 8.375 -8.101562 8.375 -8.039062 8.382812 -7.972656 C 8.386719 -7.90625 8.398438 -7.847656 8.410156 -7.785156 C 8.066406 -7.808594 7.730469 -7.835938 7.402344 -7.867188 C 7.078125 -7.894531 6.753906 -7.917969 6.433594 -7.929688 L 6.398438 -7.894531 C 6.765625 -7.691406 7.0625 -7.378906 7.289062 -6.960938 C 7.515625 -6.539062 7.625 -6.105469 7.625 -5.652344 C 7.625 -4.765625 7.328125 -4.066406 6.730469 -3.5625 C 6.128906 -3.058594 5.328125 -2.808594 4.320312 -2.808594 C 4.152344 -2.808594 3.992188 -2.816406 3.832031 -2.828125 C 3.671875 -2.839844 3.507812 -2.84375 3.34375 -2.84375 C 3.128906 -2.84375 2.929688 -2.765625 2.746094 -2.613281 C 2.5625 -2.460938 2.472656 -2.261719 2.472656 -2.027344 C 2.472656 -1.71875 2.546875 -1.492188 2.691406 -1.351562 C 2.839844 -1.210938 3.117188 -1.132812 3.519531 -1.121094 C 3.851562 -1.109375 4.175781 -1.097656 4.496094 -1.09375 C 4.816406 -1.085938 5.144531 -1.078125 5.476562 -1.066406 C 6.019531 -1.054688 6.484375 -0.988281 6.871094 -0.871094 C 7.257812 -0.753906 7.570312 -0.59375 7.8125 -0.390625 C 8.054688 -0.191406 8.234375 0.0429688 8.347656 0.300781 C 8.460938 0.5625 8.515625 0.847656 8.515625 1.15625 C 8.515625 1.570312 8.433594 1.992188 8.273438 2.417969 C 8.113281 2.84375 7.867188 3.230469 7.527344 3.574219 C 7.191406 3.917969 6.753906 4.203125 6.222656 4.425781 C 5.6875 4.652344 5.046875 4.765625 4.300781 4.765625 C 3.152344 4.765625 2.246094 4.535156 1.582031 4.078125 C 0.917969 3.621094 0.585938 3 0.585938 2.203125 C 0.585938 1.894531 0.644531 1.613281 0.753906 1.351562 C 0.867188 1.089844 1.011719 0.859375 1.191406 0.65625 C 1.367188 0.457031 1.570312 0.296875 1.796875 0.179688 C 2.019531 0.0585938 2.25 -0.03125 2.488281 -0.0898438 L 2.488281 -0.125 C 2.121094 -0.230469 1.84375 -0.410156 1.652344 -0.65625 C 1.464844 -0.90625 1.367188 -1.203125 1.367188 -1.546875 C 1.367188 -1.75 1.40625 -1.933594 1.484375 -2.097656 C 1.5625 -2.261719 1.660156 -2.410156 1.777344 -2.542969 C 1.894531 -2.671875 2.03125 -2.777344 2.1875 -2.863281 C 2.339844 -2.945312 2.488281 -3 2.632812 -3.023438 L 2.632812 -3.058594 C 2.085938 -3.296875 1.660156 -3.628906 1.351562 -4.0625 C 1.042969 -4.496094 0.890625 -5.035156 0.890625 -5.6875 Z "/>
</g>
<g id="glyph-0-4">
<path d="M 5.421875 -6.949219 C 5.363281 -7.019531 5.246094 -7.085938 5.074219 -7.148438 C 4.902344 -7.207031 4.730469 -7.234375 4.550781 -7.234375 C 4.265625 -7.234375 4.011719 -7.171875 3.785156 -7.039062 C 3.5625 -6.910156 3.371094 -6.734375 3.21875 -6.515625 C 3.0625 -6.296875 2.945312 -6.035156 2.863281 -5.734375 C 2.78125 -5.429688 2.738281 -5.109375 2.738281 -4.765625 L 2.738281 -2.808594 C 2.738281 -2.015625 2.742188 -1.40625 2.746094 -0.988281 C 2.753906 -0.566406 2.773438 -0.226562 2.808594 0.0351562 C 2.570312 0.0117188 2.335938 0 2.097656 0 C 1.835938 0 1.589844 0.0117188 1.351562 0.0351562 C 1.386719 -0.367188 1.40625 -0.914062 1.414062 -1.609375 C 1.417969 -2.300781 1.421875 -3.152344 1.421875 -4.160156 L 1.421875 -4.730469 C 1.421875 -5.191406 1.417969 -5.722656 1.414062 -6.328125 C 1.40625 -6.933594 1.386719 -7.625 1.351562 -8.410156 C 1.480469 -8.386719 1.605469 -8.363281 1.722656 -8.347656 C 1.84375 -8.328125 1.96875 -8.320312 2.097656 -8.320312 C 2.203125 -8.320312 2.316406 -8.328125 2.433594 -8.347656 C 2.554688 -8.363281 2.679688 -8.386719 2.808594 -8.410156 C 2.761719 -7.984375 2.734375 -7.644531 2.730469 -7.394531 C 2.722656 -7.144531 2.71875 -6.910156 2.71875 -6.683594 L 2.753906 -6.667969 C 3.453125 -7.945312 4.238281 -8.585938 5.101562 -8.585938 C 5.207031 -8.585938 5.300781 -8.582031 5.378906 -8.570312 C 5.457031 -8.558594 5.550781 -8.527344 5.671875 -8.480469 C 5.613281 -8.335938 5.574219 -8.121094 5.5625 -7.832031 C 5.550781 -7.539062 5.546875 -7.277344 5.546875 -7.039062 Z "/>
</g>
<g id="glyph-0-5">
<path d="M 5.917969 -4.390625 C 5.71875 -4.320312 5.484375 -4.261719 5.21875 -4.214844 C 4.953125 -4.167969 4.679688 -4.117188 4.410156 -4.0625 C 4.136719 -4.007812 3.867188 -3.941406 3.601562 -3.859375 C 3.332031 -3.773438 3.097656 -3.664062 2.890625 -3.519531 C 2.683594 -3.378906 2.515625 -3.199219 2.390625 -2.988281 C 2.265625 -2.773438 2.203125 -2.5 2.203125 -2.167969 C 2.203125 -1.613281 2.363281 -1.191406 2.683594 -0.90625 C 3.003906 -0.621094 3.359375 -0.480469 3.75 -0.480469 C 4.199219 -0.480469 4.613281 -0.605469 4.988281 -0.851562 C 5.359375 -1.101562 5.648438 -1.390625 5.847656 -1.722656 Z M 1.527344 -7.554688 C 2.0625 -7.957031 2.554688 -8.230469 3.003906 -8.375 C 3.453125 -8.515625 3.917969 -8.585938 4.390625 -8.585938 C 4.816406 -8.585938 5.207031 -8.523438 5.5625 -8.398438 C 5.917969 -8.273438 6.222656 -8.097656 6.472656 -7.867188 C 6.71875 -7.636719 6.914062 -7.355469 7.058594 -7.03125 C 7.199219 -6.707031 7.269531 -6.347656 7.269531 -5.957031 C 7.269531 -5.28125 7.257812 -4.605469 7.234375 -3.9375 C 7.210938 -3.269531 7.199219 -2.558594 7.199219 -1.8125 C 7.199219 -1.671875 7.203125 -1.519531 7.207031 -1.359375 C 7.214844 -1.199219 7.242188 -1.058594 7.289062 -0.933594 C 7.335938 -0.808594 7.402344 -0.707031 7.492188 -0.621094 C 7.582031 -0.539062 7.714844 -0.496094 7.894531 -0.496094 C 7.953125 -0.496094 8.015625 -0.5 8.078125 -0.507812 C 8.144531 -0.511719 8.207031 -0.535156 8.265625 -0.570312 L 8.265625 -0.179688 C 8.136719 -0.121094 7.972656 -0.0703125 7.777344 -0.0351562 C 7.582031 0 7.367188 0.0195312 7.128906 0.0195312 C 6.75 0.0195312 6.460938 -0.078125 6.257812 -0.277344 C 6.054688 -0.472656 5.9375 -0.722656 5.902344 -1.03125 C 5.476562 -0.605469 5.054688 -0.289062 4.640625 -0.0898438 C 4.226562 0.113281 3.714844 0.214844 3.109375 0.214844 C 2.8125 0.214844 2.523438 0.171875 2.238281 0.0898438 C 1.953125 0.0078125 1.703125 -0.128906 1.484375 -0.320312 C 1.265625 -0.507812 1.085938 -0.738281 0.949219 -1.003906 C 0.8125 -1.269531 0.746094 -1.578125 0.746094 -1.921875 C 0.746094 -2.632812 0.96875 -3.183594 1.414062 -3.574219 C 1.859375 -3.964844 2.472656 -4.226562 3.253906 -4.355469 C 3.894531 -4.460938 4.394531 -4.554688 4.753906 -4.632812 C 5.117188 -4.707031 5.382812 -4.789062 5.554688 -4.871094 C 5.726562 -4.953125 5.832031 -5.050781 5.867188 -5.164062 C 5.902344 -5.277344 5.917969 -5.421875 5.917969 -5.601562 C 5.917969 -5.898438 5.882812 -6.179688 5.8125 -6.453125 C 5.742188 -6.726562 5.628906 -6.960938 5.476562 -7.164062 C 5.320312 -7.367188 5.121094 -7.527344 4.871094 -7.652344 C 4.621094 -7.777344 4.320312 -7.839844 3.964844 -7.839844 C 3.492188 -7.839844 3.046875 -7.734375 2.640625 -7.519531 C 2.230469 -7.304688 1.925781 -7.011719 1.722656 -6.632812 L 1.527344 -6.632812 Z "/>
</g>
<g id="glyph-0-6">
<path d="M 1.15625 -3.234375 C 1.15625 -3.636719 1.152344 -4.078125 1.148438 -4.550781 C 1.140625 -5.023438 1.132812 -5.496094 1.121094 -5.964844 C 1.109375 -6.433594 1.09375 -6.878906 1.074219 -7.304688 C 1.058594 -7.734375 1.035156 -8.101562 1.011719 -8.410156 C 1.34375 -8.351562 1.613281 -8.320312 1.8125 -8.320312 C 2.015625 -8.320312 2.28125 -8.347656 2.613281 -8.410156 C 2.566406 -8.101562 2.53125 -7.804688 2.507812 -7.519531 C 2.484375 -7.234375 2.472656 -6.949219 2.472656 -6.667969 L 2.507812 -6.667969 C 2.589844 -6.855469 2.707031 -7.0625 2.863281 -7.28125 C 3.015625 -7.5 3.214844 -7.707031 3.457031 -7.902344 C 3.699219 -8.097656 3.992188 -8.261719 4.335938 -8.390625 C 4.679688 -8.519531 5.074219 -8.585938 5.511719 -8.585938 C 5.960938 -8.585938 6.40625 -8.5 6.84375 -8.328125 C 7.28125 -8.15625 7.671875 -7.894531 8.007812 -7.539062 C 8.347656 -7.183594 8.617188 -6.730469 8.828125 -6.175781 C 9.035156 -5.625 9.136719 -4.972656 9.136719 -4.214844 C 9.136719 -3.457031 9.023438 -2.796875 8.800781 -2.238281 C 8.574219 -1.683594 8.28125 -1.222656 7.917969 -0.851562 C 7.558594 -0.484375 7.148438 -0.214844 6.683594 -0.0429688 C 6.222656 0.128906 5.761719 0.214844 5.296875 0.214844 C 3.992188 0.214844 3.0625 -0.351562 2.507812 -1.476562 L 2.472656 -1.476562 L 2.472656 -0.355469 C 2.472656 0.0234375 2.472656 0.449219 2.480469 0.914062 C 2.484375 1.382812 2.496094 1.847656 2.507812 2.3125 C 2.519531 2.773438 2.535156 3.214844 2.550781 3.636719 C 2.570312 4.054688 2.589844 4.414062 2.613281 4.710938 C 2.28125 4.652344 2.015625 4.621094 1.8125 4.621094 C 1.613281 4.621094 1.34375 4.652344 1.011719 4.710938 C 1.035156 4.414062 1.058594 4.054688 1.074219 3.636719 C 1.09375 3.214844 1.109375 2.773438 1.121094 2.3125 C 1.132812 1.847656 1.140625 1.382812 1.148438 0.914062 C 1.152344 0.445312 1.15625 0.0234375 1.15625 -0.355469 Z M 7.574219 -4.230469 C 7.574219 -4.941406 7.5 -5.527344 7.351562 -5.992188 C 7.203125 -6.453125 7.011719 -6.824219 6.78125 -7.101562 C 6.550781 -7.378906 6.289062 -7.574219 5.992188 -7.679688 C 5.695312 -7.785156 5.40625 -7.839844 5.121094 -7.839844 C 4.644531 -7.839844 4.238281 -7.738281 3.902344 -7.539062 C 3.5625 -7.335938 3.289062 -7.066406 3.074219 -6.730469 C 2.863281 -6.390625 2.707031 -5.992188 2.613281 -5.539062 C 2.519531 -5.082031 2.472656 -4.597656 2.472656 -4.089844 C 2.472656 -1.625 3.335938 -0.390625 5.066406 -0.390625 C 5.492188 -0.390625 5.863281 -0.488281 6.175781 -0.683594 C 6.492188 -0.878906 6.753906 -1.152344 6.960938 -1.503906 C 7.167969 -1.851562 7.320312 -2.261719 7.421875 -2.730469 C 7.523438 -3.199219 7.574219 -3.699219 7.574219 -4.230469 Z "/>
</g>
<g id="glyph-0-7">
<path d="M 1.492188 -8.25 C 1.492188 -8.652344 1.492188 -9.089844 1.484375 -9.5625 C 1.476562 -10.039062 1.46875 -10.507812 1.457031 -10.96875 C 1.445312 -11.429688 1.429688 -11.871094 1.414062 -12.292969 C 1.394531 -12.714844 1.375 -13.074219 1.351562 -13.367188 C 1.683594 -13.308594 1.949219 -13.28125 2.152344 -13.28125 C 2.351562 -13.28125 2.621094 -13.308594 2.949219 -13.367188 C 2.925781 -13.070312 2.90625 -12.714844 2.890625 -12.300781 C 2.871094 -11.886719 2.855469 -11.453125 2.84375 -10.996094 C 2.832031 -10.539062 2.824219 -10.078125 2.816406 -9.617188 C 2.8125 -9.15625 2.808594 -8.730469 2.808594 -8.335938 L 2.808594 -6.988281 L 2.84375 -6.988281 C 3.175781 -7.496094 3.574219 -7.890625 4.035156 -8.167969 C 4.496094 -8.445312 5.046875 -8.585938 5.6875 -8.585938 C 6.019531 -8.585938 6.355469 -8.539062 6.691406 -8.445312 C 7.03125 -8.351562 7.335938 -8.1875 7.609375 -7.957031 C 7.882812 -7.726562 8.101562 -7.410156 8.273438 -7.011719 C 8.445312 -6.617188 8.53125 -6.109375 8.53125 -5.492188 C 8.53125 -4.984375 8.519531 -4.460938 8.496094 -3.917969 C 8.472656 -3.378906 8.460938 -2.808594 8.460938 -2.203125 L 8.460938 -1.050781 C 8.460938 -0.859375 8.464844 -0.671875 8.472656 -0.488281 C 8.476562 -0.304688 8.484375 -0.128906 8.496094 0.0351562 C 8.261719 0.0117188 8.011719 0 7.75 0 C 7.5 0 7.257812 0.0117188 7.023438 0.0351562 C 7.046875 -0.582031 7.074219 -1.214844 7.101562 -1.867188 C 7.132812 -2.519531 7.148438 -3.1875 7.148438 -3.875 L 7.148438 -4.960938 C 7.148438 -5.847656 6.976562 -6.519531 6.632812 -6.976562 C 6.289062 -7.433594 5.8125 -7.660156 5.207031 -7.660156 C 4.378906 -7.660156 3.773438 -7.40625 3.386719 -6.898438 C 3 -6.386719 2.808594 -5.671875 2.808594 -4.746094 C 2.808594 -4.414062 2.8125 -4.03125 2.816406 -3.589844 C 2.824219 -3.152344 2.832031 -2.710938 2.84375 -2.265625 C 2.855469 -1.820312 2.871094 -1.390625 2.890625 -0.976562 C 2.90625 -0.5625 2.925781 -0.226562 2.949219 0.0351562 C 2.679688 0.0117188 2.410156 0 2.152344 0 C 1.890625 0 1.625 0.0117188 1.351562 0.0351562 C 1.375 -0.238281 1.394531 -0.582031 1.414062 -0.996094 C 1.429688 -1.410156 1.445312 -1.847656 1.457031 -2.3125 C 1.46875 -2.773438 1.476562 -3.242188 1.484375 -3.714844 C 1.492188 -4.1875 1.492188 -4.628906 1.492188 -5.03125 Z "/>
</g>
<g id="glyph-0-8">
<path d="M 1.5625 -11.5 C 1.5625 -11.75 1.652344 -11.964844 1.832031 -12.140625 C 2.007812 -12.320312 2.222656 -12.410156 2.472656 -12.410156 C 2.71875 -12.410156 2.933594 -12.320312 3.109375 -12.140625 C 3.289062 -11.964844 3.378906 -11.75 3.378906 -11.5 C 3.378906 -11.253906 3.289062 -11.039062 3.109375 -10.863281 C 2.933594 -10.683594 2.71875 -10.59375 2.472656 -10.59375 C 2.222656 -10.59375 2.007812 -10.683594 1.832031 -10.863281 C 1.652344 -11.039062 1.5625 -11.253906 1.5625 -11.5 Z M 1.8125 -5.085938 C 1.8125 -5.617188 1.804688 -6.175781 1.785156 -6.765625 C 1.769531 -7.351562 1.730469 -7.898438 1.671875 -8.410156 C 2.003906 -8.351562 2.269531 -8.320312 2.472656 -8.320312 C 2.671875 -8.320312 2.9375 -8.347656 3.269531 -8.410156 C 3.210938 -7.898438 3.171875 -7.351562 3.15625 -6.765625 C 3.136719 -6.179688 3.128906 -5.617188 3.128906 -5.085938 L 3.128906 -3.234375 C 3.128906 -2.703125 3.136719 -2.140625 3.15625 -1.554688 C 3.171875 -0.96875 3.210938 -0.4375 3.269531 0.0351562 C 2.996094 0.0117188 2.730469 0 2.472656 0 C 2.210938 0 1.945312 0.0117188 1.671875 0.0351562 C 1.730469 -0.4375 1.769531 -0.96875 1.785156 -1.554688 C 1.804688 -2.140625 1.8125 -2.703125 1.8125 -3.234375 Z "/>
</g>
<g id="glyph-0-9">
<path d="M 0.746094 -4.160156 C 0.746094 -4.929688 0.878906 -5.59375 1.136719 -6.152344 C 1.398438 -6.707031 1.738281 -7.167969 2.160156 -7.527344 C 2.582031 -7.890625 3.0625 -8.15625 3.609375 -8.328125 C 4.152344 -8.5 4.710938 -8.585938 5.28125 -8.585938 C 5.933594 -8.585938 6.515625 -8.507812 7.03125 -8.347656 C 7.546875 -8.1875 7.917969 -8.003906 8.140625 -7.804688 C 8.058594 -7.625 7.984375 -7.441406 7.917969 -7.246094 C 7.855469 -7.050781 7.796875 -6.84375 7.75 -6.632812 L 7.609375 -6.632812 C 7.527344 -6.785156 7.414062 -6.941406 7.269531 -7.101562 C 7.128906 -7.261719 6.960938 -7.410156 6.765625 -7.546875 C 6.570312 -7.683594 6.351562 -7.796875 6.117188 -7.882812 C 5.878906 -7.972656 5.617188 -8.019531 5.332031 -8.019531 C 4.800781 -8.019531 4.339844 -7.917969 3.957031 -7.722656 C 3.570312 -7.527344 3.257812 -7.257812 3.011719 -6.914062 C 2.769531 -6.570312 2.59375 -6.164062 2.480469 -5.699219 C 2.367188 -5.230469 2.3125 -4.722656 2.3125 -4.175781 C 2.3125 -2.957031 2.570312 -2.035156 3.09375 -1.414062 C 3.613281 -0.792969 4.378906 -0.480469 5.386719 -0.480469 C 5.625 -0.480469 5.867188 -0.511719 6.117188 -0.578125 C 6.363281 -0.644531 6.605469 -0.730469 6.84375 -0.84375 C 7.082031 -0.957031 7.304688 -1.089844 7.511719 -1.246094 C 7.71875 -1.398438 7.898438 -1.5625 8.054688 -1.742188 L 8.140625 -1.6875 C 8.082031 -1.402344 8.046875 -1.113281 8.035156 -0.816406 C 7.679688 -0.53125 7.238281 -0.289062 6.710938 -0.0898438 C 6.183594 0.113281 5.636719 0.214844 5.066406 0.214844 C 4.558594 0.214844 4.042969 0.140625 3.527344 -0.0078125 C 3.011719 -0.15625 2.546875 -0.40625 2.132812 -0.753906 C 1.71875 -1.105469 1.382812 -1.558594 1.128906 -2.117188 C 0.875 -2.671875 0.746094 -3.355469 0.746094 -4.160156 Z "/>
</g>
<g id="glyph-0-10">
<rect x="0" y="0" width="0" height="0" mask="url(#mask-0)"/>
</g>
<g id="glyph-0-11">
<path d="M 10.628906 -7.574219 C 10.628906 -8.355469 10.617188 -9.121094 10.585938 -9.875 C 10.554688 -10.628906 10.523438 -11.394531 10.488281 -12.175781 C 10.644531 -12.152344 10.789062 -12.132812 10.933594 -12.117188 C 11.074219 -12.097656 11.21875 -12.089844 11.359375 -12.089844 C 11.5 -12.089844 11.644531 -12.097656 11.785156 -12.117188 C 11.929688 -12.132812 12.078125 -12.152344 12.230469 -12.175781 C 12.195312 -11.394531 12.164062 -10.628906 12.132812 -9.875 C 12.101562 -9.121094 12.089844 -8.355469 12.089844 -7.574219 L 12.089844 -4.515625 C 12.089844 -3.734375 12.101562 -2.960938 12.132812 -2.203125 C 12.164062 -1.445312 12.195312 -0.699219 12.230469 0.0351562 C 11.957031 0.0117188 11.667969 0 11.359375 0 C 11.050781 0 10.761719 0.0117188 10.488281 0.0351562 C 10.523438 -0.699219 10.558594 -1.445312 10.585938 -2.203125 C 10.617188 -2.960938 10.628906 -3.734375 10.628906 -4.515625 L 10.628906 -6.117188 C 9.988281 -6.128906 9.371094 -6.136719 8.773438 -6.140625 C 8.175781 -6.148438 7.554688 -6.152344 6.914062 -6.152344 C 6.273438 -6.152344 5.65625 -6.148438 5.058594 -6.140625 C 4.460938 -6.136719 3.839844 -6.128906 3.199219 -6.117188 L 3.199219 -4.515625 C 3.199219 -3.734375 3.214844 -2.960938 3.246094 -2.203125 C 3.273438 -1.445312 3.304688 -0.699219 3.34375 0.0351562 C 3.070312 0.0117188 2.777344 0 2.472656 0 C 2.164062 0 1.871094 0.0117188 1.601562 0.0351562 C 1.636719 -0.699219 1.667969 -1.445312 1.699219 -2.203125 C 1.726562 -2.960938 1.742188 -3.734375 1.742188 -4.515625 L 1.742188 -7.574219 C 1.742188 -8.355469 1.726562 -9.121094 1.699219 -9.875 C 1.667969 -10.628906 1.636719 -11.394531 1.601562 -12.175781 C 1.753906 -12.152344 1.902344 -12.132812 2.042969 -12.117188 C 2.1875 -12.097656 2.328125 -12.089844 2.472656 -12.089844 C 2.613281 -12.089844 2.753906 -12.097656 2.898438 -12.117188 C 3.039062 -12.132812 3.1875 -12.152344 3.34375 -12.175781 C 3.308594 -11.394531 3.273438 -10.628906 3.246094 -9.875 C 3.214844 -9.121094 3.199219 -8.355469 3.199219 -7.574219 L 3.199219 -6.949219 C 3.839844 -6.9375 4.460938 -6.925781 5.058594 -6.914062 C 5.65625 -6.902344 6.277344 -6.898438 6.914062 -6.898438 C 7.554688 -6.898438 8.175781 -6.902344 8.773438 -6.914062 C 9.371094 -6.925781 9.992188 -6.9375 10.628906 -6.949219 Z "/>
</g>
<g id="glyph-0-12">
<path d="M 3.945312 0.0546875 C 3.816406 -0.265625 3.648438 -0.679688 3.441406 -1.191406 C 3.234375 -1.699219 3.011719 -2.238281 2.773438 -2.800781 C 2.535156 -3.363281 2.292969 -3.9375 2.042969 -4.523438 C 1.796875 -5.109375 1.5625 -5.660156 1.34375 -6.175781 C 1.125 -6.691406 0.929688 -7.148438 0.765625 -7.539062 C 0.597656 -7.929688 0.472656 -8.21875 0.390625 -8.410156 C 0.546875 -8.386719 0.6875 -8.363281 0.816406 -8.347656 C 0.949219 -8.328125 1.078125 -8.320312 1.207031 -8.320312 C 1.339844 -8.320312 1.46875 -8.328125 1.601562 -8.347656 C 1.730469 -8.363281 1.871094 -8.386719 2.027344 -8.410156 C 2.394531 -7.269531 2.804688 -6.144531 3.253906 -5.03125 C 3.703125 -3.917969 4.175781 -2.765625 4.675781 -1.582031 C 5.171875 -2.625 5.648438 -3.738281 6.105469 -4.925781 C 6.5625 -6.109375 6.96875 -7.269531 7.324219 -8.410156 C 7.5625 -8.351562 7.757812 -8.320312 7.910156 -8.320312 C 8.066406 -8.320312 8.261719 -8.347656 8.496094 -8.410156 C 8.414062 -8.242188 8.28125 -7.960938 8.097656 -7.5625 C 7.914062 -7.167969 7.695312 -6.691406 7.441406 -6.140625 C 7.183594 -5.589844 6.90625 -4.980469 6.605469 -4.3125 C 6.300781 -3.640625 5.992188 -2.953125 5.679688 -2.25 C 5.367188 -1.542969 5.054688 -0.84375 4.746094 -0.152344 C 4.4375 0.542969 4.152344 1.199219 3.894531 1.820312 C 3.632812 2.445312 3.40625 3.007812 3.207031 3.511719 C 3.011719 4.015625 2.867188 4.414062 2.773438 4.710938 C 2.535156 4.652344 2.335938 4.621094 2.167969 4.621094 C 2.003906 4.621094 1.800781 4.652344 1.5625 4.710938 C 2.5 3.160156 3.292969 1.605469 3.945312 0.0546875 Z "/>
</g>
</g>
<image id="source-15" x="0" y="0" width="0" height="0"/>
<mask id="mask-0">
<use xlink:href="#source-15"/>
</mask>
</defs>
<g fill="rgb(90.980392%, 89.411765%, 85.490196%)" fill-opacity="1">
<use xlink:href="#glyph-0-0" x="30" y="36.336914"/>
<use xlink:href="#glyph-0-1" x="44" y="36.336914"/>
<use xlink:href="#glyph-0-2" x="53" y="36.336914"/>
<use xlink:href="#glyph-0-3" x="63" y="36.336914"/>
<use xlink:href="#glyph-0-4" x="72" y="36.336914"/>
<use xlink:href="#glyph-0-5" x="78" y="36.336914"/>
<use xlink:href="#glyph-0-6" x="87" y="36.336914"/>
<use xlink:href="#glyph-0-7" x="97" y="36.336914"/>
<use xlink:href="#glyph-0-8" x="107" y="36.336914"/>
<use xlink:href="#glyph-0-9" x="112" y="36.336914"/>
<use xlink:href="#glyph-0-10" x="121" y="36.336914"/>
<use xlink:href="#glyph-0-11" x="126" y="36.336914"/>
<use xlink:href="#glyph-0-8" x="140" y="36.336914"/>
<use xlink:href="#glyph-0-1" x="145" y="36.336914"/>
<use xlink:href="#glyph-0-4" x="154" y="36.336914"/>
<use xlink:href="#glyph-0-5" x="160" y="36.336914"/>
<use xlink:href="#glyph-0-4" x="169" y="36.336914"/>
<use xlink:href="#glyph-0-9" x="175" y="36.336914"/>
<use xlink:href="#glyph-0-7" x="184" y="36.336914"/>
<use xlink:href="#glyph-0-12" x="193" y="36.336914"/>
</g>
</svg>
