<?xml version="1.0" encoding="UTF-8"?>
<svg xmlns="http://www.w3.org/2000/svg" xmlns:xlink="http://www.w3.org/1999/xlink" width="1920" height="1080" viewBox="0 0 1920 1080">
<defs>
<g>
<g id="glyph-0-0">
<path d="M 0.625 -0.265625 L 1.328125 -0.265625 L 1.328125 0 L 0.0625 0 L 0.714844 -0.792969 C 0.78125 -0.871094 0.835938 -0.941406 0.878906 -0.996094 C 0.921875 -1.054688 0.953125 -1.101562 0.976562 -1.140625 C 1.023438 -1.21875 1.046875 -1.289062 1.046875 -1.347656 C 1.046875 -1.4375 1.015625 -1.511719 0.953125 -1.570312 C 0.890625 -1.628906 0.816406 -1.660156 0.726562 -1.660156 C 0.535156 -1.660156 0.425781 -1.546875 0.398438 -1.320312 L 0.113281 -1.320312 C 0.160156 -1.71875 0.359375 -1.917969 0.714844 -1.917969 C 0.886719 -1.917969 1.03125 -1.863281 1.148438 -1.753906 C 1.265625 -1.644531 1.324219 -1.507812 1.324219 -1.347656 C 1.324219 -1.246094 1.296875 -1.144531 1.242188 -1.046875 C 1.214844 -0.996094 1.175781 -0.933594 1.121094 -0.863281 C 1.066406 -0.792969 1 -0.710938 0.917969 -0.613281 Z "/>
</g>
<g id="glyph-0-1">
<path d="M 0.214844 -0.136719 C 0.214844 -0.183594 0.234375 -0.222656 0.265625 -0.253906 C 0.300781 -0.289062 0.339844 -0.304688 0.386719 -0.304688 C 0.433594 -0.304688 0.472656 -0.289062 0.503906 -0.253906 C 0.539062 -0.222656 0.554688 -0.183594 0.554688 -0.136719 C 0.554688 -0.0898438 0.539062 -0.046875 0.503906 -0.015625 C 0.472656 0.015625 0.433594 0.0351562 0.386719 0.0351562 C 0.339844 0.0351562 0.296875 0.0195312 0.265625 -0.015625 C 0.234375 -0.046875 0.214844 -0.0859375 0.214844 -0.136719 Z "/>
</g>
</g>
</defs>
<g fill="rgb(90.980392%, 65.882353%, 21.960784%)" fill-opacity="1">
<use xlink:href="#glyph-0-0" x="30" y="22.59668"/>
<use xlink:href="#glyph-0-0" x="32" y="22.59668"/>
<use xlink:href="#glyph-0-1" x="34" y="22.59668"/>
<use xlink:href="#glyph-0-0" x="35" y="22.59668"/>
</g>
</svg>
