<?xml version="1.0" encoding="UTF-8"?>
<svg xmlns="http://www.w3.org/2000/svg" xmlns:xlink="http://www.w3.org/1999/xlink" width="1920" height="1080" viewBox="0 0 1920 1080">
<defs>
<g>
<g id="glyph-0-0">
<path d="M 5.753906 -6.339844 L 5.753906 -5.144531 C 5.171875 -5.632812 4.566406 -5.878906 3.941406 -5.878906 C 3.253906 -5.878906 2.671875 -5.628906 2.199219 -5.136719 C 1.726562 -4.644531 1.488281 -4.042969 1.488281 -3.328125 C 1.488281 -2.625 1.726562 -2.03125 2.199219 -1.550781 C 2.675781 -1.066406 3.257812 -0.824219 3.945312 -0.824219 C 4.300781 -0.824219 4.605469 -0.882812 4.851562 -1 C 4.992188 -1.058594 5.136719 -1.132812 5.285156 -1.234375 C 5.433594 -1.332031 5.589844 -1.449219 5.753906 -1.589844 L 5.753906 -0.367188 C 5.175781 -0.0429688 4.570312 0.121094 3.933594 0.121094 C 2.976562 0.121094 2.15625 -0.210938 1.480469 -0.882812 C 0.804688 -1.554688 0.46875 -2.367188 0.46875 -3.320312 C 0.46875 -4.175781 0.75 -4.933594 1.316406 -5.605469 C 2.011719 -6.421875 2.910156 -6.832031 4.011719 -6.832031 C 4.613281 -6.832031 5.195312 -6.667969 5.753906 -6.339844 Z "/>
</g>
<g id="glyph-0-1">
<path d="M 3.734375 -4.226562 L 4.714844 -4.226562 L 4.714844 0 L 3.734375 0 L 3.734375 -0.441406 C 3.332031 -0.0664062 2.898438 0.121094 2.433594 0.121094 C 1.851562 0.121094 1.367188 -0.0898438 0.984375 -0.511719 C 0.605469 -0.941406 0.417969 -1.480469 0.417969 -2.125 C 0.417969 -2.761719 0.605469 -3.289062 0.984375 -3.710938 C 1.363281 -4.132812 1.839844 -4.34375 2.410156 -4.34375 C 2.902344 -4.34375 3.34375 -4.140625 3.734375 -3.738281 Z M 1.414062 -2.125 C 1.414062 -1.722656 1.523438 -1.390625 1.742188 -1.136719 C 1.964844 -0.878906 2.242188 -0.75 2.582031 -0.75 C 2.945312 -0.75 3.238281 -0.875 3.460938 -1.125 C 3.683594 -1.382812 3.792969 -1.707031 3.792969 -2.105469 C 3.792969 -2.5 3.683594 -2.828125 3.460938 -3.085938 C 3.238281 -3.335938 2.949219 -3.464844 2.589844 -3.464844 C 2.253906 -3.464844 1.976562 -3.335938 1.75 -3.082031 C 1.527344 -2.824219 1.414062 -2.507812 1.414062 -2.125 Z "/>
</g>
<g id="glyph-0-2">
<path d="M 0.617188 -4.226562 L 1.597656 -4.226562 L 1.597656 -3.835938 C 1.9375 -4.175781 2.324219 -4.34375 2.753906 -4.34375 C 3.246094 -4.34375 3.628906 -4.191406 3.902344 -3.878906 C 4.140625 -3.617188 4.257812 -3.1875 4.257812 -2.589844 L 4.257812 0 L 3.277344 0 L 3.277344 -2.359375 C 3.277344 -2.777344 3.21875 -3.066406 3.105469 -3.226562 C 2.992188 -3.386719 2.785156 -3.46875 2.488281 -3.46875 C 2.164062 -3.46875 1.933594 -3.359375 1.796875 -3.148438 C 1.664062 -2.9375 1.597656 -2.566406 1.597656 -2.039062 L 1.597656 0 L 0.617188 0 Z "/>
</g>
<g id="glyph-0-3">
<rect x="0" y="0" width="0" height="0" mask="url(#mask-0)"/>
</g>
<g id="glyph-0-4">
<path d="M 1.949219 -0.785156 L 0.046875 -4.226562 L 1.179688 -4.226562 L 2.472656 -1.796875 L 3.679688 -4.226562 L 4.785156 -4.226562 L 1.414062 2.300781 L 0.300781 2.300781 Z "/>
</g>
<g id="glyph-0-5">
<path d="M 0.417969 -2.144531 C 0.417969 -2.753906 0.636719 -3.273438 1.070312 -3.703125 C 1.507812 -4.132812 2.042969 -4.34375 2.667969 -4.34375 C 3.300781 -4.34375 3.835938 -4.128906 4.277344 -3.699219 C 4.710938 -3.265625 4.925781 -2.738281 4.925781 -2.109375 C 4.925781 -1.476562 4.707031 -0.945312 4.269531 -0.515625 C 3.832031 -0.0898438 3.292969 0.121094 2.652344 0.121094 C 2.019531 0.121094 1.488281 -0.09375 1.058594 -0.53125 C 0.628906 -0.957031 0.417969 -1.496094 0.417969 -2.144531 Z M 1.414062 -2.125 C 1.414062 -1.703125 1.527344 -1.371094 1.753906 -1.125 C 1.984375 -0.875 2.289062 -0.75 2.667969 -0.75 C 3.050781 -0.75 3.355469 -0.875 3.585938 -1.121094 C 3.8125 -1.367188 3.929688 -1.695312 3.929688 -2.105469 C 3.929688 -2.515625 3.8125 -2.84375 3.585938 -3.089844 C 3.355469 -3.339844 3.046875 -3.464844 2.667969 -3.464844 C 2.296875 -3.464844 1.992188 -3.339844 1.761719 -3.089844 C 1.53125 -2.839844 1.414062 -2.519531 1.414062 -2.125 Z "/>
</g>
<g id="glyph-0-6">
<path d="M 1.59375 -4.226562 L 1.59375 -1.800781 C 1.59375 -1.101562 1.871094 -0.75 2.421875 -0.75 C 2.976562 -0.75 3.25 -1.101562 3.25 -1.800781 L 3.25 -4.226562 L 4.226562 -4.226562 L 4.226562 -1.78125 C 4.226562 -1.441406 4.1875 -1.148438 4.101562 -0.902344 C 4.019531 -0.683594 3.878906 -0.484375 3.679688 -0.308594 C 3.351562 -0.0234375 2.929688 0.121094 2.421875 0.121094 C 1.914062 0.121094 1.496094 -0.0234375 1.167969 -0.308594 C 0.964844 -0.484375 0.820312 -0.683594 0.738281 -0.902344 C 0.65625 -1.097656 0.617188 -1.390625 0.617188 -1.78125 L 0.617188 -4.226562 Z "/>
</g>
<g id="glyph-0-7">
<path d="M 4.707031 -0.101562 C 4.707031 0.0976562 4.699219 0.277344 4.6875 0.425781 C 4.671875 0.578125 4.65625 0.714844 4.632812 0.828125 C 4.5625 1.148438 4.425781 1.421875 4.222656 1.648438 C 3.839844 2.089844 3.316406 2.308594 2.648438 2.308594 C 2.082031 2.308594 1.617188 2.15625 1.253906 1.851562 C 0.878906 1.539062 0.660156 1.109375 0.601562 0.554688 L 1.585938 0.554688 C 1.621094 0.761719 1.683594 0.925781 1.769531 1.039062 C 1.972656 1.300781 2.269531 1.433594 2.65625 1.433594 C 3.371094 1.433594 3.730469 0.992188 3.730469 0.117188 L 3.730469 -0.472656 C 3.339844 -0.078125 2.894531 0.121094 2.386719 0.121094 C 1.8125 0.121094 1.339844 -0.0859375 0.972656 -0.503906 C 0.601562 -0.925781 0.417969 -1.453125 0.417969 -2.085938 C 0.417969 -2.703125 0.589844 -3.226562 0.933594 -3.660156 C 1.304688 -4.117188 1.792969 -4.34375 2.398438 -4.34375 C 2.933594 -4.34375 3.375 -4.148438 3.730469 -3.75 L 3.730469 -4.226562 L 4.707031 -4.226562 Z M 3.769531 -2.105469 C 3.769531 -2.515625 3.65625 -2.84375 3.4375 -3.089844 C 3.214844 -3.34375 2.929688 -3.46875 2.582031 -3.46875 C 2.210938 -3.46875 1.921875 -3.332031 1.707031 -3.054688 C 1.511719 -2.808594 1.414062 -2.492188 1.414062 -2.101562 C 1.414062 -1.714844 1.511719 -1.402344 1.707031 -1.15625 C 1.917969 -0.886719 2.210938 -0.75 2.582031 -0.75 C 2.957031 -0.75 3.25 -0.886719 3.46875 -1.160156 C 3.667969 -1.40625 3.769531 -1.71875 3.769531 -2.105469 Z "/>
</g>
<g id="glyph-0-8">
<path d="M 4.464844 -1.882812 L 1.4375 -1.882812 C 1.464844 -1.535156 1.574219 -1.261719 1.773438 -1.054688 C 1.972656 -0.851562 2.230469 -0.75 2.542969 -0.75 C 2.785156 -0.75 2.988281 -0.808594 3.148438 -0.925781 C 3.304688 -1.039062 3.480469 -1.253906 3.679688 -1.566406 L 4.503906 -1.105469 C 4.378906 -0.890625 4.242188 -0.703125 4.101562 -0.550781 C 3.960938 -0.394531 3.808594 -0.265625 3.644531 -0.167969 C 3.484375 -0.0664062 3.308594 0.00390625 3.121094 0.0507812 C 2.933594 0.0976562 2.730469 0.121094 2.507812 0.121094 C 1.878906 0.121094 1.371094 -0.0820312 0.988281 -0.484375 C 0.605469 -0.894531 0.417969 -1.433594 0.417969 -2.109375 C 0.417969 -2.777344 0.601562 -3.320312 0.972656 -3.734375 C 1.347656 -4.140625 1.839844 -4.34375 2.457031 -4.34375 C 3.078125 -4.34375 3.570312 -4.148438 3.933594 -3.75 C 4.292969 -3.355469 4.472656 -2.8125 4.472656 -2.113281 Z M 3.464844 -2.683594 C 3.328125 -3.203125 3 -3.464844 2.476562 -3.464844 C 2.359375 -3.464844 2.25 -3.445312 2.144531 -3.410156 C 2.039062 -3.375 1.945312 -3.320312 1.859375 -3.253906 C 1.773438 -3.183594 1.703125 -3.105469 1.640625 -3.007812 C 1.578125 -2.914062 1.535156 -2.804688 1.5 -2.683594 Z "/>
</g>
<g id="glyph-0-9">
<path d="M 3.074219 -3.507812 L 2.265625 -3.078125 C 2.136719 -3.339844 1.980469 -3.46875 1.792969 -3.46875 C 1.703125 -3.46875 1.625 -3.4375 1.5625 -3.378906 C 1.5 -3.320312 1.46875 -3.242188 1.46875 -3.152344 C 1.46875 -2.988281 1.65625 -2.828125 2.03125 -2.667969 C 2.550781 -2.445312 2.898438 -2.242188 3.078125 -2.054688 C 3.257812 -1.867188 3.347656 -1.613281 3.347656 -1.292969 C 3.347656 -0.886719 3.195312 -0.542969 2.894531 -0.269531 C 2.601562 -0.0078125 2.25 0.121094 1.835938 0.121094 C 1.128906 0.121094 0.625 -0.222656 0.328125 -0.914062 L 1.164062 -1.300781 C 1.28125 -1.097656 1.367188 -0.972656 1.429688 -0.914062 C 1.546875 -0.804688 1.6875 -0.75 1.851562 -0.75 C 2.183594 -0.75 2.347656 -0.902344 2.347656 -1.203125 C 2.347656 -1.375 2.222656 -1.539062 1.964844 -1.6875 C 1.867188 -1.738281 1.769531 -1.785156 1.671875 -1.832031 C 1.574219 -1.878906 1.472656 -1.925781 1.371094 -1.976562 C 1.085938 -2.113281 0.886719 -2.253906 0.773438 -2.390625 C 0.625 -2.566406 0.550781 -2.796875 0.550781 -3.074219 C 0.550781 -3.441406 0.675781 -3.746094 0.929688 -3.984375 C 1.1875 -4.226562 1.5 -4.34375 1.867188 -4.34375 C 2.40625 -4.34375 2.808594 -4.066406 3.074219 -3.507812 Z "/>
</g>
<g id="glyph-0-10">
<path d="M 1.144531 -4.226562 L 2.253906 -1.8125 L 3.445312 -4.613281 L 4.648438 -1.8125 L 5.742188 -4.226562 L 6.835938 -4.226562 L 4.621094 0.316406 L 3.445312 -2.40625 L 2.257812 0.316406 L 0.046875 -4.226562 Z "/>
</g>
<g id="glyph-0-11">
<path d="M 0.617188 -7.332031 L 1.59375 -7.332031 L 1.59375 -3.875 C 1.941406 -4.1875 2.324219 -4.34375 2.742188 -4.34375 C 3.21875 -4.34375 3.601562 -4.191406 3.890625 -3.878906 C 4.132812 -3.609375 4.253906 -3.183594 4.253906 -2.589844 L 4.253906 0 L 3.277344 0 L 3.277344 -2.5 C 3.277344 -2.839844 3.21875 -3.085938 3.097656 -3.234375 C 2.976562 -3.386719 2.785156 -3.464844 2.515625 -3.464844 C 2.175781 -3.464844 1.9375 -3.359375 1.796875 -3.148438 C 1.660156 -2.933594 1.59375 -2.566406 1.59375 -2.042969 L 1.59375 0 L 0.617188 0 Z "/>
</g>
<g id="glyph-0-12">
<path d="M 0.617188 -4.226562 L 1.59375 -4.226562 L 1.59375 -3.851562 C 1.773438 -4.039062 1.929688 -4.167969 2.070312 -4.238281 C 2.210938 -4.308594 2.378906 -4.34375 2.574219 -4.34375 C 2.832031 -4.34375 3.101562 -4.261719 3.382812 -4.09375 L 2.933594 -3.199219 C 2.75 -3.332031 2.566406 -3.398438 2.390625 -3.398438 C 1.859375 -3.398438 1.59375 -2.996094 1.59375 -2.191406 L 1.59375 0 L 0.617188 0 Z "/>
</g>
<g id="glyph-0-13">
<path d="M 1.625 -3.316406 L 1.625 0 L 0.648438 0 L 0.648438 -3.316406 L 0.230469 -3.316406 L 0.230469 -4.226562 L 0.648438 -4.226562 L 0.648438 -5.777344 L 1.625 -5.777344 L 1.625 -4.226562 L 2.382812 -4.226562 L 2.382812 -3.316406 Z "/>
</g>
<g id="glyph-0-14">
<path d="M 1.59375 -4.226562 L 1.59375 0 L 0.617188 0 L 0.617188 -4.226562 Z M 0.46875 -5.984375 C 0.46875 -6.15625 0.53125 -6.304688 0.65625 -6.429688 C 0.78125 -6.554688 0.929688 -6.613281 1.101562 -6.613281 C 1.277344 -6.613281 1.429688 -6.554688 1.554688 -6.429688 C 1.679688 -6.308594 1.742188 -6.15625 1.742188 -5.980469 C 1.742188 -5.804688 1.679688 -5.65625 1.554688 -5.53125 C 1.433594 -5.40625 1.285156 -5.34375 1.105469 -5.34375 C 0.929688 -5.34375 0.78125 -5.40625 0.65625 -5.53125 C 0.53125 -5.65625 0.46875 -5.804688 0.46875 -5.984375 Z "/>
</g>
<g id="glyph-0-15">
<path d="M 1.59375 2.300781 L 0.617188 2.300781 L 0.617188 -4.226562 L 1.59375 -4.226562 L 1.59375 -3.769531 C 1.976562 -4.152344 2.414062 -4.34375 2.902344 -4.34375 C 3.484375 -4.34375 3.964844 -4.128906 4.339844 -3.703125 C 4.722656 -3.277344 4.914062 -2.742188 4.914062 -2.09375 C 4.914062 -1.457031 4.722656 -0.929688 4.34375 -0.507812 C 3.96875 -0.0898438 3.496094 0.121094 2.921875 0.121094 C 2.425781 0.121094 1.984375 -0.078125 1.59375 -0.472656 Z M 3.914062 -2.085938 C 3.914062 -2.492188 3.804688 -2.824219 3.585938 -3.078125 C 3.363281 -3.335938 3.082031 -3.464844 2.742188 -3.464844 C 2.382812 -3.464844 2.09375 -3.339844 1.871094 -3.089844 C 1.648438 -2.839844 1.535156 -2.515625 1.535156 -2.109375 C 1.535156 -1.714844 1.648438 -1.386719 1.871094 -1.128906 C 2.089844 -0.875 2.378906 -0.75 2.738281 -0.75 C 3.078125 -0.75 3.355469 -0.878906 3.578125 -1.132812 C 3.804688 -1.386719 3.914062 -1.707031 3.914062 -2.085938 Z "/>
</g>
<g id="glyph-0-16">
<path d="M 1.59375 -7.332031 L 1.59375 -2.859375 L 2.96875 -4.226562 L 4.28125 -4.226562 L 2.445312 -2.453125 L 4.414062 0 L 3.148438 0 L 1.75 -1.785156 L 1.59375 -1.628906 L 1.59375 0 L 0.617188 0 L 0.617188 -7.332031 Z "/>
</g>
<g id="glyph-0-17">
<path d="M 2.6875 -3.128906 L 3.667969 -3.128906 C 3.667969 -2.691406 3.550781 -2.335938 3.316406 -2.066406 C 3.011719 -1.714844 2.625 -1.539062 2.148438 -1.539062 C 1.730469 -1.539062 1.382812 -1.6875 1.101562 -1.976562 C 0.820312 -2.269531 0.675781 -2.625 0.675781 -3.046875 C 0.675781 -3.382812 0.765625 -3.652344 0.941406 -3.855469 C 1.121094 -4.058594 1.425781 -4.238281 1.851562 -4.394531 C 2.277344 -4.550781 2.546875 -4.675781 2.660156 -4.769531 C 2.777344 -4.867188 2.835938 -5.011719 2.835938 -5.214844 C 2.835938 -5.414062 2.773438 -5.570312 2.65625 -5.6875 C 2.535156 -5.804688 2.375 -5.863281 2.175781 -5.863281 C 1.976562 -5.863281 1.816406 -5.804688 1.695312 -5.691406 C 1.578125 -5.574219 1.519531 -5.417969 1.519531 -5.21875 C 1.519531 -5.128906 1.535156 -5.003906 1.570312 -4.84375 L 0.558594 -4.84375 C 0.554688 -4.917969 0.550781 -4.984375 0.542969 -5.042969 C 0.539062 -5.101562 0.539062 -5.152344 0.539062 -5.199219 C 0.539062 -5.65625 0.691406 -6.039062 1.003906 -6.339844 C 1.308594 -6.644531 1.695312 -6.796875 2.164062 -6.796875 C 2.636719 -6.796875 3.03125 -6.644531 3.347656 -6.335938 C 3.664062 -6.03125 3.820312 -5.648438 3.820312 -5.1875 C 3.820312 -4.714844 3.660156 -4.335938 3.347656 -4.046875 C 3.148438 -3.863281 2.769531 -3.6875 2.21875 -3.515625 C 1.84375 -3.398438 1.652344 -3.21875 1.652344 -2.96875 C 1.652344 -2.898438 1.667969 -2.832031 1.695312 -2.773438 C 1.722656 -2.710938 1.757812 -2.65625 1.804688 -2.609375 C 1.851562 -2.5625 1.90625 -2.527344 1.96875 -2.5 C 2.03125 -2.472656 2.097656 -2.460938 2.164062 -2.460938 C 2.484375 -2.460938 2.65625 -2.683594 2.6875 -3.128906 Z M 1.578125 -0.484375 C 1.578125 -0.648438 1.640625 -0.789062 1.757812 -0.90625 C 1.875 -1.027344 2.019531 -1.085938 2.183594 -1.085938 C 2.347656 -1.085938 2.488281 -1.027344 2.609375 -0.90625 C 2.726562 -0.789062 2.785156 -0.648438 2.785156 -0.480469 C 2.785156 -0.3125 2.726562 -0.171875 2.609375 -0.0507812 C 2.492188 0.0625 2.351562 0.121094 2.1875 0.121094 C 2.015625 0.121094 1.875 0.0625 1.757812 -0.0507812 C 1.640625 -0.171875 1.578125 -0.316406 1.578125 -0.484375 Z "/>
</g>
</g>
<image id="source-43" x="0" y="0" width="0" height="0"/>
<mask id="mask-0">
<use xlink:href="#source-43"/>
</mask>
</defs>
<g fill="rgb(90.980392%, 89.411765%, 85.490196%)" fill-opacity="1">
<use xlink:href="#glyph-0-0" x="30" y="29.232422"/>
<use xlink:href="#glyph-0-1" x="36" y="29.232422"/>
<use xlink:href="#glyph-0-2" x="41" y="29.232422"/>
<use xlink:href="#glyph-0-3" x="46" y="29.232422"/>
<use xlink:href="#glyph-0-4" x="49" y="29.232422"/>
<use xlink:href="#glyph-0-5" x="54" y="29.232422"/>
<use xlink:href="#glyph-0-6" x="59" y="29.232422"/>
<use xlink:href="#glyph-0-3" x="64" y="29.232422"/>
<use xlink:href="#glyph-0-7" x="67" y="29.232422"/>
<use xlink:href="#glyph-0-6" x="72" y="29.232422"/>
<use xlink:href="#glyph-0-8" x="77" y="29.232422"/>
<use xlink:href="#glyph-0-9" x="82" y="29.232422"/>
<use xlink:href="#glyph-0-9" x="86" y="29.232422"/>
<use xlink:href="#glyph-0-3" x="90" y="29.232422"/>
<use xlink:href="#glyph-0-10" x="93" y="29.232422"/>
<use xlink:href="#glyph-0-11" x="100" y="29.232422"/>
<use xlink:href="#glyph-0-8" x="105" y="29.232422"/>
<use xlink:href="#glyph-0-12" x="110" y="29.232422"/>
<use xlink:href="#glyph-0-8" x="113" y="29.232422"/>
<use xlink:href="#glyph-0-3" x="118" y="29.232422"/>
</g>
<g fill="rgb(90.980392%, 89.411765%, 85.490196%)" fill-opacity="1">
<use xlink:href="#glyph-0-13" x="30" y="43.900391"/>
<use xlink:href="#glyph-0-11" x="33" y="43.900391"/>
<use xlink:href="#glyph-0-14" x="38" y="43.900391"/>
<use xlink:href="#glyph-0-9" x="40" y="43.900391"/>
<use xlink:href="#glyph-0-3" x="44" y="43.900391"/>
<use xlink:href="#glyph-0-15" x="47" y="43.900391"/>
<use xlink:href="#glyph-0-11" x="52" y="43.900391"/>
<use xlink:href="#glyph-0-5" x="57" y="43.900391"/>
<use xlink:href="#glyph-0-13" x="62" y="43.900391"/>
<use xlink:href="#glyph-0-5" x="64" y="43.900391"/>
<use xlink:href="#glyph-0-3" x="69" y="43.900391"/>
<use xlink:href="#glyph-0-10" x="72" y="43.900391"/>
<use xlink:href="#glyph-0-1" x="79" y="43.900391"/>
<use xlink:href="#glyph-0-9" x="84" y="43.900391"/>
<use xlink:href="#glyph-0-3" x="88" y="43.900391"/>
<use xlink:href="#glyph-0-13" x="91" y="43.900391"/>
<use xlink:href="#glyph-0-1" x="94" y="43.900391"/>
<use xlink:href="#glyph-0-16" x="99" y="43.900391"/>
<use xlink:href="#glyph-0-8" x="103" y="43.900391"/>
<use xlink:href="#glyph-0-2" x="108" y="43.900391"/>
<use xlink:href="#glyph-0-17" x="113" y="43.900391"/>
</g>
</svg>
