<?xml version="1.0" encoding="UTF-8"?>
<svg xmlns="http://www.w3.org/2000/svg" xmlns:xlink="http://www.w3.org/1999/xlink" width="1920" height="1080" viewBox="0 0 1920 1080">
<defs>
<g>
<g id="glyph-0-0">
<path d="M 0.652344 0 L 0.652344 -5.816406 L 4.625 -1.660156 L 4.625 -5.445312 L 5.445312 -5.445312 L 5.445312 0.332031 L 1.472656 -3.8125 L 1.472656 0 Z "/>
</g>
<g id="glyph-0-1">
<path d="M 0.339844 -1.742188 C 0.339844 -2.238281 0.515625 -2.660156 0.871094 -3.007812 C 1.226562 -3.355469 1.660156 -3.53125 2.167969 -3.53125 C 2.679688 -3.53125 3.117188 -3.355469 3.472656 -3.003906 C 3.824219 -2.652344 4.003906 -2.222656 4.003906 -1.714844 C 4.003906 -1.199219 3.824219 -0.769531 3.46875 -0.417969 C 3.113281 -0.0742188 2.675781 0.0976562 2.15625 0.0976562 C 1.640625 0.0976562 1.207031 -0.078125 0.859375 -0.429688 C 0.511719 -0.777344 0.339844 -1.214844 0.339844 -1.742188 Z M 1.148438 -1.726562 C 1.148438 -1.382812 1.242188 -1.113281 1.425781 -0.914062 C 1.613281 -0.710938 1.859375 -0.609375 2.167969 -0.609375 C 2.480469 -0.609375 2.726562 -0.710938 2.914062 -0.910156 C 3.097656 -1.109375 3.191406 -1.375 3.191406 -1.710938 C 3.191406 -2.042969 3.097656 -2.3125 2.914062 -2.511719 C 2.726562 -2.714844 2.476562 -2.8125 2.167969 -2.8125 C 1.867188 -2.8125 1.621094 -2.714844 1.433594 -2.511719 C 1.246094 -2.308594 1.148438 -2.046875 1.148438 -1.726562 Z "/>
</g>
<g id="glyph-0-2">
<rect x="0" y="0" width="0" height="0" mask="url(#mask-0)"/>
</g>
<g id="glyph-0-3">
<path d="M 3.730469 -4.632812 L 3.066406 -4.238281 C 2.941406 -4.457031 2.820312 -4.597656 2.707031 -4.664062 C 2.589844 -4.738281 2.4375 -4.773438 2.253906 -4.773438 C 2.027344 -4.773438 1.835938 -4.710938 1.6875 -4.582031 C 1.535156 -4.453125 1.460938 -4.292969 1.460938 -4.101562 C 1.460938 -3.835938 1.65625 -3.621094 2.050781 -3.460938 L 2.59375 -3.238281 C 3.035156 -3.058594 3.359375 -2.839844 3.566406 -2.582031 C 3.769531 -2.324219 3.871094 -2.011719 3.871094 -1.636719 C 3.871094 -1.136719 3.707031 -0.722656 3.371094 -0.394531 C 3.035156 -0.0664062 2.617188 0.0976562 2.121094 0.0976562 C 1.648438 0.0976562 1.257812 -0.0429688 0.949219 -0.320312 C 0.644531 -0.601562 0.457031 -0.996094 0.382812 -1.503906 L 1.214844 -1.6875 C 1.25 -1.367188 1.316406 -1.144531 1.410156 -1.023438 C 1.578125 -0.789062 1.828125 -0.671875 2.152344 -0.671875 C 2.40625 -0.671875 2.621094 -0.757812 2.789062 -0.925781 C 2.957031 -1.097656 3.042969 -1.316406 3.042969 -1.578125 C 3.042969 -1.683594 3.027344 -1.78125 3 -1.871094 C 2.96875 -1.960938 2.925781 -2.039062 2.863281 -2.113281 C 2.800781 -2.1875 2.71875 -2.257812 2.621094 -2.324219 C 2.523438 -2.386719 2.402344 -2.449219 2.269531 -2.507812 L 1.742188 -2.726562 C 0.996094 -3.042969 0.625 -3.503906 0.625 -4.109375 C 0.625 -4.519531 0.78125 -4.859375 1.09375 -5.136719 C 1.40625 -5.414062 1.796875 -5.550781 2.261719 -5.550781 C 2.890625 -5.550781 3.378906 -5.246094 3.730469 -4.632812 Z "/>
</g>
<g id="glyph-0-4">
<path d="M 1.320312 -2.695312 L 1.320312 0 L 0.527344 0 L 0.527344 -2.695312 L 0.1875 -2.695312 L 0.1875 -3.433594 L 0.527344 -3.433594 L 0.527344 -4.695312 L 1.320312 -4.695312 L 1.320312 -3.433594 L 1.9375 -3.433594 L 1.9375 -2.695312 Z "/>
</g>
<g id="glyph-0-5">
<path d="M 0.5 -3.433594 L 1.292969 -3.433594 L 1.292969 -3.128906 C 1.441406 -3.28125 1.570312 -3.386719 1.683594 -3.441406 C 1.796875 -3.5 1.933594 -3.53125 2.089844 -3.53125 C 2.300781 -3.53125 2.519531 -3.460938 2.746094 -3.324219 L 2.382812 -2.597656 C 2.234375 -2.707031 2.085938 -2.761719 1.941406 -2.761719 C 1.511719 -2.761719 1.292969 -2.433594 1.292969 -1.78125 L 1.292969 0 L 0.5 0 Z "/>
</g>
<g id="glyph-0-6">
<path d="M 1.292969 -3.433594 L 1.292969 -1.464844 C 1.292969 -0.894531 1.519531 -0.609375 1.96875 -0.609375 C 2.417969 -0.609375 2.640625 -0.894531 2.640625 -1.464844 L 2.640625 -3.433594 L 3.433594 -3.433594 L 3.433594 -1.445312 C 3.433594 -1.171875 3.402344 -0.933594 3.332031 -0.734375 C 3.265625 -0.554688 3.152344 -0.394531 2.992188 -0.25 C 2.722656 -0.015625 2.382812 0.0976562 1.96875 0.0976562 C 1.558594 0.0976562 1.214844 -0.0195312 0.949219 -0.25 C 0.785156 -0.394531 0.667969 -0.554688 0.597656 -0.734375 C 0.53125 -0.894531 0.5 -1.132812 0.5 -1.445312 L 0.5 -3.433594 Z "/>
</g>
<g id="glyph-0-7">
<path d="M 3.175781 -3.285156 L 3.175781 -2.230469 C 2.992188 -2.453125 2.832031 -2.605469 2.6875 -2.6875 C 2.546875 -2.773438 2.378906 -2.8125 2.191406 -2.8125 C 1.890625 -2.8125 1.644531 -2.710938 1.445312 -2.5 C 1.25 -2.292969 1.148438 -2.027344 1.148438 -1.714844 C 1.148438 -1.390625 1.246094 -1.128906 1.433594 -0.921875 C 1.628906 -0.714844 1.875 -0.609375 2.171875 -0.609375 C 2.363281 -0.609375 2.53125 -0.652344 2.675781 -0.734375 C 2.816406 -0.8125 2.984375 -0.96875 3.175781 -1.199219 L 3.175781 -0.152344 C 2.851562 0.015625 2.53125 0.0976562 2.207031 0.0976562 C 1.675781 0.0976562 1.230469 -0.0742188 0.875 -0.417969 C 0.515625 -0.761719 0.339844 -1.191406 0.339844 -1.703125 C 0.339844 -2.214844 0.519531 -2.648438 0.882812 -3 C 1.242188 -3.351562 1.6875 -3.53125 2.214844 -3.53125 C 2.554688 -3.53125 2.875 -3.449219 3.175781 -3.285156 Z "/>
</g>
<g id="glyph-0-8">
<path d="M 3.628906 -1.53125 L 1.167969 -1.53125 C 1.1875 -1.25 1.28125 -1.023438 1.441406 -0.855469 C 1.605469 -0.691406 1.8125 -0.609375 2.066406 -0.609375 C 2.265625 -0.609375 2.425781 -0.65625 2.558594 -0.75 C 2.683594 -0.84375 2.828125 -1.019531 2.992188 -1.273438 L 3.660156 -0.898438 C 3.558594 -0.722656 3.449219 -0.570312 3.332031 -0.445312 C 3.21875 -0.320312 3.09375 -0.21875 2.960938 -0.136719 C 2.832031 -0.0546875 2.6875 0.00390625 2.535156 0.0429688 C 2.382812 0.0820312 2.21875 0.0976562 2.039062 0.0976562 C 1.527344 0.0976562 1.113281 -0.0664062 0.804688 -0.394531 C 0.492188 -0.726562 0.339844 -1.167969 0.339844 -1.714844 C 0.339844 -2.257812 0.488281 -2.695312 0.789062 -3.03125 C 1.09375 -3.363281 1.496094 -3.53125 1.996094 -3.53125 C 2.5 -3.53125 2.902344 -3.371094 3.195312 -3.046875 C 3.488281 -2.726562 3.632812 -2.285156 3.632812 -1.71875 Z M 2.8125 -2.179688 C 2.703125 -2.601562 2.4375 -2.8125 2.015625 -2.8125 C 1.917969 -2.8125 1.828125 -2.800781 1.742188 -2.769531 C 1.65625 -2.742188 1.582031 -2.699219 1.511719 -2.644531 C 1.441406 -2.589844 1.382812 -2.523438 1.332031 -2.445312 C 1.285156 -2.367188 1.246094 -2.277344 1.21875 -2.179688 Z "/>
</g>
</g>
<image id="source-139" x="0" y="0" width="0" height="0"/>
<mask id="mask-0">
<use xlink:href="#source-139"/>
</mask>
</defs>
<g fill="rgb(90.980392%, 65.882353%, 21.960784%)" fill-opacity="1">
<use xlink:href="#glyph-0-0" x="30" y="27.500977"/>
<use xlink:href="#glyph-0-1" x="36" y="27.500977"/>
<use xlink:href="#glyph-0-2" x="40" y="27.500977"/>
<use xlink:href="#glyph-0-3" x="42" y="27.500977"/>
<use xlink:href="#glyph-0-4" x="46" y="27.500977"/>
<use xlink:href="#glyph-0-5" x="48" y="27.500977"/>
<use xlink:href="#glyph-0-6" x="51" y="27.500977"/>
<use xlink:href="#glyph-0-7" x="55" y="27.500977"/>
<use xlink:href="#glyph-0-4" x="58" y="27.500977"/>
<use xlink:href="#glyph-0-6" x="60" y="27.500977"/>
<use xlink:href="#glyph-0-5" x="64" y="27.500977"/>
<use xlink:href="#glyph-0-8" x="67" y="27.500977"/>
</g>
</svg>
