<?xml version="1.0" encoding="UTF-8"?>
<svg xmlns="http://www.w3.org/2000/svg" xmlns:xlink="http://www.w3.org/1999/xlink" width="1920" height="1080" viewBox="0 0 1920 1080">
<defs>
<g>
<g id="glyph-0-0">
<path d="M 1.472656 -2.867188 C 1.824219 -2.867188 2.097656 -2.773438 2.292969 -2.585938 C 2.488281 -2.398438 2.597656 -2.1875 2.617188 -1.953125 L 2.25 -1.953125 C 2.207031 -2.132812 2.125 -2.273438 2 -2.378906 C 1.875 -2.484375 1.699219 -2.539062 1.476562 -2.539062 C 1.203125 -2.539062 0.980469 -2.441406 0.808594 -2.246094 C 0.640625 -2.054688 0.554688 -1.757812 0.554688 -1.359375 C 0.554688 -1.03125 0.632812 -0.769531 0.785156 -0.566406 C 0.9375 -0.363281 1.164062 -0.261719 1.46875 -0.261719 C 1.746094 -0.261719 1.957031 -0.367188 2.105469 -0.582031 C 2.183594 -0.695312 2.238281 -0.84375 2.277344 -1.027344 L 2.644531 -1.027344 C 2.613281 -0.734375 2.503906 -0.484375 2.320312 -0.285156 C 2.097656 -0.046875 1.796875 0.0703125 1.421875 0.0703125 C 1.097656 0.0703125 0.824219 -0.0273438 0.605469 -0.222656 C 0.316406 -0.480469 0.171875 -0.882812 0.171875 -1.425781 C 0.171875 -1.835938 0.28125 -2.171875 0.496094 -2.4375 C 0.734375 -2.722656 1.058594 -2.867188 1.472656 -2.867188 Z "/>
</g>
<g id="glyph-0-1">
<path d="M 0.480469 -0.691406 C 0.503906 -0.496094 0.59375 -0.363281 0.753906 -0.289062 C 0.832031 -0.25 0.925781 -0.230469 1.03125 -0.230469 C 1.234375 -0.230469 1.386719 -0.296875 1.484375 -0.425781 C 1.582031 -0.554688 1.628906 -0.699219 1.628906 -0.855469 C 1.628906 -1.042969 1.570312 -1.191406 1.457031 -1.296875 C 1.339844 -1.398438 1.199219 -1.449219 1.039062 -1.449219 C 0.921875 -1.449219 0.820312 -1.429688 0.734375 -1.382812 C 0.652344 -1.335938 0.578125 -1.273438 0.519531 -1.191406 L 0.222656 -1.210938 L 0.429688 -2.675781 L 1.84375 -2.675781 L 1.84375 -2.34375 L 0.6875 -2.34375 L 0.570312 -1.585938 C 0.632812 -1.636719 0.695312 -1.671875 0.753906 -1.695312 C 0.855469 -1.738281 0.96875 -1.757812 1.101562 -1.757812 C 1.351562 -1.757812 1.5625 -1.679688 1.738281 -1.515625 C 1.910156 -1.355469 1.996094 -1.152344 1.996094 -0.90625 C 1.996094 -0.648438 1.917969 -0.421875 1.757812 -0.226562 C 1.601562 -0.03125 1.347656 0.0703125 1 0.0703125 C 0.777344 0.0703125 0.582031 0.0078125 0.410156 -0.117188 C 0.242188 -0.242188 0.144531 -0.433594 0.125 -0.691406 Z "/>
</g>
</g>
</defs>
<g fill="rgb(90.980392%, 89.411765%, 85.490196%)" fill-opacity="1">
<use xlink:href="#glyph-0-0" x="30" y="22.995117"/>
<use xlink:href="#glyph-0-1" x="33" y="22.995117"/>
</g>
</svg>
