<?xml version="1.0" encoding="UTF-8"?>
<svg xmlns="http://www.w3.org/2000/svg" xmlns:xlink="http://www.w3.org/1999/xlink" width="1920" height="1080" viewBox="0 0 1920 1080">
<defs>
<g>
<g id="glyph-0-0">
<path d="M 4.179688 -5.53125 L 4.179688 -6.195312 L 1.066406 -6.195312 L 0.480469 -2.925781 L 1.128906 -2.890625 C 1.277344 -3.066406 1.449219 -3.210938 1.640625 -3.320312 C 1.832031 -3.429688 2.054688 -3.484375 2.300781 -3.484375 C 2.515625 -3.484375 2.710938 -3.449219 2.882812 -3.378906 C 3.058594 -3.308594 3.210938 -3.207031 3.332031 -3.082031 C 3.457031 -2.953125 3.554688 -2.800781 3.621094 -2.625 C 3.691406 -2.453125 3.726562 -2.261719 3.726562 -2.054688 C 3.726562 -1.804688 3.6875 -1.585938 3.617188 -1.398438 C 3.546875 -1.210938 3.449219 -1.058594 3.328125 -0.933594 C 3.207031 -0.808594 3.066406 -0.714844 2.902344 -0.652344 C 2.738281 -0.589844 2.570312 -0.558594 2.390625 -0.558594 C 2.203125 -0.558594 2.027344 -0.589844 1.871094 -0.644531 C 1.714844 -0.699219 1.578125 -0.78125 1.460938 -0.882812 C 1.347656 -0.988281 1.253906 -1.109375 1.1875 -1.25 C 1.117188 -1.386719 1.078125 -1.539062 1.066406 -1.699219 L 0.3125 -1.699219 C 0.316406 -1.414062 0.375 -1.160156 0.480469 -0.933594 C 0.585938 -0.707031 0.730469 -0.519531 0.914062 -0.367188 C 1.097656 -0.21875 1.3125 -0.101562 1.550781 -0.0234375 C 1.792969 0.0585938 2.046875 0.0976562 2.320312 0.0976562 C 2.6875 0.0976562 3.007812 0.0390625 3.285156 -0.0742188 C 3.558594 -0.191406 3.789062 -0.347656 3.972656 -0.542969 C 4.15625 -0.738281 4.296875 -0.960938 4.386719 -1.214844 C 4.480469 -1.464844 4.523438 -1.722656 4.523438 -1.992188 C 4.523438 -2.351562 4.472656 -2.667969 4.363281 -2.9375 C 4.257812 -3.207031 4.113281 -3.433594 3.929688 -3.613281 C 3.746094 -3.792969 3.527344 -3.929688 3.28125 -4.019531 C 3.03125 -4.109375 2.769531 -4.152344 2.488281 -4.152344 C 2.277344 -4.152344 2.0625 -4.113281 1.84375 -4.039062 C 1.628906 -3.964844 1.453125 -3.851562 1.316406 -3.699219 L 1.296875 -3.714844 L 1.636719 -5.53125 Z "/>
</g>
<g id="glyph-0-1">
<path d="M 0.710938 -6.347656 L 0.710938 0 L 1.511719 0 L 1.511719 -5.28125 L 1.527344 -5.28125 L 3.511719 0 L 4.230469 0 L 6.214844 -5.28125 L 6.230469 -5.28125 L 6.230469 0 L 7.03125 0 L 7.03125 -6.347656 L 5.875 -6.347656 L 3.867188 -1.011719 L 1.867188 -6.347656 Z "/>
</g>
<g id="glyph-0-2">
<path d="M 2.96875 -2.550781 L 2.96875 -4.5 L 2.363281 -4.5 L 2.363281 -2.550781 L 0.425781 -2.550781 L 0.425781 -1.945312 L 2.363281 -1.945312 L 2.363281 0 L 2.96875 0 L 2.96875 -1.945312 L 4.90625 -1.945312 L 4.90625 -2.550781 Z "/>
</g>
<g id="glyph-0-3">
<rect x="0" y="0" width="0" height="0" mask="url(#mask-0)"/>
</g>
<g id="glyph-0-4">
<path d="M 1.367188 -5.421875 L 1.367188 -6.347656 L 0.613281 -6.347656 L 0.613281 -5.421875 Z M 0.613281 -4.597656 L 0.613281 0 L 1.367188 0 L 1.367188 -4.597656 Z "/>
</g>
<g id="glyph-0-5">
<path d="M 0.570312 -4.597656 L 0.570312 0 L 1.324219 0 L 1.324219 -2.863281 C 1.324219 -2.953125 1.347656 -3.0625 1.390625 -3.195312 C 1.433594 -3.328125 1.507812 -3.457031 1.605469 -3.582031 C 1.703125 -3.707031 1.828125 -3.8125 1.988281 -3.902344 C 2.144531 -3.992188 2.332031 -4.035156 2.550781 -4.035156 C 2.722656 -4.035156 2.863281 -4.011719 2.972656 -3.960938 C 3.082031 -3.910156 3.171875 -3.839844 3.234375 -3.746094 C 3.300781 -3.65625 3.347656 -3.546875 3.375 -3.421875 C 3.402344 -3.296875 3.414062 -3.160156 3.414062 -3.011719 L 3.414062 0 L 4.167969 0 L 4.167969 -2.863281 C 4.167969 -3.21875 4.277344 -3.503906 4.488281 -3.714844 C 4.703125 -3.929688 4.996094 -4.035156 5.371094 -4.035156 C 5.554688 -4.035156 5.703125 -4.007812 5.816406 -3.957031 C 5.933594 -3.902344 6.023438 -3.828125 6.089844 -3.738281 C 6.15625 -3.644531 6.199219 -3.539062 6.222656 -3.414062 C 6.246094 -3.289062 6.257812 -3.15625 6.257812 -3.011719 L 6.257812 0 L 7.015625 0 L 7.015625 -3.371094 C 7.015625 -3.605469 6.976562 -3.808594 6.902344 -3.976562 C 6.828125 -4.148438 6.726562 -4.285156 6.589844 -4.390625 C 6.457031 -4.496094 6.296875 -4.578125 6.113281 -4.628906 C 5.925781 -4.679688 5.714844 -4.703125 5.484375 -4.703125 C 5.183594 -4.703125 4.90625 -4.632812 4.652344 -4.5 C 4.402344 -4.363281 4.199219 -4.167969 4.042969 -3.921875 C 3.949219 -4.207031 3.785156 -4.40625 3.554688 -4.523438 C 3.324219 -4.644531 3.066406 -4.703125 2.78125 -4.703125 C 2.136719 -4.703125 1.640625 -4.441406 1.296875 -3.921875 L 1.28125 -3.921875 L 1.28125 -4.597656 Z "/>
</g>
<g id="glyph-0-6">
<path d="M 4.640625 -0.0195312 C 4.511719 0.0585938 4.328125 0.0976562 4.097656 0.0976562 C 3.902344 0.0976562 3.746094 0.0429688 3.632812 -0.0664062 C 3.515625 -0.175781 3.457031 -0.355469 3.457031 -0.605469 C 3.25 -0.355469 3.007812 -0.175781 2.734375 -0.0664062 C 2.457031 0.0429688 2.160156 0.0976562 1.839844 0.0976562 C 1.632812 0.0976562 1.4375 0.0742188 1.25 0.0273438 C 1.0625 -0.0195312 0.902344 -0.09375 0.765625 -0.195312 C 0.628906 -0.296875 0.519531 -0.429688 0.441406 -0.589844 C 0.359375 -0.753906 0.320312 -0.953125 0.320312 -1.183594 C 0.320312 -1.445312 0.363281 -1.65625 0.453125 -1.824219 C 0.542969 -1.988281 0.660156 -2.125 0.804688 -2.226562 C 0.949219 -2.332031 1.117188 -2.410156 1.300781 -2.460938 C 1.488281 -2.515625 1.679688 -2.558594 1.875 -2.597656 C 2.082031 -2.636719 2.28125 -2.667969 2.46875 -2.6875 C 2.652344 -2.710938 2.816406 -2.738281 2.960938 -2.777344 C 3.101562 -2.816406 3.214844 -2.871094 3.296875 -2.945312 C 3.378906 -3.019531 3.421875 -3.128906 3.421875 -3.269531 C 3.421875 -3.4375 3.390625 -3.570312 3.328125 -3.671875 C 3.265625 -3.773438 3.1875 -3.847656 3.089844 -3.902344 C 2.992188 -3.957031 2.882812 -3.992188 2.761719 -4.007812 C 2.640625 -4.027344 2.519531 -4.035156 2.398438 -4.035156 C 2.078125 -4.035156 1.8125 -3.976562 1.601562 -3.855469 C 1.386719 -3.734375 1.269531 -3.503906 1.253906 -3.164062 L 0.496094 -3.164062 C 0.507812 -3.449219 0.570312 -3.6875 0.675781 -3.886719 C 0.78125 -4.082031 0.925781 -4.238281 1.101562 -4.359375 C 1.28125 -4.480469 1.484375 -4.570312 1.710938 -4.621094 C 1.9375 -4.675781 2.183594 -4.703125 2.445312 -4.703125 C 2.652344 -4.703125 2.859375 -4.6875 3.0625 -4.65625 C 3.265625 -4.628906 3.453125 -4.566406 3.617188 -4.476562 C 3.785156 -4.382812 3.917969 -4.253906 4.019531 -4.089844 C 4.121094 -3.921875 4.167969 -3.707031 4.167969 -3.441406 L 4.167969 -1.074219 C 4.167969 -0.898438 4.179688 -0.765625 4.199219 -0.683594 C 4.222656 -0.601562 4.289062 -0.558594 4.410156 -0.558594 C 4.476562 -0.558594 4.550781 -0.574219 4.640625 -0.605469 Z M 3.414062 -2.375 C 3.320312 -2.304688 3.195312 -2.25 3.039062 -2.21875 C 2.886719 -2.1875 2.726562 -2.160156 2.554688 -2.136719 C 2.386719 -2.117188 2.214844 -2.09375 2.042969 -2.066406 C 1.871094 -2.039062 1.71875 -1.996094 1.582031 -1.9375 C 1.445312 -1.878906 1.335938 -1.792969 1.25 -1.683594 C 1.164062 -1.574219 1.121094 -1.425781 1.121094 -1.234375 C 1.121094 -1.109375 1.144531 -1.007812 1.195312 -0.921875 C 1.246094 -0.835938 1.3125 -0.765625 1.390625 -0.710938 C 1.472656 -0.65625 1.566406 -0.621094 1.671875 -0.59375 C 1.777344 -0.570312 1.890625 -0.558594 2.007812 -0.558594 C 2.257812 -0.558594 2.472656 -0.59375 2.648438 -0.664062 C 2.828125 -0.730469 2.972656 -0.816406 3.085938 -0.921875 C 3.199219 -1.023438 3.28125 -1.136719 3.332031 -1.257812 C 3.386719 -1.378906 3.414062 -1.492188 3.414062 -1.601562 Z "/>
</g>
<g id="glyph-0-7">
<path d="M 4.535156 -0.390625 L 4.535156 -4.597656 L 3.824219 -4.597656 L 3.824219 -3.9375 L 3.8125 -3.9375 C 3.675781 -4.191406 3.488281 -4.382812 3.246094 -4.511719 C 3.003906 -4.640625 2.734375 -4.703125 2.445312 -4.703125 C 2.046875 -4.703125 1.710938 -4.628906 1.441406 -4.476562 C 1.167969 -4.324219 0.949219 -4.132812 0.78125 -3.898438 C 0.617188 -3.664062 0.496094 -3.402344 0.425781 -3.117188 C 0.355469 -2.828125 0.320312 -2.546875 0.320312 -2.277344 C 0.320312 -1.960938 0.363281 -1.664062 0.449219 -1.382812 C 0.535156 -1.101562 0.664062 -0.855469 0.835938 -0.644531 C 1.007812 -0.433594 1.222656 -0.265625 1.476562 -0.140625 C 1.730469 -0.015625 2.03125 0.0429688 2.375 0.0429688 C 2.671875 0.0429688 2.949219 -0.0234375 3.214844 -0.15625 C 3.476562 -0.289062 3.675781 -0.496094 3.804688 -0.78125 L 3.824219 -0.78125 L 3.824219 -0.480469 C 3.824219 -0.226562 3.796875 0.0078125 3.746094 0.222656 C 3.695312 0.4375 3.613281 0.617188 3.503906 0.769531 C 3.390625 0.921875 3.246094 1.039062 3.074219 1.125 C 2.902344 1.210938 2.695312 1.253906 2.445312 1.253906 C 2.320312 1.253906 2.191406 1.238281 2.054688 1.214844 C 1.917969 1.1875 1.792969 1.144531 1.675781 1.085938 C 1.558594 1.027344 1.460938 0.949219 1.382812 0.851562 C 1.300781 0.757812 1.257812 0.644531 1.253906 0.507812 L 0.496094 0.507812 C 0.507812 0.757812 0.574219 0.964844 0.695312 1.136719 C 0.8125 1.308594 0.960938 1.449219 1.140625 1.554688 C 1.324219 1.660156 1.523438 1.738281 1.746094 1.785156 C 1.96875 1.832031 2.1875 1.859375 2.398438 1.859375 C 3.132812 1.859375 3.675781 1.671875 4.019531 1.296875 C 4.363281 0.925781 4.535156 0.363281 4.535156 -0.390625 Z M 2.417969 -0.613281 C 2.167969 -0.613281 1.960938 -0.664062 1.796875 -0.769531 C 1.628906 -0.871094 1.496094 -1.007812 1.394531 -1.179688 C 1.292969 -1.347656 1.222656 -1.535156 1.183594 -1.742188 C 1.140625 -1.949219 1.121094 -2.15625 1.121094 -2.363281 C 1.121094 -2.582031 1.144531 -2.792969 1.195312 -2.996094 C 1.246094 -3.199219 1.324219 -3.375 1.4375 -3.527344 C 1.546875 -3.683594 1.6875 -3.804688 1.859375 -3.898438 C 2.03125 -3.988281 2.238281 -4.035156 2.480469 -4.035156 C 2.71875 -4.035156 2.917969 -3.988281 3.085938 -3.894531 C 3.25 -3.800781 3.386719 -3.671875 3.488281 -3.515625 C 3.59375 -3.359375 3.667969 -3.183594 3.714844 -2.988281 C 3.761719 -2.792969 3.785156 -2.59375 3.785156 -2.390625 C 3.785156 -2.175781 3.761719 -1.964844 3.710938 -1.75 C 3.660156 -1.539062 3.582031 -1.347656 3.476562 -1.179688 C 3.371094 -1.007812 3.226562 -0.871094 3.054688 -0.769531 C 2.878906 -0.664062 2.667969 -0.613281 2.417969 -0.613281 Z "/>
</g>
<g id="glyph-0-8">
<path d="M 3.761719 -2.738281 L 1.121094 -2.738281 C 1.132812 -2.914062 1.171875 -3.082031 1.234375 -3.242188 C 1.300781 -3.398438 1.390625 -3.535156 1.503906 -3.652344 C 1.617188 -3.773438 1.75 -3.867188 1.90625 -3.933594 C 2.0625 -4 2.238281 -4.035156 2.4375 -4.035156 C 2.625 -4.035156 2.796875 -4 2.957031 -3.933594 C 3.113281 -3.867188 3.25 -3.773438 3.363281 -3.65625 C 3.480469 -3.542969 3.570312 -3.40625 3.640625 -3.246094 C 3.707031 -3.085938 3.75 -2.914062 3.761719 -2.738281 Z M 4.488281 -1.457031 L 3.742188 -1.457031 C 3.675781 -1.15625 3.542969 -0.929688 3.339844 -0.78125 C 3.132812 -0.632812 2.871094 -0.558594 2.550781 -0.558594 C 2.300781 -0.558594 2.085938 -0.601562 1.902344 -0.683594 C 1.71875 -0.765625 1.566406 -0.878906 1.449219 -1.019531 C 1.332031 -1.15625 1.246094 -1.316406 1.191406 -1.496094 C 1.136719 -1.679688 1.113281 -1.871094 1.121094 -2.070312 L 4.558594 -2.070312 C 4.570312 -2.347656 4.546875 -2.644531 4.484375 -2.953125 C 4.421875 -3.261719 4.308594 -3.542969 4.148438 -3.804688 C 3.984375 -4.066406 3.769531 -4.28125 3.5 -4.449219 C 3.230469 -4.617188 2.890625 -4.703125 2.480469 -4.703125 C 2.167969 -4.703125 1.878906 -4.644531 1.613281 -4.523438 C 1.351562 -4.40625 1.121094 -4.242188 0.929688 -4.027344 C 0.738281 -3.8125 0.585938 -3.5625 0.480469 -3.269531 C 0.375 -2.980469 0.320312 -2.660156 0.320312 -2.3125 C 0.332031 -1.960938 0.382812 -1.636719 0.476562 -1.34375 C 0.566406 -1.046875 0.707031 -0.792969 0.890625 -0.578125 C 1.074219 -0.363281 1.300781 -0.199219 1.570312 -0.078125 C 1.839844 0.0390625 2.15625 0.0976562 2.523438 0.0976562 C 3.046875 0.0976562 3.480469 -0.03125 3.824219 -0.292969 C 4.167969 -0.554688 4.386719 -0.941406 4.488281 -1.457031 Z "/>
</g>
<g id="glyph-0-9">
<path d="M 1.03125 -1.449219 L 0.277344 -1.449219 C 0.289062 -1.164062 0.347656 -0.921875 0.453125 -0.722656 C 0.558594 -0.523438 0.703125 -0.367188 0.878906 -0.246094 C 1.058594 -0.125 1.261719 -0.0351562 1.492188 0.0195312 C 1.722656 0.0703125 1.96875 0.0976562 2.222656 0.0976562 C 2.453125 0.0976562 2.6875 0.0742188 2.921875 0.03125 C 3.15625 -0.0117188 3.363281 -0.09375 3.550781 -0.203125 C 3.738281 -0.316406 3.890625 -0.464844 4.003906 -0.648438 C 4.121094 -0.832031 4.179688 -1.0625 4.179688 -1.34375 C 4.179688 -1.5625 4.136719 -1.746094 4.050781 -1.894531 C 3.964844 -2.042969 3.851562 -2.164062 3.710938 -2.261719 C 3.570312 -2.359375 3.414062 -2.4375 3.230469 -2.496094 C 3.050781 -2.554688 2.867188 -2.609375 2.675781 -2.648438 C 2.496094 -2.691406 2.320312 -2.730469 2.140625 -2.769531 C 1.964844 -2.808594 1.804688 -2.855469 1.664062 -2.910156 C 1.519531 -2.96875 1.402344 -3.039062 1.3125 -3.125 C 1.21875 -3.210938 1.171875 -3.320312 1.171875 -3.449219 C 1.171875 -3.566406 1.203125 -3.664062 1.261719 -3.738281 C 1.320312 -3.8125 1.398438 -3.871094 1.492188 -3.914062 C 1.585938 -3.960938 1.695312 -3.992188 1.808594 -4.007812 C 1.925781 -4.027344 2.039062 -4.035156 2.152344 -4.035156 C 2.277344 -4.035156 2.398438 -4.023438 2.519531 -3.996094 C 2.640625 -3.96875 2.753906 -3.925781 2.855469 -3.867188 C 2.953125 -3.808594 3.039062 -3.730469 3.101562 -3.632812 C 3.167969 -3.535156 3.207031 -3.410156 3.21875 -3.261719 L 3.972656 -3.261719 C 3.957031 -3.539062 3.898438 -3.773438 3.796875 -3.960938 C 3.695312 -4.148438 3.558594 -4.296875 3.390625 -4.40625 C 3.222656 -4.515625 3.027344 -4.589844 2.808594 -4.636719 C 2.589844 -4.679688 2.351562 -4.703125 2.089844 -4.703125 C 1.886719 -4.703125 1.683594 -4.675781 1.480469 -4.628906 C 1.277344 -4.578125 1.09375 -4.5 0.929688 -4.394531 C 0.765625 -4.292969 0.632812 -4.15625 0.527344 -3.992188 C 0.425781 -3.824219 0.375 -3.628906 0.375 -3.394531 C 0.375 -3.097656 0.449219 -2.867188 0.59375 -2.703125 C 0.742188 -2.535156 0.929688 -2.40625 1.152344 -2.316406 C 1.375 -2.222656 1.613281 -2.152344 1.875 -2.101562 C 2.136719 -2.050781 2.378906 -1.996094 2.601562 -1.933594 C 2.824219 -1.871094 3.007812 -1.789062 3.15625 -1.6875 C 3.304688 -1.585938 3.378906 -1.441406 3.378906 -1.246094 C 3.378906 -1.101562 3.34375 -0.984375 3.269531 -0.894531 C 3.199219 -0.800781 3.109375 -0.730469 3 -0.683594 C 2.890625 -0.636719 2.769531 -0.605469 2.640625 -0.585938 C 2.511719 -0.570312 2.386719 -0.558594 2.265625 -0.558594 C 2.113281 -0.558594 1.964844 -0.574219 1.816406 -0.605469 C 1.671875 -0.632812 1.542969 -0.683594 1.425781 -0.75 C 1.3125 -0.820312 1.21875 -0.910156 1.148438 -1.027344 C 1.078125 -1.140625 1.039062 -1.28125 1.03125 -1.449219 Z "/>
</g>
</g>
<image id="source-28" x="0" y="0" width="0" height="0"/>
<mask id="mask-0">
<use xlink:href="#source-28"/>
</mask>
</defs>
<g fill="rgb(90.980392%, 89.411765%, 85.490196%)" fill-opacity="1">
<use xlink:href="#glyph-0-0" x="30" y="28.462891"/>
<use xlink:href="#glyph-0-1" x="35" y="28.462891"/>
<use xlink:href="#glyph-0-2" x="43" y="28.462891"/>
<use xlink:href="#glyph-0-3" x="48" y="28.462891"/>
<use xlink:href="#glyph-0-4" x="50" y="28.462891"/>
<use xlink:href="#glyph-0-5" x="52" y="28.462891"/>
<use xlink:href="#glyph-0-6" x="60" y="28.462891"/>
<use xlink:href="#glyph-0-7" x="65" y="28.462891"/>
<use xlink:href="#glyph-0-8" x="70" y="28.462891"/>
<use xlink:href="#glyph-0-9" x="75" y="28.462891"/>
</g>
</svg>
