<?xml version="1.0" encoding="UTF-8"?>
<svg xmlns="http://www.w3.org/2000/svg" xmlns:xlink="http://www.w3.org/1999/xlink" width="1920" height="1080" viewBox="0 0 1920 1080">
<defs>
<g>
<g id="glyph-0-0">
<path d="M 4.675781 -5.152344 L 4.675781 -4.179688 C 4.203125 -4.578125 3.710938 -4.773438 3.203125 -4.773438 C 2.644531 -4.773438 2.171875 -4.574219 1.789062 -4.171875 C 1.402344 -3.773438 1.210938 -3.285156 1.210938 -2.703125 C 1.210938 -2.132812 1.402344 -1.652344 1.789062 -1.257812 C 2.175781 -0.867188 2.644531 -0.671875 3.207031 -0.671875 C 3.496094 -0.671875 3.742188 -0.71875 3.941406 -0.8125 C 4.054688 -0.859375 4.171875 -0.921875 4.292969 -1 C 4.414062 -1.082031 4.542969 -1.179688 4.675781 -1.289062 L 4.675781 -0.300781 C 4.207031 -0.0351562 3.710938 0.0976562 3.195312 0.0976562 C 2.417969 0.0976562 1.753906 -0.171875 1.203125 -0.714844 C 0.65625 -1.261719 0.382812 -1.925781 0.382812 -2.699219 C 0.382812 -3.390625 0.609375 -4.011719 1.070312 -4.554688 C 1.632812 -5.21875 2.363281 -5.550781 3.257812 -5.550781 C 3.746094 -5.550781 4.21875 -5.417969 4.675781 -5.152344 Z "/>
</g>
<g id="glyph-0-1">
<path d="M 1.292969 -5.957031 L 1.292969 0 L 0.5 0 L 0.5 -5.957031 Z "/>
</g>
<g id="glyph-0-2">
<path d="M 3.03125 -3.433594 L 3.828125 -3.433594 L 3.828125 0 L 3.03125 0 L 3.03125 -0.359375 C 2.707031 -0.0546875 2.355469 0.0976562 1.976562 0.0976562 C 1.503906 0.0976562 1.109375 -0.0742188 0.800781 -0.417969 C 0.492188 -0.765625 0.339844 -1.203125 0.339844 -1.726562 C 0.339844 -2.242188 0.492188 -2.671875 0.800781 -3.015625 C 1.109375 -3.359375 1.492188 -3.53125 1.957031 -3.53125 C 2.355469 -3.53125 2.714844 -3.367188 3.03125 -3.035156 Z M 1.148438 -1.726562 C 1.148438 -1.398438 1.238281 -1.132812 1.414062 -0.925781 C 1.59375 -0.714844 1.824219 -0.609375 2.097656 -0.609375 C 2.390625 -0.609375 2.628906 -0.710938 2.8125 -0.914062 C 2.992188 -1.121094 3.082031 -1.386719 3.082031 -1.710938 C 3.082031 -2.03125 2.992188 -2.296875 2.8125 -2.507812 C 2.628906 -2.710938 2.394531 -2.8125 2.105469 -2.8125 C 1.832031 -2.8125 1.605469 -2.710938 1.421875 -2.503906 C 1.242188 -2.292969 1.148438 -2.035156 1.148438 -1.726562 Z "/>
</g>
<g id="glyph-0-3">
<path d="M 2.496094 -2.847656 L 1.839844 -2.5 C 1.738281 -2.710938 1.609375 -2.816406 1.457031 -2.816406 C 1.382812 -2.816406 1.320312 -2.792969 1.269531 -2.746094 C 1.21875 -2.699219 1.191406 -2.636719 1.191406 -2.558594 C 1.191406 -2.429688 1.34375 -2.296875 1.652344 -2.167969 C 2.070312 -1.988281 2.355469 -1.820312 2.5 -1.667969 C 2.644531 -1.515625 2.71875 -1.308594 2.71875 -1.050781 C 2.71875 -0.71875 2.597656 -0.441406 2.351562 -0.21875 C 2.113281 -0.0078125 1.828125 0.0976562 1.492188 0.0976562 C 0.914062 0.0976562 0.507812 -0.183594 0.269531 -0.742188 L 0.945312 -1.058594 C 1.039062 -0.894531 1.109375 -0.789062 1.160156 -0.742188 C 1.257812 -0.652344 1.371094 -0.609375 1.507812 -0.609375 C 1.773438 -0.609375 1.90625 -0.730469 1.90625 -0.976562 C 1.90625 -1.117188 1.804688 -1.25 1.597656 -1.371094 C 1.519531 -1.410156 1.4375 -1.449219 1.359375 -1.488281 C 1.277344 -1.527344 1.195312 -1.566406 1.113281 -1.605469 C 0.882812 -1.71875 0.722656 -1.832031 0.628906 -1.941406 C 0.507812 -2.085938 0.449219 -2.269531 0.449219 -2.496094 C 0.449219 -2.796875 0.550781 -3.042969 0.753906 -3.238281 C 0.964844 -3.433594 1.21875 -3.53125 1.515625 -3.53125 C 1.957031 -3.53125 2.28125 -3.304688 2.496094 -2.847656 Z "/>
</g>
<g id="glyph-0-4">
<path d="M 1.292969 -3.433594 L 1.292969 0 L 0.5 0 L 0.5 -3.433594 Z M 0.382812 -4.863281 C 0.382812 -5.003906 0.429688 -5.121094 0.53125 -5.222656 C 0.632812 -5.324219 0.753906 -5.375 0.894531 -5.375 C 1.039062 -5.375 1.160156 -5.324219 1.261719 -5.222656 C 1.363281 -5.125 1.414062 -5.003906 1.414062 -4.859375 C 1.414062 -4.714844 1.363281 -4.59375 1.261719 -4.492188 C 1.164062 -4.390625 1.042969 -4.339844 0.898438 -4.339844 C 0.753906 -4.339844 0.632812 -4.390625 0.53125 -4.492188 C 0.429688 -4.59375 0.382812 -4.71875 0.382812 -4.863281 Z "/>
</g>
<g id="glyph-0-5">
<path d="M 3.328125 -4.339844 L 2.535156 -4.339844 L 2.535156 -4.664062 C 2.535156 -4.835938 2.480469 -4.988281 2.367188 -5.121094 C 2.246094 -5.253906 2.097656 -5.320312 1.925781 -5.320312 C 1.753906 -5.320312 1.609375 -5.257812 1.492188 -5.125 C 1.375 -4.996094 1.320312 -4.839844 1.320312 -4.664062 L 1.320312 -3.433594 L 2.230469 -3.433594 L 2.230469 -2.695312 L 1.320312 -2.695312 L 1.320312 0 L 0.527344 0 L 0.527344 -2.695312 L 0.242188 -2.695312 L 0.242188 -3.433594 L 0.527344 -3.433594 L 0.527344 -4.664062 C 0.527344 -5.046875 0.660156 -5.378906 0.933594 -5.648438 C 1.210938 -5.925781 1.542969 -6.0625 1.929688 -6.0625 C 2.316406 -6.0625 2.644531 -5.925781 2.917969 -5.648438 C 3.191406 -5.375 3.328125 -5.046875 3.328125 -4.664062 Z M 3.328125 0 L 2.535156 0 L 2.535156 -3.433594 L 3.328125 -3.433594 Z "/>
</g>
<g id="glyph-0-6">
<path d="M 3.175781 -3.285156 L 3.175781 -2.230469 C 2.992188 -2.453125 2.832031 -2.605469 2.6875 -2.6875 C 2.546875 -2.773438 2.378906 -2.8125 2.191406 -2.8125 C 1.890625 -2.8125 1.644531 -2.710938 1.445312 -2.5 C 1.25 -2.292969 1.148438 -2.027344 1.148438 -1.714844 C 1.148438 -1.390625 1.246094 -1.128906 1.433594 -0.921875 C 1.628906 -0.714844 1.875 -0.609375 2.171875 -0.609375 C 2.363281 -0.609375 2.53125 -0.652344 2.675781 -0.734375 C 2.816406 -0.8125 2.984375 -0.96875 3.175781 -1.199219 L 3.175781 -0.152344 C 2.851562 0.015625 2.53125 0.0976562 2.207031 0.0976562 C 1.675781 0.0976562 1.230469 -0.0742188 0.875 -0.417969 C 0.515625 -0.761719 0.339844 -1.191406 0.339844 -1.703125 C 0.339844 -2.214844 0.519531 -2.648438 0.882812 -3 C 1.242188 -3.351562 1.6875 -3.53125 2.214844 -3.53125 C 2.554688 -3.53125 2.875 -3.449219 3.175781 -3.285156 Z "/>
</g>
<g id="glyph-0-7">
<path d="M 1.320312 -2.695312 L 1.320312 0 L 0.527344 0 L 0.527344 -2.695312 L 0.1875 -2.695312 L 0.1875 -3.433594 L 0.527344 -3.433594 L 0.527344 -4.695312 L 1.320312 -4.695312 L 1.320312 -3.433594 L 1.9375 -3.433594 L 1.9375 -2.695312 Z "/>
</g>
<g id="glyph-0-8">
<path d="M 0.339844 -1.742188 C 0.339844 -2.238281 0.515625 -2.660156 0.871094 -3.007812 C 1.226562 -3.355469 1.660156 -3.53125 2.167969 -3.53125 C 2.679688 -3.53125 3.117188 -3.355469 3.472656 -3.003906 C 3.824219 -2.652344 4.003906 -2.222656 4.003906 -1.714844 C 4.003906 -1.199219 3.824219 -0.769531 3.46875 -0.417969 C 3.113281 -0.0742188 2.675781 0.0976562 2.15625 0.0976562 C 1.640625 0.0976562 1.207031 -0.078125 0.859375 -0.429688 C 0.511719 -0.777344 0.339844 -1.214844 0.339844 -1.742188 Z M 1.148438 -1.726562 C 1.148438 -1.382812 1.242188 -1.113281 1.425781 -0.914062 C 1.613281 -0.710938 1.859375 -0.609375 2.167969 -0.609375 C 2.480469 -0.609375 2.726562 -0.710938 2.914062 -0.910156 C 3.097656 -1.109375 3.191406 -1.375 3.191406 -1.710938 C 3.191406 -2.042969 3.097656 -2.3125 2.914062 -2.511719 C 2.726562 -2.714844 2.476562 -2.8125 2.167969 -2.8125 C 1.867188 -2.8125 1.621094 -2.714844 1.433594 -2.511719 C 1.246094 -2.308594 1.148438 -2.046875 1.148438 -1.726562 Z "/>
</g>
<g id="glyph-0-9">
<path d="M 0.5 -3.433594 L 1.296875 -3.433594 L 1.296875 -3.117188 C 1.574219 -3.390625 1.886719 -3.53125 2.234375 -3.53125 C 2.636719 -3.53125 2.945312 -3.40625 3.171875 -3.152344 C 3.363281 -2.9375 3.460938 -2.589844 3.460938 -2.105469 L 3.460938 0 L 2.664062 0 L 2.664062 -1.917969 C 2.664062 -2.257812 2.617188 -2.492188 2.523438 -2.621094 C 2.429688 -2.753906 2.261719 -2.816406 2.019531 -2.816406 C 1.757812 -2.816406 1.570312 -2.730469 1.460938 -2.558594 C 1.351562 -2.386719 1.296875 -2.085938 1.296875 -1.65625 L 1.296875 0 L 0.5 0 Z "/>
</g>
</g>
</defs>
<g fill="rgb(90.980392%, 89.411765%, 85.490196%)" fill-opacity="1">
<use xlink:href="#glyph-0-0" x="30" y="27.500977"/>
<use xlink:href="#glyph-0-1" x="35" y="27.500977"/>
<use xlink:href="#glyph-0-2" x="37" y="27.500977"/>
<use xlink:href="#glyph-0-3" x="41" y="27.500977"/>
<use xlink:href="#glyph-0-3" x="44" y="27.500977"/>
<use xlink:href="#glyph-0-4" x="47" y="27.500977"/>
<use xlink:href="#glyph-0-5" x="49" y="27.500977"/>
<use xlink:href="#glyph-0-6" x="53" y="27.500977"/>
<use xlink:href="#glyph-0-2" x="56" y="27.500977"/>
<use xlink:href="#glyph-0-7" x="60" y="27.500977"/>
<use xlink:href="#glyph-0-4" x="62" y="27.500977"/>
<use xlink:href="#glyph-0-8" x="64" y="27.500977"/>
<use xlink:href="#glyph-0-9" x="68" y="27.500977"/>
</g>
</svg>
