<?xml version="1.0" encoding="UTF-8"?>
<svg xmlns="http://www.w3.org/2000/svg" xmlns:xlink="http://www.w3.org/1999/xlink" width="1920" height="1080" viewBox="0 0 1920 1080">
<defs>
<g>
<g id="glyph-0-0">
<path d="M 5.667969 -12.75 L 14.703125 -12.75 L 14.703125 -20.941406 L 17.863281 -20.941406 L 17.863281 0 L 14.703125 0 L 14.703125 -9.777344 L 5.667969 -9.777344 L 5.667969 0 L 2.507812 0 L 2.507812 -20.941406 L 5.667969 -20.941406 Z "/>
</g>
<g id="glyph-0-1">
<path d="M 4.976562 -13.210938 L 4.976562 0 L 1.925781 0 L 1.925781 -13.210938 Z M 1.464844 -18.703125 C 1.464844 -19.238281 1.660156 -19.699219 2.046875 -20.085938 C 2.4375 -20.476562 2.902344 -20.671875 3.445312 -20.671875 C 3.996094 -20.671875 4.46875 -20.476562 4.855469 -20.085938 C 5.246094 -19.707031 5.4375 -19.242188 5.4375 -18.691406 C 5.4375 -18.140625 5.246094 -17.667969 4.855469 -17.28125 C 4.476562 -16.890625 4.011719 -16.695312 3.457031 -16.695312 C 2.90625 -16.695312 2.4375 -16.890625 2.046875 -17.28125 C 1.660156 -17.667969 1.464844 -18.144531 1.464844 -18.703125 Z "/>
</g>
<g id="glyph-0-2">
<path d="M 13.957031 -5.886719 L 4.488281 -5.886719 C 4.570312 -4.800781 4.921875 -3.9375 5.546875 -3.296875 C 6.171875 -2.664062 6.972656 -2.347656 7.949219 -2.347656 C 8.707031 -2.347656 9.335938 -2.527344 9.832031 -2.890625 C 10.320312 -3.25 10.878906 -3.917969 11.5 -4.894531 L 14.078125 -3.457031 C 13.679688 -2.78125 13.261719 -2.199219 12.816406 -1.714844 C 12.375 -1.230469 11.898438 -0.835938 11.394531 -0.523438 C 10.886719 -0.210938 10.339844 0.0195312 9.75 0.164062 C 9.164062 0.308594 8.527344 0.378906 7.839844 0.378906 C 5.867188 0.378906 4.285156 -0.253906 3.09375 -1.519531 C 1.898438 -2.792969 1.300781 -4.484375 1.300781 -6.589844 C 1.300781 -8.679688 1.878906 -10.371094 3.039062 -11.664062 C 4.203125 -12.9375 5.75 -13.578125 7.675781 -13.578125 C 9.621094 -13.578125 11.15625 -12.957031 12.289062 -11.71875 C 13.410156 -10.488281 13.96875 -8.785156 13.96875 -6.605469 Z M 10.824219 -8.382812 C 10.398438 -10.011719 9.371094 -10.824219 7.746094 -10.824219 C 7.375 -10.824219 7.027344 -10.765625 6.699219 -10.652344 C 6.375 -10.539062 6.078125 -10.378906 5.8125 -10.164062 C 5.546875 -9.953125 5.316406 -9.699219 5.125 -9.398438 C 4.9375 -9.101562 4.792969 -8.761719 4.691406 -8.382812 Z "/>
</g>
<g id="glyph-0-3">
<path d="M 1.925781 -13.210938 L 4.976562 -13.210938 L 4.976562 -12.03125 C 5.539062 -12.617188 6.035156 -13.019531 6.46875 -13.238281 C 6.914062 -13.464844 7.4375 -13.578125 8.042969 -13.578125 C 8.847656 -13.578125 9.6875 -13.316406 10.566406 -12.789062 L 9.167969 -9.996094 C 8.589844 -10.410156 8.023438 -10.621094 7.472656 -10.621094 C 5.808594 -10.621094 4.976562 -9.363281 4.976562 -6.847656 L 4.976562 0 L 1.925781 0 Z "/>
</g>
<g id="glyph-0-4">
<path d="M 5.667969 -20.941406 L 5.667969 -2.96875 L 11.828125 -2.96875 L 11.828125 0 L 2.507812 0 L 2.507812 -20.941406 Z "/>
</g>
<g id="glyph-0-5">
<path d="M 1.300781 -6.699219 C 1.300781 -8.609375 1.984375 -10.230469 3.351562 -11.570312 C 4.714844 -12.90625 6.378906 -13.578125 8.339844 -13.578125 C 10.3125 -13.578125 11.984375 -12.902344 13.359375 -11.554688 C 14.714844 -10.207031 15.394531 -8.554688 15.394531 -6.589844 C 15.394531 -4.609375 14.710938 -2.953125 13.347656 -1.613281 C 11.972656 -0.285156 10.285156 0.378906 8.285156 0.378906 C 6.304688 0.378906 4.648438 -0.296875 3.308594 -1.65625 C 1.972656 -2.992188 1.300781 -4.675781 1.300781 -6.699219 Z M 4.421875 -6.644531 C 4.421875 -5.324219 4.773438 -4.28125 5.480469 -3.511719 C 6.203125 -2.734375 7.15625 -2.347656 8.339844 -2.347656 C 9.535156 -2.347656 10.488281 -2.730469 11.203125 -3.5 C 11.917969 -4.269531 12.273438 -5.292969 12.273438 -6.578125 C 12.273438 -7.863281 11.917969 -8.886719 11.203125 -9.65625 C 10.480469 -10.433594 9.527344 -10.824219 8.339844 -10.824219 C 7.175781 -10.824219 6.230469 -10.433594 5.507812 -9.65625 C 4.785156 -8.878906 4.421875 -7.875 4.421875 -6.644531 Z "/>
</g>
<g id="glyph-0-6">
<path d="M 12.207031 -12.640625 L 12.207031 -8.585938 C 11.511719 -9.4375 10.886719 -10.019531 10.335938 -10.335938 C 9.792969 -10.660156 9.15625 -10.824219 8.421875 -10.824219 C 7.273438 -10.824219 6.320312 -10.421875 5.5625 -9.617188 C 4.800781 -8.8125 4.421875 -7.804688 4.421875 -6.589844 C 4.421875 -5.351562 4.789062 -4.335938 5.519531 -3.539062 C 6.261719 -2.742188 7.207031 -2.347656 8.355469 -2.347656 C 9.085938 -2.347656 9.734375 -2.503906 10.292969 -2.820312 C 10.835938 -3.128906 11.472656 -3.726562 12.207031 -4.613281 L 12.207031 -0.582031 C 10.96875 0.0585938 9.730469 0.378906 8.492188 0.378906 C 6.449219 0.378906 4.738281 -0.28125 3.363281 -1.601562 C 1.988281 -2.929688 1.300781 -4.578125 1.300781 -6.550781 C 1.300781 -8.523438 2 -10.1875 3.390625 -11.542969 C 4.785156 -12.898438 6.492188 -13.578125 8.519531 -13.578125 C 9.820312 -13.578125 11.050781 -13.265625 12.207031 -12.640625 Z "/>
</g>
</g>
</defs>
<g fill="rgb(90.980392%, 89.411765%, 85.490196%)" fill-opacity="1">
<use xlink:href="#glyph-0-0" x="30" y="48.848633"/>
<use xlink:href="#glyph-0-1" x="50" y="48.848633"/>
<use xlink:href="#glyph-0-2" x="57" y="48.848633"/>
<use xlink:href="#glyph-0-3" x="72" y="48.848633"/>
<use xlink:href="#glyph-0-4" x="82" y="48.848633"/>
<use xlink:href="#glyph-0-5" x="94" y="48.848633"/>
<use xlink:href="#glyph-0-6" x="111" y="48.848633"/>
</g>
</svg>
