<?xml version="1.0" encoding="UTF-8"?>
<svg xmlns="http://www.w3.org/2000/svg" xmlns:xlink="http://www.w3.org/1999/xlink" width="1920" height="1080" viewBox="0 0 1920 1080">
<defs>
<g>
<g id="glyph-0-0">
<path d="M 3.730469 -4.632812 L 3.066406 -4.238281 C 2.941406 -4.457031 2.820312 -4.597656 2.707031 -4.664062 C 2.589844 -4.738281 2.4375 -4.773438 2.253906 -4.773438 C 2.027344 -4.773438 1.835938 -4.710938 1.6875 -4.582031 C 1.535156 -4.453125 1.460938 -4.292969 1.460938 -4.101562 C 1.460938 -3.835938 1.65625 -3.621094 2.050781 -3.460938 L 2.59375 -3.238281 C 3.035156 -3.058594 3.359375 -2.839844 3.566406 -2.582031 C 3.769531 -2.324219 3.871094 -2.011719 3.871094 -1.636719 C 3.871094 -1.136719 3.707031 -0.722656 3.371094 -0.394531 C 3.035156 -0.0664062 2.617188 0.0976562 2.121094 0.0976562 C 1.648438 0.0976562 1.257812 -0.0429688 0.949219 -0.320312 C 0.644531 -0.601562 0.457031 -0.996094 0.382812 -1.503906 L 1.214844 -1.6875 C 1.25 -1.367188 1.316406 -1.144531 1.410156 -1.023438 C 1.578125 -0.789062 1.828125 -0.671875 2.152344 -0.671875 C 2.40625 -0.671875 2.621094 -0.757812 2.789062 -0.925781 C 2.957031 -1.097656 3.042969 -1.316406 3.042969 -1.578125 C 3.042969 -1.683594 3.027344 -1.78125 3 -1.871094 C 2.96875 -1.960938 2.925781 -2.039062 2.863281 -2.113281 C 2.800781 -2.1875 2.71875 -2.257812 2.621094 -2.324219 C 2.523438 -2.386719 2.402344 -2.449219 2.269531 -2.507812 L 1.742188 -2.726562 C 0.996094 -3.042969 0.625 -3.503906 0.625 -4.109375 C 0.625 -4.519531 0.78125 -4.859375 1.09375 -5.136719 C 1.40625 -5.414062 1.796875 -5.550781 2.261719 -5.550781 C 2.890625 -5.550781 3.378906 -5.246094 3.730469 -4.632812 Z "/>
</g>
<g id="glyph-0-1">
<path d="M 1.292969 -5.957031 L 1.292969 0 L 0.5 0 L 0.5 -5.957031 Z "/>
</g>
<g id="glyph-0-2">
<path d="M 0.339844 -1.742188 C 0.339844 -2.238281 0.515625 -2.660156 0.871094 -3.007812 C 1.226562 -3.355469 1.660156 -3.53125 2.167969 -3.53125 C 2.679688 -3.53125 3.117188 -3.355469 3.472656 -3.003906 C 3.824219 -2.652344 4.003906 -2.222656 4.003906 -1.714844 C 4.003906 -1.199219 3.824219 -0.769531 3.46875 -0.417969 C 3.113281 -0.0742188 2.675781 0.0976562 2.15625 0.0976562 C 1.640625 0.0976562 1.207031 -0.078125 0.859375 -0.429688 C 0.511719 -0.777344 0.339844 -1.214844 0.339844 -1.742188 Z M 1.148438 -1.726562 C 1.148438 -1.382812 1.242188 -1.113281 1.425781 -0.914062 C 1.613281 -0.710938 1.859375 -0.609375 2.167969 -0.609375 C 2.480469 -0.609375 2.726562 -0.710938 2.914062 -0.910156 C 3.097656 -1.109375 3.191406 -1.375 3.191406 -1.710938 C 3.191406 -2.042969 3.097656 -2.3125 2.914062 -2.511719 C 2.726562 -2.714844 2.476562 -2.8125 2.167969 -2.8125 C 1.867188 -2.8125 1.621094 -2.714844 1.433594 -2.511719 C 1.246094 -2.308594 1.148438 -2.046875 1.148438 -1.726562 Z "/>
</g>
<g id="glyph-0-3">
<path d="M 0.929688 -3.433594 L 1.832031 -1.472656 L 2.800781 -3.75 L 3.777344 -1.472656 L 4.664062 -3.433594 L 5.554688 -3.433594 L 3.757812 0.257812 L 2.800781 -1.953125 L 1.832031 0.257812 L 0.0390625 -3.433594 Z "/>
</g>
</g>
</defs>
<g fill="rgb(90.980392%, 65.882353%, 21.960784%)" fill-opacity="1">
<use xlink:href="#glyph-0-0" x="30" y="27.500977"/>
<use xlink:href="#glyph-0-1" x="34" y="27.500977"/>
<use xlink:href="#glyph-0-2" x="36" y="27.500977"/>
<use xlink:href="#glyph-0-3" x="40" y="27.500977"/>
</g>
</svg>
