<?xml version="1.0" encoding="UTF-8"?>
<svg xmlns="http://www.w3.org/2000/svg" xmlns:xlink="http://www.w3.org/1999/xlink" width="1920" height="1080" viewBox="0 0 1920 1080">
<defs>
<g>
<g id="glyph-0-0">
<path d="M 2.511719 -1.058594 L 0.808594 -1.058594 C 0.824219 -0.863281 0.886719 -0.707031 1 -0.59375 C 1.109375 -0.480469 1.253906 -0.421875 1.429688 -0.421875 C 1.566406 -0.421875 1.679688 -0.453125 1.769531 -0.519531 C 1.859375 -0.585938 1.957031 -0.707031 2.070312 -0.882812 L 2.535156 -0.621094 C 2.460938 -0.5 2.386719 -0.394531 2.308594 -0.308594 C 2.226562 -0.222656 2.140625 -0.148438 2.050781 -0.09375 C 1.960938 -0.0390625 1.859375 0.00390625 1.753906 0.03125 C 1.648438 0.0546875 1.535156 0.0703125 1.410156 0.0703125 C 1.054688 0.0703125 0.773438 -0.046875 0.554688 -0.273438 C 0.339844 -0.503906 0.234375 -0.808594 0.234375 -1.1875 C 0.234375 -1.5625 0.339844 -1.867188 0.546875 -2.101562 C 0.757812 -2.328125 1.035156 -2.445312 1.382812 -2.445312 C 1.730469 -2.445312 2.007812 -2.332031 2.210938 -2.109375 C 2.414062 -1.886719 2.515625 -1.582031 2.515625 -1.1875 Z M 1.949219 -1.507812 C 1.871094 -1.800781 1.6875 -1.949219 1.394531 -1.949219 C 1.328125 -1.949219 1.265625 -1.9375 1.207031 -1.917969 C 1.148438 -1.898438 1.09375 -1.867188 1.046875 -1.828125 C 1 -1.789062 0.957031 -1.746094 0.921875 -1.691406 C 0.886719 -1.636719 0.863281 -1.578125 0.84375 -1.507812 Z "/>
</g>
<g id="glyph-0-1">
<path d="M 0 0.316406 L 2.828125 0.316406 L 2.828125 0.828125 L 0 0.828125 Z "/>
</g>
<g id="glyph-0-2">
<path d="M 1.019531 -1.53125 L 1.019531 0 L 0.453125 0 L 0.453125 -3.769531 L 1.097656 -3.769531 C 1.414062 -3.769531 1.648438 -3.746094 1.8125 -3.703125 C 1.976562 -3.660156 2.117188 -3.578125 2.242188 -3.453125 C 2.457031 -3.242188 2.566406 -2.976562 2.566406 -2.652344 C 2.566406 -2.308594 2.449219 -2.035156 2.21875 -1.832031 C 1.988281 -1.632812 1.675781 -1.53125 1.285156 -1.53125 Z M 1.019531 -2.058594 L 1.234375 -2.058594 C 1.757812 -2.058594 2.015625 -2.257812 2.015625 -2.660156 C 2.015625 -3.050781 1.746094 -3.246094 1.207031 -3.246094 L 1.019531 -3.246094 Z "/>
</g>
<g id="glyph-0-3">
<path d="M 2.101562 -2.378906 L 2.652344 -2.378906 L 2.652344 0 L 2.101562 0 L 2.101562 -0.25 C 1.875 -0.0390625 1.628906 0.0703125 1.371094 0.0703125 C 1.042969 0.0703125 0.769531 -0.0507812 0.554688 -0.289062 C 0.339844 -0.53125 0.234375 -0.832031 0.234375 -1.195312 C 0.234375 -1.550781 0.339844 -1.851562 0.554688 -2.085938 C 0.765625 -2.324219 1.035156 -2.445312 1.355469 -2.445312 C 1.632812 -2.445312 1.878906 -2.328125 2.101562 -2.101562 Z M 0.796875 -1.195312 C 0.796875 -0.96875 0.855469 -0.78125 0.980469 -0.640625 C 1.105469 -0.496094 1.261719 -0.421875 1.453125 -0.421875 C 1.65625 -0.421875 1.820312 -0.492188 1.945312 -0.632812 C 2.070312 -0.777344 2.132812 -0.960938 2.132812 -1.183594 C 2.132812 -1.40625 2.070312 -1.589844 1.945312 -1.734375 C 1.820312 -1.875 1.65625 -1.949219 1.457031 -1.949219 C 1.269531 -1.949219 1.109375 -1.875 0.984375 -1.734375 C 0.859375 -1.589844 0.796875 -1.410156 0.796875 -1.195312 Z "/>
</g>
<g id="glyph-0-4">
<path d="M 0.347656 -2.378906 L 0.894531 -2.378906 L 0.894531 -2.164062 C 0.996094 -2.269531 1.085938 -2.34375 1.164062 -2.382812 C 1.242188 -2.421875 1.339844 -2.445312 1.449219 -2.445312 C 1.59375 -2.445312 1.742188 -2.398438 1.902344 -2.300781 L 1.648438 -1.800781 C 1.546875 -1.875 1.445312 -1.910156 1.34375 -1.910156 C 1.046875 -1.910156 0.894531 -1.683594 0.894531 -1.234375 L 0.894531 0 L 0.347656 0 Z "/>
</g>
<g id="glyph-0-5">
<path d="M 0.894531 -2.378906 L 0.894531 0 L 0.347656 0 L 0.347656 -2.378906 Z M 0.265625 -3.367188 C 0.265625 -3.460938 0.296875 -3.546875 0.367188 -3.617188 C 0.4375 -3.6875 0.523438 -3.71875 0.621094 -3.71875 C 0.71875 -3.71875 0.804688 -3.6875 0.875 -3.617188 C 0.945312 -3.546875 0.980469 -3.464844 0.980469 -3.363281 C 0.980469 -3.265625 0.945312 -3.179688 0.875 -3.109375 C 0.804688 -3.039062 0.722656 -3.003906 0.621094 -3.003906 C 0.523438 -3.003906 0.4375 -3.039062 0.367188 -3.109375 C 0.296875 -3.179688 0.265625 -3.265625 0.265625 -3.367188 Z "/>
</g>
<g id="glyph-0-6">
<path d="M 1.726562 -1.972656 L 1.273438 -1.730469 C 1.203125 -1.878906 1.113281 -1.949219 1.007812 -1.949219 C 0.957031 -1.949219 0.914062 -1.933594 0.878906 -1.902344 C 0.84375 -1.867188 0.824219 -1.824219 0.824219 -1.773438 C 0.824219 -1.679688 0.929688 -1.589844 1.140625 -1.5 C 1.433594 -1.375 1.628906 -1.261719 1.730469 -1.15625 C 1.832031 -1.050781 1.882812 -0.90625 1.882812 -0.726562 C 1.882812 -0.496094 1.796875 -0.304688 1.628906 -0.152344 C 1.464844 -0.00390625 1.265625 0.0703125 1.03125 0.0703125 C 0.632812 0.0703125 0.351562 -0.125 0.1875 -0.515625 L 0.65625 -0.734375 C 0.71875 -0.617188 0.769531 -0.546875 0.804688 -0.515625 C 0.871094 -0.453125 0.949219 -0.421875 1.042969 -0.421875 C 1.226562 -0.421875 1.320312 -0.507812 1.320312 -0.675781 C 1.320312 -0.773438 1.25 -0.863281 1.105469 -0.949219 C 1.050781 -0.976562 0.996094 -1.003906 0.941406 -1.03125 C 0.886719 -1.054688 0.828125 -1.082031 0.773438 -1.109375 C 0.613281 -1.1875 0.5 -1.265625 0.433594 -1.34375 C 0.351562 -1.445312 0.308594 -1.570312 0.308594 -1.726562 C 0.308594 -1.933594 0.382812 -2.105469 0.523438 -2.242188 C 0.667969 -2.375 0.84375 -2.445312 1.050781 -2.445312 C 1.355469 -2.445312 1.582031 -2.285156 1.726562 -1.972656 Z "/>
</g>
<g id="glyph-0-7">
<rect x="0" y="0" width="0" height="0" mask="url(#mask-0)"/>
</g>
<g id="glyph-0-8">
<path d="M 0.242188 -2.148438 L 0.242188 -2.5625 L 2.84375 -2.5625 L 2.84375 -2.148438 Z M 0.242188 -1.359375 L 0.242188 -1.773438 L 2.84375 -1.773438 L 2.84375 -1.359375 Z "/>
</g>
<g id="glyph-0-9">
<path d="M 1.050781 -3.609375 L 1.050781 0.484375 L 1.523438 0.484375 L 1.523438 1 L 0.492188 1 L 0.492188 -4.125 L 1.523438 -4.125 L 1.523438 -3.609375 Z "/>
</g>
<g id="glyph-0-10">
<path d="M 1.136719 -0.515625 L 2.546875 -0.515625 L 2.546875 0 L 0.046875 0 L 1.585938 -1.867188 L 0.375 -1.867188 L 0.375 -2.378906 L 2.671875 -2.378906 Z "/>
</g>
<g id="glyph-0-11">
<path d="M 0.347656 -2.378906 L 0.894531 -2.378906 L 0.894531 -2.15625 C 1 -2.269531 1.09375 -2.34375 1.167969 -2.382812 C 1.246094 -2.421875 1.347656 -2.445312 1.46875 -2.445312 C 1.734375 -2.445312 1.949219 -2.328125 2.105469 -2.09375 C 2.277344 -2.328125 2.511719 -2.445312 2.804688 -2.445312 C 3.339844 -2.445312 3.609375 -2.117188 3.609375 -1.46875 L 3.609375 0 L 3.054688 0 L 3.054688 -1.320312 C 3.054688 -1.546875 3.027344 -1.710938 2.972656 -1.804688 C 2.917969 -1.898438 2.824219 -1.949219 2.691406 -1.949219 C 2.539062 -1.949219 2.429688 -1.890625 2.363281 -1.777344 C 2.292969 -1.664062 2.257812 -1.480469 2.257812 -1.226562 L 2.257812 0 L 1.707031 0 L 1.707031 -1.3125 C 1.707031 -1.734375 1.585938 -1.949219 1.339844 -1.949219 C 1.1875 -1.949219 1.074219 -1.890625 1.003906 -1.773438 C 0.933594 -1.660156 0.894531 -1.476562 0.894531 -1.226562 L 0.894531 0 L 0.347656 0 Z "/>
</g>
<g id="glyph-0-12">
<path d="M 2.648438 -0.0546875 C 2.648438 0.0546875 2.644531 0.15625 2.636719 0.242188 C 2.628906 0.328125 2.617188 0.402344 2.605469 0.464844 C 2.566406 0.644531 2.488281 0.800781 2.375 0.929688 C 2.160156 1.175781 1.867188 1.296875 1.488281 1.296875 C 1.171875 1.296875 0.910156 1.214844 0.707031 1.042969 C 0.496094 0.867188 0.371094 0.625 0.339844 0.3125 L 0.890625 0.3125 C 0.914062 0.429688 0.945312 0.519531 0.996094 0.582031 C 1.109375 0.730469 1.277344 0.804688 1.492188 0.804688 C 1.894531 0.804688 2.097656 0.558594 2.097656 0.0664062 L 2.097656 -0.265625 C 1.878906 -0.0429688 1.628906 0.0703125 1.34375 0.0703125 C 1.019531 0.0703125 0.753906 -0.046875 0.546875 -0.28125 C 0.339844 -0.519531 0.234375 -0.816406 0.234375 -1.175781 C 0.234375 -1.523438 0.332031 -1.816406 0.523438 -2.058594 C 0.734375 -2.316406 1.007812 -2.445312 1.351562 -2.445312 C 1.648438 -2.445312 1.898438 -2.332031 2.097656 -2.109375 L 2.097656 -2.378906 L 2.648438 -2.378906 Z M 2.117188 -1.183594 C 2.117188 -1.414062 2.058594 -1.601562 1.933594 -1.738281 C 1.808594 -1.878906 1.648438 -1.949219 1.453125 -1.949219 C 1.246094 -1.949219 1.078125 -1.875 0.960938 -1.71875 C 0.851562 -1.582031 0.796875 -1.402344 0.796875 -1.179688 C 0.796875 -0.964844 0.851562 -0.789062 0.960938 -0.648438 C 1.078125 -0.496094 1.242188 -0.421875 1.453125 -0.421875 C 1.664062 -0.421875 1.828125 -0.5 1.949219 -0.652344 C 2.0625 -0.789062 2.117188 -0.96875 2.117188 -1.183594 Z "/>
</g>
<g id="glyph-0-13">
<path d="M 0.6875 -0.707031 L 1.175781 -0.515625 L 0.476562 0.878906 L 0.109375 0.726562 Z "/>
</g>
<g id="glyph-0-14">
<path d="M 0.894531 -4.125 L 0.894531 0 L 0.347656 0 L 0.347656 -4.125 Z "/>
</g>
<g id="glyph-0-15">
<path d="M 0.234375 -1.207031 C 0.234375 -1.550781 0.355469 -1.839844 0.601562 -2.082031 C 0.847656 -2.324219 1.148438 -2.445312 1.5 -2.445312 C 1.855469 -2.445312 2.15625 -2.324219 2.40625 -2.078125 C 2.648438 -1.835938 2.769531 -1.539062 2.769531 -1.1875 C 2.769531 -0.832031 2.648438 -0.53125 2.402344 -0.289062 C 2.15625 -0.0507812 1.851562 0.0703125 1.492188 0.0703125 C 1.136719 0.0703125 0.835938 -0.0546875 0.59375 -0.296875 C 0.355469 -0.539062 0.234375 -0.839844 0.234375 -1.207031 Z M 0.796875 -1.195312 C 0.796875 -0.957031 0.859375 -0.769531 0.984375 -0.632812 C 1.117188 -0.492188 1.289062 -0.421875 1.5 -0.421875 C 1.714844 -0.421875 1.886719 -0.492188 2.015625 -0.628906 C 2.144531 -0.769531 2.210938 -0.953125 2.210938 -1.183594 C 2.210938 -1.414062 2.144531 -1.601562 2.015625 -1.738281 C 1.886719 -1.878906 1.714844 -1.949219 1.5 -1.949219 C 1.289062 -1.949219 1.121094 -1.878906 0.992188 -1.738281 C 0.859375 -1.597656 0.796875 -1.417969 0.796875 -1.195312 Z "/>
</g>
<g id="glyph-0-16">
<path d="M 2.195312 -2.273438 L 2.195312 -1.546875 C 2.070312 -1.699219 1.960938 -1.804688 1.859375 -1.859375 C 1.761719 -1.917969 1.648438 -1.949219 1.515625 -1.949219 C 1.308594 -1.949219 1.136719 -1.875 1 -1.730469 C 0.863281 -1.585938 0.796875 -1.40625 0.796875 -1.1875 C 0.796875 -0.964844 0.863281 -0.78125 0.992188 -0.636719 C 1.125 -0.492188 1.296875 -0.421875 1.503906 -0.421875 C 1.636719 -0.421875 1.753906 -0.449219 1.851562 -0.507812 C 1.949219 -0.5625 2.066406 -0.671875 2.195312 -0.828125 L 2.195312 -0.105469 C 1.972656 0.0117188 1.75 0.0703125 1.527344 0.0703125 C 1.160156 0.0703125 0.851562 -0.0507812 0.605469 -0.289062 C 0.359375 -0.527344 0.234375 -0.824219 0.234375 -1.179688 C 0.234375 -1.535156 0.359375 -1.832031 0.609375 -2.078125 C 0.859375 -2.320312 1.167969 -2.445312 1.53125 -2.445312 C 1.765625 -2.445312 1.988281 -2.386719 2.195312 -2.273438 Z "/>
</g>
<g id="glyph-0-17">
<path d="M 0.347656 -2.378906 L 0.898438 -2.378906 L 0.898438 -2.15625 C 1.089844 -2.347656 1.308594 -2.445312 1.546875 -2.445312 C 1.824219 -2.445312 2.039062 -2.355469 2.195312 -2.183594 C 2.328125 -2.035156 2.394531 -1.792969 2.394531 -1.457031 L 2.394531 0 L 1.84375 0 L 1.84375 -1.328125 C 1.84375 -1.5625 1.8125 -1.722656 1.746094 -1.8125 C 1.683594 -1.90625 1.566406 -1.949219 1.398438 -1.949219 C 1.214844 -1.949219 1.085938 -1.890625 1.011719 -1.769531 C 0.9375 -1.652344 0.898438 -1.445312 0.898438 -1.148438 L 0.898438 0 L 0.347656 0 Z "/>
</g>
<g id="glyph-0-18">
<path d="M 0.738281 0.484375 L 0.738281 -3.609375 L 0.265625 -3.609375 L 0.265625 -4.125 L 1.296875 -4.125 L 1.296875 1 L 0.265625 1 L 0.265625 0.484375 Z "/>
</g>
</g>
<image id="source-336" x="0" y="0" width="0" height="0"/>
<mask id="mask-0">
<use xlink:href="#source-336"/>
</mask>
</defs>
<g fill="rgb(96.078431%, 80%, 47.843137%)" fill-opacity="1">
<use xlink:href="#glyph-0-0" x="30" y="25.193359"/>
<use xlink:href="#glyph-0-1" x="33" y="25.193359"/>
<use xlink:href="#glyph-0-2" x="36" y="25.193359"/>
<use xlink:href="#glyph-0-3" x="39" y="25.193359"/>
<use xlink:href="#glyph-0-4" x="42" y="25.193359"/>
<use xlink:href="#glyph-0-5" x="44" y="25.193359"/>
<use xlink:href="#glyph-0-6" x="45" y="25.193359"/>
<use xlink:href="#glyph-0-7" x="47" y="25.193359"/>
<use xlink:href="#glyph-0-8" x="49" y="25.193359"/>
<use xlink:href="#glyph-0-7" x="52" y="25.193359"/>
<use xlink:href="#glyph-0-9" x="54" y="25.193359"/>
<use xlink:href="#glyph-0-10" x="56" y="25.193359"/>
<use xlink:href="#glyph-0-1" x="59" y="25.193359"/>
<use xlink:href="#glyph-0-5" x="62" y="25.193359"/>
<use xlink:href="#glyph-0-11" x="63" y="25.193359"/>
<use xlink:href="#glyph-0-12" x="67" y="25.193359"/>
<use xlink:href="#glyph-0-1" x="70" y="25.193359"/>
<use xlink:href="#glyph-0-2" x="73" y="25.193359"/>
<use xlink:href="#glyph-0-3" x="76" y="25.193359"/>
<use xlink:href="#glyph-0-4" x="79" y="25.193359"/>
<use xlink:href="#glyph-0-5" x="81" y="25.193359"/>
<use xlink:href="#glyph-0-6" x="82" y="25.193359"/>
<use xlink:href="#glyph-0-13" x="84" y="25.193359"/>
<use xlink:href="#glyph-0-7" x="86" y="25.193359"/>
<use xlink:href="#glyph-0-10" x="88" y="25.193359"/>
<use xlink:href="#glyph-0-1" x="91" y="25.193359"/>
<use xlink:href="#glyph-0-14" x="94" y="25.193359"/>
<use xlink:href="#glyph-0-15" x="95" y="25.193359"/>
<use xlink:href="#glyph-0-16" x="98" y="25.193359"/>
<use xlink:href="#glyph-0-1" x="100" y="25.193359"/>
<use xlink:href="#glyph-0-2" x="103" y="25.193359"/>
<use xlink:href="#glyph-0-3" x="106" y="25.193359"/>
<use xlink:href="#glyph-0-4" x="109" y="25.193359"/>
<use xlink:href="#glyph-0-5" x="111" y="25.193359"/>
<use xlink:href="#glyph-0-6" x="112" y="25.193359"/>
<use xlink:href="#glyph-0-13" x="114" y="25.193359"/>
<use xlink:href="#glyph-0-7" x="116" y="25.193359"/>
<use xlink:href="#glyph-0-10" x="118" y="25.193359"/>
<use xlink:href="#glyph-0-1" x="121" y="25.193359"/>
<use xlink:href="#glyph-0-17" x="124" y="25.193359"/>
<use xlink:href="#glyph-0-3" x="127" y="25.193359"/>
<use xlink:href="#glyph-0-11" x="130" y="25.193359"/>
<use xlink:href="#glyph-0-0" x="134" y="25.193359"/>
<use xlink:href="#glyph-0-1" x="137" y="25.193359"/>
<use xlink:href="#glyph-0-2" x="140" y="25.193359"/>
<use xlink:href="#glyph-0-3" x="143" y="25.193359"/>
<use xlink:href="#glyph-0-4" x="146" y="25.193359"/>
<use xlink:href="#glyph-0-5" x="148" y="25.193359"/>
<use xlink:href="#glyph-0-6" x="149" y="25.193359"/>
<use xlink:href="#glyph-0-18" x="151" y="25.193359"/>
</g>
</svg>
