<?xml version="1.0" encoding="UTF-8"?>
<svg xmlns="http://www.w3.org/2000/svg" xmlns:xlink="http://www.w3.org/1999/xlink" width="1920" height="1080" viewBox="0 0 1920 1080">
<defs>
<g>
<g id="glyph-0-0">
<path d="M 0.566406 -1.273438 L 1.46875 -1.273438 L 1.46875 -2.09375 L 1.785156 -2.09375 L 1.785156 0 L 1.46875 0 L 1.46875 -0.976562 L 0.566406 -0.976562 L 0.566406 0 L 0.25 0 L 0.25 -2.09375 L 0.566406 -2.09375 Z "/>
</g>
<g id="glyph-0-1">
<path d="M 0.496094 -1.320312 L 0.496094 0 L 0.191406 0 L 0.191406 -1.320312 Z M 0.144531 -1.871094 C 0.144531 -1.921875 0.164062 -1.96875 0.203125 -2.007812 C 0.242188 -2.046875 0.289062 -2.066406 0.34375 -2.066406 C 0.398438 -2.066406 0.445312 -2.046875 0.484375 -2.007812 C 0.523438 -1.96875 0.542969 -1.925781 0.542969 -1.867188 C 0.542969 -1.8125 0.523438 -1.765625 0.484375 -1.726562 C 0.445312 -1.6875 0.402344 -1.667969 0.347656 -1.667969 C 0.292969 -1.667969 0.242188 -1.6875 0.203125 -1.726562 C 0.164062 -1.765625 0.144531 -1.8125 0.144531 -1.871094 Z "/>
</g>
<g id="glyph-0-2">
<path d="M 1.394531 -0.589844 L 0.449219 -0.589844 C 0.457031 -0.480469 0.492188 -0.394531 0.554688 -0.328125 C 0.617188 -0.265625 0.695312 -0.234375 0.792969 -0.234375 C 0.871094 -0.234375 0.933594 -0.253906 0.984375 -0.289062 C 1.03125 -0.324219 1.085938 -0.390625 1.148438 -0.488281 L 1.40625 -0.347656 C 1.367188 -0.277344 1.324219 -0.21875 1.28125 -0.171875 C 1.238281 -0.125 1.191406 -0.0820312 1.140625 -0.0507812 C 1.089844 -0.0195312 1.035156 0 0.976562 0.015625 C 0.917969 0.03125 0.851562 0.0390625 0.785156 0.0390625 C 0.585938 0.0390625 0.429688 -0.0234375 0.308594 -0.152344 C 0.191406 -0.28125 0.128906 -0.449219 0.128906 -0.660156 C 0.128906 -0.867188 0.1875 -1.035156 0.304688 -1.167969 C 0.421875 -1.292969 0.574219 -1.359375 0.765625 -1.359375 C 0.960938 -1.359375 1.117188 -1.296875 1.230469 -1.171875 C 1.339844 -1.046875 1.398438 -0.878906 1.398438 -0.660156 Z M 1.082031 -0.839844 C 1.039062 -1 0.9375 -1.082031 0.773438 -1.082031 C 0.738281 -1.082031 0.703125 -1.078125 0.671875 -1.066406 C 0.636719 -1.054688 0.609375 -1.039062 0.582031 -1.015625 C 0.554688 -0.996094 0.53125 -0.96875 0.511719 -0.941406 C 0.492188 -0.910156 0.480469 -0.875 0.46875 -0.839844 Z "/>
</g>
<g id="glyph-0-3">
<path d="M 0.191406 -1.320312 L 0.496094 -1.320312 L 0.496094 -1.203125 C 0.554688 -1.261719 0.601562 -1.300781 0.648438 -1.324219 C 0.691406 -1.347656 0.742188 -1.359375 0.804688 -1.359375 C 0.886719 -1.359375 0.96875 -1.332031 1.054688 -1.277344 L 0.917969 -1 C 0.859375 -1.042969 0.800781 -1.0625 0.746094 -1.0625 C 0.582031 -1.0625 0.496094 -0.9375 0.496094 -0.683594 L 0.496094 0 L 0.191406 0 Z "/>
</g>
<g id="glyph-0-4">
<path d="M 0.566406 -2.09375 L 0.566406 -0.296875 L 1.183594 -0.296875 L 1.183594 0 L 0.25 0 L 0.25 -2.09375 Z "/>
</g>
<g id="glyph-0-5">
<path d="M 0.128906 -0.671875 C 0.128906 -0.863281 0.199219 -1.023438 0.335938 -1.15625 C 0.472656 -1.289062 0.636719 -1.359375 0.835938 -1.359375 C 1.03125 -1.359375 1.199219 -1.289062 1.335938 -1.15625 C 1.472656 -1.019531 1.539062 -0.855469 1.539062 -0.660156 C 1.539062 -0.460938 1.472656 -0.296875 1.335938 -0.160156 C 1.199219 -0.0273438 1.027344 0.0390625 0.828125 0.0390625 C 0.628906 0.0390625 0.464844 -0.03125 0.332031 -0.164062 C 0.199219 -0.296875 0.128906 -0.46875 0.128906 -0.671875 Z M 0.441406 -0.664062 C 0.441406 -0.53125 0.476562 -0.429688 0.546875 -0.351562 C 0.621094 -0.273438 0.714844 -0.234375 0.835938 -0.234375 C 0.953125 -0.234375 1.046875 -0.273438 1.121094 -0.351562 C 1.191406 -0.425781 1.226562 -0.53125 1.226562 -0.65625 C 1.226562 -0.785156 1.191406 -0.890625 1.121094 -0.964844 C 1.046875 -1.042969 0.953125 -1.082031 0.835938 -1.082031 C 0.71875 -1.082031 0.621094 -1.042969 0.550781 -0.964844 C 0.476562 -0.886719 0.441406 -0.789062 0.441406 -0.664062 Z "/>
</g>
<g id="glyph-0-6">
<path d="M 1.21875 -1.265625 L 1.21875 -0.859375 C 1.148438 -0.945312 1.089844 -1 1.035156 -1.035156 C 0.980469 -1.066406 0.914062 -1.082031 0.84375 -1.082031 C 0.726562 -1.082031 0.632812 -1.042969 0.554688 -0.960938 C 0.480469 -0.878906 0.441406 -0.78125 0.441406 -0.660156 C 0.441406 -0.535156 0.480469 -0.433594 0.550781 -0.355469 C 0.625 -0.273438 0.71875 -0.234375 0.835938 -0.234375 C 0.910156 -0.234375 0.972656 -0.25 1.03125 -0.28125 C 1.085938 -0.3125 1.148438 -0.371094 1.21875 -0.460938 L 1.21875 -0.0585938 C 1.097656 0.00390625 0.972656 0.0390625 0.847656 0.0390625 C 0.644531 0.0390625 0.472656 -0.0273438 0.335938 -0.160156 C 0.199219 -0.292969 0.128906 -0.457031 0.128906 -0.65625 C 0.128906 -0.851562 0.199219 -1.019531 0.339844 -1.152344 C 0.480469 -1.289062 0.648438 -1.359375 0.851562 -1.359375 C 0.980469 -1.359375 1.105469 -1.328125 1.21875 -1.265625 Z "/>
</g>
<g id="glyph-0-7">
<rect x="0" y="0" width="0" height="0" mask="url(#mask-0)"/>
</g>
<g id="glyph-0-8">
<path d="M 0.546875 -2.3125 L 0.828125 -2.203125 C 0.730469 -1.96875 0.660156 -1.75 0.621094 -1.550781 C 0.601562 -1.449219 0.585938 -1.34375 0.578125 -1.230469 C 0.566406 -1.121094 0.5625 -1 0.5625 -0.867188 C 0.5625 -0.734375 0.566406 -0.613281 0.578125 -0.5 C 0.585938 -0.386719 0.601562 -0.28125 0.621094 -0.179688 C 0.660156 0.0195312 0.730469 0.234375 0.828125 0.472656 L 0.546875 0.582031 C 0.347656 0.167969 0.25 -0.316406 0.25 -0.867188 C 0.25 -1.417969 0.347656 -1.898438 0.546875 -2.3125 Z "/>
</g>
<g id="glyph-0-9">
<path d="M 0.25 0 L 0.25 -2.09375 L 0.691406 -2.09375 C 0.902344 -2.09375 1.066406 -2.074219 1.1875 -2.03125 C 1.320312 -1.992188 1.4375 -1.921875 1.546875 -1.824219 C 1.761719 -1.628906 1.871094 -1.367188 1.871094 -1.046875 C 1.871094 -0.726562 1.757812 -0.464844 1.53125 -0.265625 C 1.417969 -0.167969 1.300781 -0.0976562 1.175781 -0.0585938 C 1.0625 -0.0195312 0.898438 0 0.683594 0 Z M 0.566406 -0.296875 L 0.710938 -0.296875 C 0.851562 -0.296875 0.96875 -0.3125 1.0625 -0.339844 C 1.15625 -0.371094 1.242188 -0.421875 1.316406 -0.492188 C 1.472656 -0.632812 1.550781 -0.820312 1.550781 -1.046875 C 1.550781 -1.277344 1.472656 -1.460938 1.320312 -1.605469 C 1.183594 -1.734375 0.980469 -1.796875 0.710938 -1.796875 L 0.566406 -1.796875 Z "/>
</g>
<g id="glyph-0-10">
<path d="M 0.191406 -1.320312 L 0.5 -1.320312 L 0.5 -1.199219 C 0.605469 -1.304688 0.726562 -1.359375 0.859375 -1.359375 C 1.011719 -1.359375 1.132812 -1.308594 1.21875 -1.210938 C 1.292969 -1.128906 1.332031 -0.996094 1.332031 -0.808594 L 1.332031 0 L 1.023438 0 L 1.023438 -0.738281 C 1.023438 -0.867188 1.003906 -0.957031 0.96875 -1.007812 C 0.933594 -1.058594 0.871094 -1.082031 0.777344 -1.082031 C 0.675781 -1.082031 0.605469 -1.050781 0.5625 -0.984375 C 0.519531 -0.917969 0.5 -0.800781 0.5 -0.636719 L 0.5 0 L 0.191406 0 Z "/>
</g>
<g id="glyph-0-11">
<path d="M 0.355469 -2.09375 L 0.9375 -0.644531 L 1.523438 -2.09375 L 1.867188 -2.09375 L 0.929688 0.15625 L 0.0117188 -2.09375 Z "/>
</g>
<g id="glyph-0-12">
<path d="M 0.71875 -0.972656 L 0.71875 -1.242188 C 0.851562 -1.242188 0.941406 -1.257812 0.988281 -1.285156 C 1.070312 -1.339844 1.113281 -1.421875 1.113281 -1.539062 C 1.113281 -1.628906 1.082031 -1.703125 1.023438 -1.757812 C 0.964844 -1.816406 0.886719 -1.84375 0.792969 -1.84375 C 0.707031 -1.84375 0.636719 -1.820312 0.589844 -1.777344 C 0.542969 -1.734375 0.507812 -1.664062 0.488281 -1.558594 L 0.171875 -1.558594 C 0.203125 -1.757812 0.273438 -1.902344 0.371094 -1.992188 C 0.472656 -2.085938 0.617188 -2.128906 0.796875 -2.128906 C 0.980469 -2.128906 1.128906 -2.078125 1.246094 -1.96875 C 1.363281 -1.859375 1.417969 -1.722656 1.417969 -1.550781 C 1.417969 -1.359375 1.34375 -1.210938 1.191406 -1.105469 C 1.367188 -1.003906 1.453125 -0.835938 1.453125 -0.605469 C 1.453125 -0.417969 1.390625 -0.265625 1.261719 -0.144531 C 1.136719 -0.0273438 0.972656 0.0351562 0.777344 0.0351562 C 0.523438 0.0351562 0.335938 -0.0585938 0.214844 -0.242188 C 0.164062 -0.320312 0.132812 -0.429688 0.117188 -0.566406 L 0.421875 -0.566406 C 0.4375 -0.464844 0.480469 -0.386719 0.542969 -0.335938 C 0.605469 -0.28125 0.6875 -0.253906 0.789062 -0.253906 C 0.890625 -0.253906 0.972656 -0.289062 1.042969 -0.355469 C 1.109375 -0.425781 1.140625 -0.511719 1.140625 -0.621094 C 1.140625 -0.761719 1.089844 -0.859375 0.992188 -0.921875 C 0.933594 -0.957031 0.839844 -0.972656 0.71875 -0.972656 Z "/>
</g>
<g id="glyph-0-13">
<path d="M 0.46875 0.582031 L 0.1875 0.472656 C 0.289062 0.234375 0.355469 0.0195312 0.394531 -0.179688 C 0.4375 -0.378906 0.457031 -0.609375 0.457031 -0.867188 C 0.457031 -1.125 0.4375 -1.351562 0.394531 -1.550781 C 0.355469 -1.75 0.285156 -1.96875 0.1875 -2.203125 L 0.46875 -2.3125 C 0.667969 -1.898438 0.765625 -1.417969 0.765625 -0.867188 C 0.765625 -0.316406 0.667969 0.167969 0.46875 0.582031 Z "/>
</g>
</g>
<image id="source-38" x="0" y="0" width="0" height="0"/>
<mask id="mask-0">
<use xlink:href="#source-38"/>
</mask>
</defs>
<g fill="rgb(90.980392%, 89.411765%, 85.490196%)" fill-opacity="1">
<use xlink:href="#glyph-0-0" x="30" y="22.884766"/>
<use xlink:href="#glyph-0-1" x="32" y="22.884766"/>
<use xlink:href="#glyph-0-2" x="33" y="22.884766"/>
<use xlink:href="#glyph-0-3" x="35" y="22.884766"/>
<use xlink:href="#glyph-0-4" x="36" y="22.884766"/>
<use xlink:href="#glyph-0-5" x="37" y="22.884766"/>
<use xlink:href="#glyph-0-6" x="39" y="22.884766"/>
<use xlink:href="#glyph-0-7" x="40" y="22.884766"/>
</g>
<g fill="rgb(90.980392%, 89.411765%, 85.490196%)" fill-opacity="1">
<use xlink:href="#glyph-0-8" x="30" y="25.591797"/>
<use xlink:href="#glyph-0-9" x="31" y="25.591797"/>
<use xlink:href="#glyph-0-1" x="33" y="25.591797"/>
<use xlink:href="#glyph-0-10" x="34" y="25.591797"/>
<use xlink:href="#glyph-0-5" x="36" y="25.591797"/>
<use xlink:href="#glyph-0-11" x="38" y="25.591797"/>
<use xlink:href="#glyph-0-12" x="40" y="25.591797"/>
<use xlink:href="#glyph-0-13" x="42" y="25.591797"/>
</g>
</svg>
