<?xml version="1.0" encoding="UTF-8"?>
<svg xmlns="http://www.w3.org/2000/svg" xmlns:xlink="http://www.w3.org/1999/xlink" width="1920" height="1080" viewBox="0 0 1920 1080">
<defs>
<g>
<g id="glyph-0-0">
<path d="M 1.472656 -2.867188 C 1.824219 -2.867188 2.097656 -2.773438 2.292969 -2.585938 C 2.488281 -2.398438 2.597656 -2.1875 2.617188 -1.953125 L 2.25 -1.953125 C 2.207031 -2.132812 2.125 -2.273438 2 -2.378906 C 1.875 -2.484375 1.699219 -2.539062 1.476562 -2.539062 C 1.203125 -2.539062 0.980469 -2.441406 0.808594 -2.246094 C 0.640625 -2.054688 0.554688 -1.757812 0.554688 -1.359375 C 0.554688 -1.03125 0.632812 -0.769531 0.785156 -0.566406 C 0.9375 -0.363281 1.164062 -0.261719 1.46875 -0.261719 C 1.746094 -0.261719 1.957031 -0.367188 2.105469 -0.582031 C 2.183594 -0.695312 2.238281 -0.84375 2.277344 -1.027344 L 2.644531 -1.027344 C 2.613281 -0.734375 2.503906 -0.484375 2.320312 -0.285156 C 2.097656 -0.046875 1.796875 0.0703125 1.421875 0.0703125 C 1.097656 0.0703125 0.824219 -0.0273438 0.605469 -0.222656 C 0.316406 -0.480469 0.171875 -0.882812 0.171875 -1.425781 C 0.171875 -1.835938 0.28125 -2.171875 0.496094 -2.4375 C 0.734375 -2.722656 1.058594 -2.867188 1.472656 -2.867188 Z "/>
</g>
<g id="glyph-0-1">
<path d="M 0.121094 0 C 0.132812 -0.234375 0.183594 -0.4375 0.265625 -0.613281 C 0.351562 -0.785156 0.515625 -0.941406 0.757812 -1.085938 L 1.125 -1.296875 C 1.289062 -1.390625 1.402344 -1.472656 1.46875 -1.539062 C 1.570312 -1.644531 1.625 -1.765625 1.625 -1.898438 C 1.625 -2.058594 1.578125 -2.183594 1.480469 -2.277344 C 1.386719 -2.371094 1.261719 -2.414062 1.101562 -2.414062 C 0.867188 -2.414062 0.707031 -2.328125 0.617188 -2.148438 C 0.566406 -2.054688 0.539062 -1.921875 0.535156 -1.753906 L 0.1875 -1.753906 C 0.191406 -1.992188 0.234375 -2.183594 0.320312 -2.335938 C 0.46875 -2.597656 0.730469 -2.730469 1.101562 -2.730469 C 1.414062 -2.730469 1.640625 -2.644531 1.785156 -2.476562 C 1.929688 -2.308594 2 -2.121094 2 -1.914062 C 2 -1.695312 1.925781 -1.511719 1.773438 -1.355469 C 1.683594 -1.265625 1.523438 -1.15625 1.296875 -1.03125 L 1.035156 -0.886719 C 0.910156 -0.816406 0.8125 -0.75 0.742188 -0.6875 C 0.617188 -0.578125 0.535156 -0.457031 0.503906 -0.324219 L 1.988281 -0.324219 L 1.988281 0 Z "/>
</g>
</g>
</defs>
<g fill="rgb(90.980392%, 89.411765%, 85.490196%)" fill-opacity="1">
<use xlink:href="#glyph-0-0" x="30" y="22.995117"/>
<use xlink:href="#glyph-0-1" x="33" y="22.995117"/>
</g>
</svg>
