<?xml version="1.0" encoding="UTF-8"?>
<svg xmlns="http://www.w3.org/2000/svg" xmlns:xlink="http://www.w3.org/1999/xlink" width="1920" height="1080" viewBox="0 0 1920 1080">
<defs>
<g>
<g id="glyph-0-0">
<path d="M 0.601562 0 L 0.601562 -5.027344 L 1.65625 -5.027344 C 2.164062 -5.027344 2.5625 -4.976562 2.855469 -4.875 C 3.167969 -4.777344 3.453125 -4.613281 3.710938 -4.378906 C 4.230469 -3.90625 4.488281 -3.285156 4.488281 -2.511719 C 4.488281 -1.738281 4.21875 -1.117188 3.679688 -0.636719 C 3.40625 -0.398438 3.121094 -0.234375 2.824219 -0.140625 C 2.546875 -0.046875 2.152344 0 1.644531 0 Z M 1.359375 -0.714844 L 1.703125 -0.714844 C 2.042969 -0.714844 2.328125 -0.75 2.550781 -0.820312 C 2.777344 -0.894531 2.980469 -1.015625 3.164062 -1.183594 C 3.539062 -1.523438 3.722656 -1.964844 3.722656 -2.511719 C 3.722656 -3.0625 3.539062 -3.511719 3.171875 -3.855469 C 2.839844 -4.160156 2.347656 -4.3125 1.703125 -4.3125 L 1.359375 -4.3125 Z "/>
</g>
<g id="glyph-0-1">
<path d="M 1.195312 -3.171875 L 1.195312 0 L 0.460938 0 L 0.460938 -3.171875 Z M 0.351562 -4.488281 C 0.351562 -4.617188 0.398438 -4.726562 0.492188 -4.820312 C 0.585938 -4.914062 0.695312 -4.960938 0.828125 -4.960938 C 0.960938 -4.960938 1.070312 -4.914062 1.164062 -4.820312 C 1.257812 -4.730469 1.304688 -4.617188 1.304688 -4.484375 C 1.304688 -4.351562 1.257812 -4.242188 1.164062 -4.148438 C 1.074219 -4.054688 0.960938 -4.007812 0.832031 -4.007812 C 0.699219 -4.007812 0.585938 -4.054688 0.492188 -4.148438 C 0.398438 -4.242188 0.351562 -4.355469 0.351562 -4.488281 Z "/>
</g>
<g id="glyph-0-2">
<path d="M 1.222656 -2.488281 L 1.222656 0 L 0.484375 0 L 0.484375 -2.488281 L 0.226562 -2.488281 L 0.226562 -3.171875 L 0.484375 -3.171875 L 0.484375 -4.394531 C 0.484375 -4.792969 0.554688 -5.078125 0.695312 -5.242188 C 0.886719 -5.472656 1.164062 -5.585938 1.527344 -5.585938 C 1.65625 -5.585938 1.820312 -5.546875 2.019531 -5.472656 L 2.019531 -4.722656 L 1.945312 -4.761719 C 1.785156 -4.84375 1.65625 -4.882812 1.554688 -4.882812 C 1.421875 -4.882812 1.335938 -4.835938 1.289062 -4.742188 C 1.242188 -4.652344 1.222656 -4.476562 1.222656 -4.214844 L 1.222656 -3.171875 L 2.019531 -3.171875 L 2.019531 -2.488281 Z "/>
</g>
<g id="glyph-0-3">
<path d="M 1.195312 -3.171875 L 1.195312 -1.351562 C 1.195312 -0.824219 1.402344 -0.5625 1.816406 -0.5625 C 2.230469 -0.5625 2.4375 -0.824219 2.4375 -1.351562 L 2.4375 -3.171875 L 3.171875 -3.171875 L 3.171875 -1.335938 C 3.171875 -1.082031 3.140625 -0.863281 3.078125 -0.675781 C 3.015625 -0.511719 2.910156 -0.363281 2.761719 -0.230469 C 2.511719 -0.015625 2.199219 0.0898438 1.816406 0.0898438 C 1.4375 0.0898438 1.125 -0.015625 0.875 -0.230469 C 0.722656 -0.363281 0.617188 -0.511719 0.554688 -0.675781 C 0.492188 -0.824219 0.460938 -1.042969 0.460938 -1.335938 L 0.460938 -3.171875 Z "/>
</g>
<g id="glyph-0-4">
<path d="M 2.304688 -2.628906 L 1.699219 -2.308594 C 1.605469 -2.503906 1.484375 -2.601562 1.34375 -2.601562 C 1.277344 -2.601562 1.21875 -2.578125 1.171875 -2.535156 C 1.125 -2.488281 1.101562 -2.433594 1.101562 -2.363281 C 1.101562 -2.242188 1.242188 -2.121094 1.523438 -2.003906 C 1.910156 -1.835938 2.171875 -1.679688 2.308594 -1.539062 C 2.441406 -1.398438 2.511719 -1.207031 2.511719 -0.96875 C 2.511719 -0.664062 2.398438 -0.40625 2.171875 -0.203125 C 1.953125 -0.0078125 1.6875 0.0898438 1.378906 0.0898438 C 0.847656 0.0898438 0.46875 -0.167969 0.246094 -0.6875 L 0.871094 -0.976562 C 0.957031 -0.824219 1.027344 -0.726562 1.070312 -0.6875 C 1.160156 -0.605469 1.265625 -0.5625 1.390625 -0.5625 C 1.636719 -0.5625 1.761719 -0.675781 1.761719 -0.902344 C 1.761719 -1.03125 1.664062 -1.152344 1.476562 -1.265625 C 1.402344 -1.304688 1.328125 -1.339844 1.253906 -1.375 C 1.179688 -1.410156 1.105469 -1.445312 1.027344 -1.480469 C 0.816406 -1.585938 0.667969 -1.691406 0.578125 -1.792969 C 0.46875 -1.925781 0.414062 -2.097656 0.414062 -2.304688 C 0.414062 -2.582031 0.507812 -2.808594 0.695312 -2.988281 C 0.890625 -3.167969 1.125 -3.257812 1.398438 -3.257812 C 1.804688 -3.257812 2.105469 -3.050781 2.304688 -2.628906 Z "/>
</g>
<g id="glyph-0-5">
<path d="M 0.3125 -1.609375 C 0.3125 -2.066406 0.476562 -2.457031 0.804688 -2.777344 C 1.132812 -3.097656 1.53125 -3.257812 2.003906 -3.257812 C 2.476562 -3.257812 2.875 -3.097656 3.207031 -2.773438 C 3.53125 -2.449219 3.695312 -2.054688 3.695312 -1.582031 C 3.695312 -1.105469 3.53125 -0.707031 3.203125 -0.386719 C 2.875 -0.0664062 2.46875 0.0898438 1.988281 0.0898438 C 1.511719 0.0898438 1.117188 -0.0703125 0.792969 -0.398438 C 0.472656 -0.71875 0.3125 -1.121094 0.3125 -1.609375 Z M 1.0625 -1.59375 C 1.0625 -1.277344 1.144531 -1.027344 1.316406 -0.84375 C 1.488281 -0.65625 1.71875 -0.5625 2.003906 -0.5625 C 2.289062 -0.5625 2.515625 -0.65625 2.6875 -0.839844 C 2.859375 -1.023438 2.945312 -1.269531 2.945312 -1.578125 C 2.945312 -1.886719 2.859375 -2.132812 2.6875 -2.316406 C 2.515625 -2.503906 2.285156 -2.597656 2.003906 -2.597656 C 1.722656 -2.597656 1.496094 -2.503906 1.320312 -2.316406 C 1.148438 -2.128906 1.0625 -1.890625 1.0625 -1.59375 Z "/>
</g>
<g id="glyph-0-6">
<path d="M 0.460938 -3.171875 L 1.199219 -3.171875 L 1.199219 -2.878906 C 1.453125 -3.132812 1.742188 -3.257812 2.0625 -3.257812 C 2.433594 -3.257812 2.71875 -3.140625 2.925781 -2.910156 C 3.105469 -2.710938 3.195312 -2.390625 3.195312 -1.945312 L 3.195312 0 L 2.457031 0 L 2.457031 -1.769531 C 2.457031 -2.082031 2.414062 -2.300781 2.328125 -2.417969 C 2.242188 -2.539062 2.089844 -2.601562 1.867188 -2.601562 C 1.621094 -2.601562 1.449219 -2.519531 1.347656 -2.359375 C 1.246094 -2.203125 1.199219 -1.925781 1.199219 -1.53125 L 1.199219 0 L 0.460938 0 Z "/>
</g>
</g>
</defs>
<g fill="rgb(54.901961%, 54.117647%, 51.764706%)" fill-opacity="1">
<use xlink:href="#glyph-0-0" x="30" y="26.923828"/>
<use xlink:href="#glyph-0-1" x="35" y="26.923828"/>
<use xlink:href="#glyph-0-2" x="37" y="26.923828"/>
<use xlink:href="#glyph-0-2" x="39" y="26.923828"/>
<use xlink:href="#glyph-0-3" x="41" y="26.923828"/>
<use xlink:href="#glyph-0-4" x="45" y="26.923828"/>
<use xlink:href="#glyph-0-1" x="48" y="26.923828"/>
<use xlink:href="#glyph-0-5" x="50" y="26.923828"/>
<use xlink:href="#glyph-0-6" x="54" y="26.923828"/>
</g>
</svg>
