<?xml version="1.0" encoding="UTF-8"?>
<svg xmlns="http://www.w3.org/2000/svg" xmlns:xlink="http://www.w3.org/1999/xlink" width="1920" height="1080" viewBox="0 0 1920 1080">
<defs>
<g>
<g id="glyph-0-0">
<path d="M 0.5 -4.363281 L 0.5 0 L 1.082031 0 L 1.082031 -4.363281 Z "/>
</g>
<g id="glyph-0-1">
<path d="M 0.390625 -3.160156 L 0.390625 0 L 0.910156 0 L 0.910156 -1.96875 C 0.910156 -2.027344 0.925781 -2.105469 0.957031 -2.195312 C 0.988281 -2.289062 1.035156 -2.375 1.101562 -2.460938 C 1.167969 -2.546875 1.257812 -2.621094 1.367188 -2.683594 C 1.472656 -2.742188 1.601562 -2.773438 1.753906 -2.773438 C 1.871094 -2.773438 1.96875 -2.757812 2.042969 -2.722656 C 2.117188 -2.6875 2.179688 -2.636719 2.222656 -2.574219 C 2.269531 -2.511719 2.300781 -2.4375 2.320312 -2.351562 C 2.335938 -2.265625 2.347656 -2.171875 2.347656 -2.070312 L 2.347656 0 L 2.867188 0 L 2.867188 -1.96875 C 2.867188 -2.210938 2.9375 -2.40625 3.085938 -2.554688 C 3.234375 -2.699219 3.433594 -2.773438 3.691406 -2.773438 C 3.816406 -2.773438 3.917969 -2.753906 4 -2.71875 C 4.078125 -2.683594 4.140625 -2.632812 4.1875 -2.570312 C 4.230469 -2.507812 4.261719 -2.433594 4.277344 -2.347656 C 4.292969 -2.261719 4.300781 -2.167969 4.300781 -2.070312 L 4.300781 0 L 4.820312 0 L 4.820312 -2.316406 C 4.820312 -2.480469 4.796875 -2.617188 4.746094 -2.734375 C 4.695312 -2.851562 4.621094 -2.945312 4.53125 -3.019531 C 4.4375 -3.09375 4.328125 -3.144531 4.199219 -3.179688 C 4.070312 -3.214844 3.929688 -3.230469 3.769531 -3.230469 C 3.5625 -3.230469 3.371094 -3.183594 3.199219 -3.09375 C 3.027344 -3 2.886719 -2.867188 2.78125 -2.695312 C 2.714844 -2.890625 2.601562 -3.027344 2.445312 -3.109375 C 2.285156 -3.191406 2.109375 -3.230469 1.914062 -3.230469 C 1.46875 -3.230469 1.128906 -3.054688 0.890625 -2.695312 L 0.878906 -2.695312 L 0.878906 -3.160156 Z "/>
</g>
<g id="glyph-0-2">
<path d="M 3.191406 -0.0117188 C 3.101562 0.0390625 2.976562 0.0664062 2.816406 0.0664062 C 2.683594 0.0664062 2.574219 0.03125 2.496094 -0.046875 C 2.417969 -0.121094 2.375 -0.246094 2.375 -0.414062 C 2.234375 -0.242188 2.066406 -0.121094 1.878906 -0.046875 C 1.691406 0.0273438 1.484375 0.0664062 1.265625 0.0664062 C 1.121094 0.0664062 0.988281 0.0507812 0.859375 0.0195312 C 0.730469 -0.015625 0.621094 -0.0664062 0.527344 -0.132812 C 0.433594 -0.203125 0.359375 -0.292969 0.300781 -0.40625 C 0.246094 -0.519531 0.21875 -0.652344 0.21875 -0.8125 C 0.21875 -0.992188 0.25 -1.136719 0.3125 -1.253906 C 0.371094 -1.367188 0.453125 -1.460938 0.554688 -1.53125 C 0.652344 -1.601562 0.765625 -1.65625 0.894531 -1.691406 C 1.023438 -1.730469 1.15625 -1.761719 1.289062 -1.785156 C 1.433594 -1.8125 1.566406 -1.835938 1.695312 -1.847656 C 1.824219 -1.863281 1.9375 -1.882812 2.035156 -1.910156 C 2.132812 -1.9375 2.210938 -1.976562 2.265625 -2.027344 C 2.324219 -2.078125 2.351562 -2.152344 2.351562 -2.25 C 2.351562 -2.363281 2.332031 -2.453125 2.289062 -2.523438 C 2.246094 -2.59375 2.191406 -2.644531 2.125 -2.683594 C 2.058594 -2.71875 1.980469 -2.742188 1.898438 -2.753906 C 1.8125 -2.765625 1.730469 -2.773438 1.648438 -2.773438 C 1.429688 -2.773438 1.246094 -2.730469 1.101562 -2.648438 C 0.953125 -2.566406 0.875 -2.40625 0.863281 -2.175781 L 0.34375 -2.175781 C 0.351562 -2.371094 0.390625 -2.535156 0.464844 -2.671875 C 0.539062 -2.804688 0.636719 -2.914062 0.757812 -2.996094 C 0.878906 -3.082031 1.019531 -3.140625 1.175781 -3.175781 C 1.332031 -3.214844 1.5 -3.230469 1.679688 -3.230469 C 1.824219 -3.230469 1.964844 -3.222656 2.105469 -3.203125 C 2.246094 -3.183594 2.371094 -3.140625 2.488281 -3.078125 C 2.601562 -3.015625 2.691406 -2.925781 2.761719 -2.8125 C 2.832031 -2.699219 2.867188 -2.546875 2.867188 -2.363281 L 2.867188 -0.738281 C 2.867188 -0.617188 2.871094 -0.527344 2.886719 -0.46875 C 2.902344 -0.414062 2.949219 -0.386719 3.03125 -0.386719 C 3.074219 -0.386719 3.128906 -0.394531 3.191406 -0.414062 Z M 2.347656 -1.632812 C 2.28125 -1.582031 2.195312 -1.546875 2.089844 -1.523438 C 1.984375 -1.5 1.871094 -1.484375 1.757812 -1.46875 C 1.640625 -1.453125 1.523438 -1.4375 1.40625 -1.421875 C 1.289062 -1.402344 1.179688 -1.371094 1.085938 -1.332031 C 0.992188 -1.292969 0.917969 -1.234375 0.859375 -1.15625 C 0.800781 -1.082031 0.769531 -0.980469 0.769531 -0.847656 C 0.769531 -0.761719 0.789062 -0.691406 0.820312 -0.632812 C 0.855469 -0.574219 0.902344 -0.527344 0.957031 -0.488281 C 1.011719 -0.453125 1.074219 -0.425781 1.148438 -0.410156 C 1.222656 -0.394531 1.300781 -0.386719 1.382812 -0.386719 C 1.550781 -0.386719 1.699219 -0.410156 1.820312 -0.457031 C 1.941406 -0.503906 2.042969 -0.5625 2.121094 -0.632812 C 2.199219 -0.703125 2.253906 -0.78125 2.292969 -0.863281 C 2.328125 -0.949219 2.347656 -1.027344 2.347656 -1.101562 Z "/>
</g>
<g id="glyph-0-3">
<path d="M 3.117188 -0.269531 L 3.117188 -3.160156 L 2.628906 -3.160156 L 2.628906 -2.707031 L 2.621094 -2.707031 C 2.527344 -2.882812 2.398438 -3.011719 2.230469 -3.101562 C 2.0625 -3.1875 1.878906 -3.230469 1.679688 -3.230469 C 1.40625 -3.230469 1.175781 -3.179688 0.988281 -3.078125 C 0.800781 -2.972656 0.652344 -2.839844 0.539062 -2.679688 C 0.425781 -2.519531 0.34375 -2.339844 0.292969 -2.140625 C 0.246094 -1.945312 0.21875 -1.75 0.21875 -1.5625 C 0.21875 -1.347656 0.25 -1.144531 0.308594 -0.949219 C 0.367188 -0.757812 0.457031 -0.585938 0.574219 -0.441406 C 0.691406 -0.296875 0.839844 -0.183594 1.015625 -0.0976562 C 1.191406 -0.0117188 1.394531 0.03125 1.632812 0.03125 C 1.835938 0.03125 2.027344 -0.015625 2.207031 -0.105469 C 2.390625 -0.199219 2.527344 -0.34375 2.613281 -0.539062 L 2.628906 -0.539062 L 2.628906 -0.328125 C 2.628906 -0.152344 2.609375 0.0078125 2.574219 0.152344 C 2.539062 0.300781 2.484375 0.425781 2.40625 0.527344 C 2.328125 0.632812 2.230469 0.714844 2.113281 0.773438 C 1.996094 0.832031 1.851562 0.863281 1.679688 0.863281 C 1.59375 0.863281 1.503906 0.851562 1.410156 0.835938 C 1.316406 0.816406 1.230469 0.785156 1.152344 0.746094 C 1.074219 0.703125 1.003906 0.652344 0.949219 0.585938 C 0.894531 0.519531 0.867188 0.441406 0.863281 0.347656 L 0.34375 0.347656 C 0.351562 0.519531 0.394531 0.664062 0.476562 0.78125 C 0.558594 0.898438 0.660156 0.996094 0.785156 1.070312 C 0.910156 1.144531 1.046875 1.195312 1.199219 1.226562 C 1.351562 1.261719 1.503906 1.277344 1.648438 1.277344 C 2.15625 1.277344 2.527344 1.148438 2.761719 0.890625 C 3 0.636719 3.117188 0.25 3.117188 -0.269531 Z M 1.660156 -0.421875 C 1.492188 -0.421875 1.347656 -0.457031 1.234375 -0.527344 C 1.121094 -0.597656 1.027344 -0.695312 0.960938 -0.808594 C 0.890625 -0.925781 0.839844 -1.054688 0.8125 -1.199219 C 0.785156 -1.339844 0.769531 -1.484375 0.769531 -1.625 C 0.769531 -1.777344 0.789062 -1.921875 0.820312 -2.058594 C 0.855469 -2.199219 0.910156 -2.320312 0.988281 -2.425781 C 1.0625 -2.53125 1.160156 -2.617188 1.277344 -2.679688 C 1.394531 -2.742188 1.539062 -2.773438 1.703125 -2.773438 C 1.867188 -2.773438 2.007812 -2.742188 2.121094 -2.675781 C 2.234375 -2.609375 2.328125 -2.523438 2.398438 -2.417969 C 2.46875 -2.308594 2.523438 -2.1875 2.554688 -2.054688 C 2.585938 -1.917969 2.601562 -1.78125 2.601562 -1.644531 C 2.601562 -1.496094 2.585938 -1.351562 2.550781 -1.203125 C 2.515625 -1.058594 2.460938 -0.925781 2.390625 -0.808594 C 2.316406 -0.691406 2.21875 -0.601562 2.097656 -0.527344 C 1.976562 -0.457031 1.832031 -0.421875 1.660156 -0.421875 Z "/>
</g>
<g id="glyph-0-4">
<path d="M 2.585938 -1.882812 L 0.769531 -1.882812 C 0.777344 -2.003906 0.804688 -2.121094 0.847656 -2.226562 C 0.894531 -2.335938 0.957031 -2.429688 1.03125 -2.511719 C 1.109375 -2.59375 1.203125 -2.65625 1.3125 -2.703125 C 1.417969 -2.75 1.539062 -2.773438 1.675781 -2.773438 C 1.804688 -2.773438 1.921875 -2.75 2.03125 -2.703125 C 2.140625 -2.65625 2.234375 -2.59375 2.3125 -2.515625 C 2.390625 -2.433594 2.457031 -2.339844 2.503906 -2.230469 C 2.550781 -2.121094 2.578125 -2.003906 2.585938 -1.882812 Z M 3.085938 -1.003906 L 2.574219 -1.003906 C 2.527344 -0.796875 2.433594 -0.640625 2.292969 -0.539062 C 2.152344 -0.4375 1.972656 -0.386719 1.753906 -0.386719 C 1.582031 -0.386719 1.433594 -0.414062 1.308594 -0.46875 C 1.183594 -0.527344 1.078125 -0.605469 0.996094 -0.699219 C 0.914062 -0.796875 0.855469 -0.90625 0.820312 -1.03125 C 0.78125 -1.15625 0.765625 -1.285156 0.769531 -1.421875 L 3.132812 -1.421875 C 3.140625 -1.613281 3.125 -1.816406 3.082031 -2.027344 C 3.039062 -2.238281 2.960938 -2.4375 2.851562 -2.613281 C 2.738281 -2.792969 2.589844 -2.941406 2.40625 -3.058594 C 2.21875 -3.175781 1.984375 -3.230469 1.703125 -3.230469 C 1.488281 -3.230469 1.289062 -3.191406 1.109375 -3.109375 C 0.929688 -3.027344 0.769531 -2.914062 0.636719 -2.769531 C 0.503906 -2.621094 0.402344 -2.449219 0.328125 -2.25 C 0.257812 -2.050781 0.21875 -1.828125 0.21875 -1.589844 C 0.226562 -1.347656 0.265625 -1.125 0.328125 -0.921875 C 0.390625 -0.71875 0.484375 -0.542969 0.609375 -0.398438 C 0.738281 -0.25 0.894531 -0.136719 1.078125 -0.0546875 C 1.265625 0.0273438 1.484375 0.0664062 1.734375 0.0664062 C 2.09375 0.0664062 2.390625 -0.0234375 2.628906 -0.203125 C 2.863281 -0.382812 3.015625 -0.648438 3.085938 -1.003906 Z "/>
</g>
</g>
</defs>
<g fill="rgb(90.980392%, 89.411765%, 85.490196%)" fill-opacity="1">
<use xlink:href="#glyph-0-0" x="30" y="25.817383"/>
<use xlink:href="#glyph-0-1" x="32" y="25.817383"/>
<use xlink:href="#glyph-0-2" x="37" y="25.817383"/>
<use xlink:href="#glyph-0-3" x="40" y="25.817383"/>
<use xlink:href="#glyph-0-4" x="44" y="25.817383"/>
</g>
</svg>
