<?xml version="1.0" encoding="UTF-8"?>
<svg xmlns="http://www.w3.org/2000/svg" xmlns:xlink="http://www.w3.org/1999/xlink" width="1920" height="1080" viewBox="0 0 1920 1080">
<defs>
<g>
<g id="glyph-0-0">
<path d="M 3.1875 -3.023438 C 3.542969 -3.023438 3.820312 -3.09375 4.027344 -3.234375 C 4.234375 -3.375 4.335938 -3.632812 4.335938 -4.003906 C 4.335938 -4.402344 4.191406 -4.671875 3.902344 -4.816406 C 3.75 -4.890625 3.542969 -4.929688 3.285156 -4.929688 L 1.4375 -4.929688 L 1.4375 -3.023438 Z M 0.683594 -5.578125 L 3.265625 -5.578125 C 3.691406 -5.578125 4.042969 -5.515625 4.316406 -5.390625 C 4.839844 -5.152344 5.105469 -4.714844 5.105469 -4.074219 C 5.105469 -3.742188 5.035156 -3.46875 4.898438 -3.253906 C 4.757812 -3.042969 4.566406 -2.871094 4.316406 -2.742188 C 4.535156 -2.652344 4.699219 -2.535156 4.808594 -2.390625 C 4.917969 -2.246094 4.980469 -2.015625 4.992188 -1.691406 L 5.019531 -0.941406 C 5.027344 -0.730469 5.046875 -0.570312 5.074219 -0.46875 C 5.121094 -0.289062 5.199219 -0.175781 5.316406 -0.125 L 5.316406 0 L 4.390625 0 C 4.363281 -0.046875 4.34375 -0.109375 4.328125 -0.1875 C 4.3125 -0.261719 4.300781 -0.410156 4.292969 -0.625 L 4.246094 -1.558594 C 4.226562 -1.921875 4.09375 -2.164062 3.839844 -2.289062 C 3.695312 -2.359375 3.46875 -2.390625 3.160156 -2.390625 L 1.4375 -2.390625 L 1.4375 0 L 0.683594 0 Z "/>
</g>
<g id="glyph-0-1">
<path d="M 2.195312 -4.160156 C 2.484375 -4.160156 2.761719 -4.089844 3.035156 -3.957031 C 3.304688 -3.820312 3.511719 -3.644531 3.652344 -3.429688 C 3.789062 -3.222656 3.882812 -2.984375 3.925781 -2.710938 C 3.96875 -2.523438 3.988281 -2.226562 3.988281 -1.816406 L 1.007812 -1.816406 C 1.019531 -1.402344 1.117188 -1.070312 1.296875 -0.820312 C 1.480469 -0.570312 1.761719 -0.449219 2.144531 -0.449219 C 2.503906 -0.449219 2.789062 -0.566406 3 -0.800781 C 3.121094 -0.9375 3.207031 -1.097656 3.257812 -1.277344 L 3.929688 -1.277344 C 3.914062 -1.128906 3.855469 -0.960938 3.753906 -0.777344 C 3.652344 -0.59375 3.542969 -0.441406 3.417969 -0.328125 C 3.210938 -0.125 2.953125 0.0117188 2.648438 0.0820312 C 2.484375 0.125 2.296875 0.144531 2.089844 0.144531 C 1.582031 0.144531 1.152344 -0.0390625 0.800781 -0.410156 C 0.449219 -0.777344 0.273438 -1.292969 0.273438 -1.957031 C 0.273438 -2.609375 0.449219 -3.140625 0.804688 -3.546875 C 1.160156 -3.953125 1.621094 -4.160156 2.195312 -4.160156 Z M 3.285156 -2.359375 C 3.257812 -2.65625 3.191406 -2.890625 3.089844 -3.070312 C 2.902344 -3.398438 2.589844 -3.5625 2.152344 -3.5625 C 1.839844 -3.5625 1.574219 -3.449219 1.363281 -3.222656 C 1.152344 -2.996094 1.039062 -2.707031 1.023438 -2.359375 Z "/>
</g>
<g id="glyph-0-2">
<path d="M 0.933594 -1.984375 C 0.933594 -1.550781 1.027344 -1.1875 1.210938 -0.890625 C 1.394531 -0.597656 1.691406 -0.453125 2.101562 -0.453125 C 2.417969 -0.453125 2.675781 -0.589844 2.878906 -0.859375 C 3.082031 -1.132812 3.1875 -1.523438 3.1875 -2.03125 C 3.1875 -2.546875 3.082031 -2.925781 2.871094 -3.171875 C 2.660156 -3.417969 2.402344 -3.542969 2.09375 -3.542969 C 1.75 -3.542969 1.46875 -3.410156 1.253906 -3.148438 C 1.039062 -2.886719 0.933594 -2.496094 0.933594 -1.984375 Z M 1.964844 -4.140625 C 2.273438 -4.140625 2.535156 -4.074219 2.746094 -3.941406 C 2.867188 -3.867188 3.003906 -3.734375 3.160156 -3.542969 L 3.160156 -5.597656 L 3.816406 -5.597656 L 3.816406 0 L 3.203125 0 L 3.203125 -0.566406 C 3.042969 -0.316406 2.851562 -0.132812 2.636719 -0.0234375 C 2.417969 0.0898438 2.167969 0.144531 1.886719 0.144531 C 1.433594 0.144531 1.042969 -0.046875 0.710938 -0.425781 C 0.378906 -0.808594 0.210938 -1.316406 0.210938 -1.949219 C 0.210938 -2.539062 0.363281 -3.054688 0.667969 -3.488281 C 0.96875 -3.921875 1.402344 -4.140625 1.964844 -4.140625 Z "/>
</g>
<g id="glyph-0-3">
<path d="M 1.183594 -4.066406 L 1.183594 -1.367188 C 1.183594 -1.160156 1.21875 -0.988281 1.285156 -0.859375 C 1.40625 -0.617188 1.632812 -0.492188 1.964844 -0.492188 C 2.441406 -0.492188 2.761719 -0.707031 2.933594 -1.132812 C 3.027344 -1.359375 3.074219 -1.671875 3.074219 -2.070312 L 3.074219 -4.066406 L 3.757812 -4.066406 L 3.757812 0 L 3.113281 0 L 3.121094 -0.601562 C 3.03125 -0.445312 2.921875 -0.316406 2.792969 -0.207031 C 2.53125 0.00390625 2.214844 0.109375 1.84375 0.109375 C 1.261719 0.109375 0.867188 -0.0820312 0.65625 -0.472656 C 0.542969 -0.679688 0.484375 -0.957031 0.484375 -1.300781 L 0.484375 -4.066406 Z "/>
</g>
<g id="glyph-0-4">
<path d="M 2.070312 -4.183594 C 2.527344 -4.183594 2.902344 -4.074219 3.1875 -3.851562 C 3.476562 -3.628906 3.648438 -3.246094 3.707031 -2.699219 L 3.042969 -2.699219 C 3 -2.949219 2.910156 -3.160156 2.765625 -3.324219 C 2.621094 -3.492188 2.386719 -3.574219 2.070312 -3.574219 C 1.632812 -3.574219 1.324219 -3.359375 1.136719 -2.933594 C 1.015625 -2.660156 0.953125 -2.320312 0.953125 -1.914062 C 0.953125 -1.507812 1.039062 -1.164062 1.210938 -0.886719 C 1.382812 -0.605469 1.65625 -0.46875 2.023438 -0.46875 C 2.308594 -0.46875 2.53125 -0.554688 2.699219 -0.726562 C 2.863281 -0.902344 2.980469 -1.136719 3.042969 -1.4375 L 3.707031 -1.4375 C 3.628906 -0.898438 3.441406 -0.503906 3.136719 -0.257812 C 2.832031 -0.0078125 2.445312 0.117188 1.972656 0.117188 C 1.441406 0.117188 1.015625 -0.078125 0.699219 -0.464844 C 0.382812 -0.855469 0.222656 -1.339844 0.222656 -1.921875 C 0.222656 -2.636719 0.398438 -3.191406 0.746094 -3.589844 C 1.089844 -3.988281 1.53125 -4.183594 2.070312 -4.183594 Z "/>
</g>
<g id="glyph-0-5">
<path d="M 0.636719 -5.203125 L 1.328125 -5.203125 L 1.328125 -4.066406 L 1.976562 -4.066406 L 1.976562 -3.507812 L 1.328125 -3.507812 L 1.328125 -0.855469 C 1.328125 -0.714844 1.378906 -0.617188 1.472656 -0.570312 C 1.527344 -0.542969 1.613281 -0.527344 1.738281 -0.527344 C 1.773438 -0.527344 1.808594 -0.527344 1.84375 -0.53125 C 1.882812 -0.53125 1.929688 -0.535156 1.976562 -0.539062 L 1.976562 0 C 1.898438 0.0234375 1.820312 0.0390625 1.734375 0.0507812 C 1.648438 0.0585938 1.558594 0.0664062 1.457031 0.0664062 C 1.140625 0.0664062 0.921875 -0.015625 0.808594 -0.179688 C 0.695312 -0.34375 0.636719 -0.554688 0.636719 -0.816406 L 0.636719 -3.507812 L 0.0859375 -3.507812 L 0.0859375 -4.066406 L 0.636719 -4.066406 Z "/>
</g>
<g id="glyph-0-6">
<path d="M 0.5 -4.046875 L 1.195312 -4.046875 L 1.195312 0 L 0.5 0 Z M 0.5 -5.578125 L 1.195312 -5.578125 L 1.195312 -4.804688 L 0.5 -4.804688 Z "/>
</g>
<g id="glyph-0-7">
<path d="M 2.113281 -0.441406 C 2.566406 -0.441406 2.878906 -0.613281 3.046875 -0.957031 C 3.214844 -1.296875 3.300781 -1.679688 3.300781 -2.101562 C 3.300781 -2.480469 3.238281 -2.789062 3.117188 -3.027344 C 2.925781 -3.402344 2.59375 -3.589844 2.121094 -3.589844 C 1.703125 -3.589844 1.402344 -3.429688 1.210938 -3.109375 C 1.019531 -2.789062 0.925781 -2.40625 0.925781 -1.957031 C 0.925781 -1.523438 1.023438 -1.160156 1.210938 -0.875 C 1.402344 -0.585938 1.703125 -0.441406 2.113281 -0.441406 Z M 2.140625 -4.183594 C 2.664062 -4.183594 3.109375 -4.011719 3.472656 -3.660156 C 3.832031 -3.3125 4.015625 -2.796875 4.015625 -2.117188 C 4.015625 -1.460938 3.855469 -0.921875 3.535156 -0.492188 C 3.214844 -0.0664062 2.722656 0.148438 2.050781 0.148438 C 1.492188 0.148438 1.046875 -0.0429688 0.71875 -0.417969 C 0.390625 -0.796875 0.222656 -1.304688 0.222656 -1.945312 C 0.222656 -2.628906 0.398438 -3.171875 0.746094 -3.578125 C 1.089844 -3.984375 1.558594 -4.183594 2.140625 -4.183594 Z "/>
</g>
<g id="glyph-0-8">
<path d="M 0.5 -4.066406 L 1.152344 -4.066406 L 1.152344 -3.488281 C 1.34375 -3.726562 1.546875 -3.898438 1.761719 -4.003906 C 1.976562 -4.105469 2.214844 -4.160156 2.480469 -4.160156 C 3.058594 -4.160156 3.445312 -3.957031 3.648438 -3.554688 C 3.761719 -3.335938 3.816406 -3.019531 3.816406 -2.609375 L 3.816406 0 L 3.121094 0 L 3.121094 -2.5625 C 3.121094 -2.8125 3.085938 -3.011719 3.011719 -3.164062 C 2.890625 -3.417969 2.667969 -3.542969 2.351562 -3.542969 C 2.1875 -3.542969 2.054688 -3.527344 1.953125 -3.492188 C 1.765625 -3.4375 1.601562 -3.328125 1.457031 -3.160156 C 1.34375 -3.027344 1.269531 -2.886719 1.234375 -2.742188 C 1.203125 -2.601562 1.183594 -2.394531 1.183594 -2.128906 L 1.183594 0 L 0.5 0 Z "/>
</g>
</g>
</defs>
<g fill="rgb(90.980392%, 65.882353%, 21.960784%)" fill-opacity="1">
<use xlink:href="#glyph-0-0" x="30" y="25.988281"/>
<use xlink:href="#glyph-0-1" x="36" y="25.988281"/>
<use xlink:href="#glyph-0-2" x="40" y="25.988281"/>
<use xlink:href="#glyph-0-3" x="44" y="25.988281"/>
<use xlink:href="#glyph-0-4" x="48" y="25.988281"/>
<use xlink:href="#glyph-0-5" x="52" y="25.988281"/>
<use xlink:href="#glyph-0-6" x="54" y="25.988281"/>
<use xlink:href="#glyph-0-7" x="56" y="25.988281"/>
<use xlink:href="#glyph-0-8" x="60" y="25.988281"/>
</g>
</svg>
