<?xml version="1.0" encoding="UTF-8"?>
<svg xmlns="http://www.w3.org/2000/svg" xmlns:xlink="http://www.w3.org/1999/xlink" width="1920" height="1080" viewBox="0 0 1920 1080">
<defs>
<g>
<g id="glyph-0-0">
<path d="M 2.335938 -2.574219 L 2.335938 -2.089844 C 2.101562 -2.289062 1.855469 -2.386719 1.601562 -2.386719 C 1.320312 -2.386719 1.085938 -2.285156 0.894531 -2.085938 C 0.703125 -1.886719 0.605469 -1.640625 0.605469 -1.351562 C 0.605469 -1.066406 0.699219 -0.824219 0.894531 -0.628906 C 1.085938 -0.433594 1.324219 -0.335938 1.601562 -0.335938 C 1.746094 -0.335938 1.871094 -0.359375 1.972656 -0.40625 C 2.027344 -0.429688 2.085938 -0.460938 2.144531 -0.5 C 2.207031 -0.539062 2.269531 -0.589844 2.335938 -0.644531 L 2.335938 -0.148438 C 2.101562 -0.015625 1.855469 0.0507812 1.597656 0.0507812 C 1.207031 0.0507812 0.875 -0.0859375 0.601562 -0.359375 C 0.328125 -0.632812 0.191406 -0.960938 0.191406 -1.347656 C 0.191406 -1.695312 0.304688 -2.003906 0.535156 -2.277344 C 0.816406 -2.609375 1.179688 -2.773438 1.628906 -2.773438 C 1.875 -2.773438 2.109375 -2.707031 2.335938 -2.574219 Z "/>
</g>
<g id="glyph-0-1">
<path d="M 0.167969 -0.871094 C 0.167969 -1.117188 0.257812 -1.328125 0.433594 -1.503906 C 0.613281 -1.675781 0.828125 -1.765625 1.085938 -1.765625 C 1.339844 -1.765625 1.558594 -1.675781 1.738281 -1.503906 C 1.914062 -1.328125 2 -1.113281 2 -0.855469 C 2 -0.597656 1.914062 -0.382812 1.734375 -0.210938 C 1.554688 -0.0390625 1.335938 0.0507812 1.078125 0.0507812 C 0.820312 0.0507812 0.605469 -0.0390625 0.429688 -0.214844 C 0.257812 -0.390625 0.167969 -0.609375 0.167969 -0.871094 Z M 0.574219 -0.863281 C 0.574219 -0.691406 0.621094 -0.554688 0.710938 -0.457031 C 0.804688 -0.355469 0.929688 -0.304688 1.085938 -0.304688 C 1.238281 -0.304688 1.363281 -0.355469 1.457031 -0.453125 C 1.550781 -0.554688 1.59375 -0.6875 1.59375 -0.855469 C 1.59375 -1.023438 1.550781 -1.15625 1.457031 -1.253906 C 1.363281 -1.355469 1.238281 -1.40625 1.085938 -1.40625 C 0.933594 -1.40625 0.808594 -1.355469 0.714844 -1.253906 C 0.621094 -1.152344 0.574219 -1.023438 0.574219 -0.863281 Z "/>
</g>
<g id="glyph-0-2">
<path d="M 0.25 -1.71875 L 0.648438 -1.71875 L 0.648438 -1.558594 C 0.789062 -1.695312 0.945312 -1.765625 1.117188 -1.765625 C 1.316406 -1.765625 1.472656 -1.703125 1.585938 -1.574219 C 1.679688 -1.46875 1.730469 -1.292969 1.730469 -1.050781 L 1.730469 0 L 1.332031 0 L 1.332031 -0.960938 C 1.332031 -1.128906 1.308594 -1.246094 1.261719 -1.308594 C 1.214844 -1.375 1.132812 -1.410156 1.011719 -1.410156 C 0.878906 -1.410156 0.785156 -1.363281 0.730469 -1.277344 C 0.675781 -1.191406 0.648438 -1.042969 0.648438 -0.828125 L 0.648438 0 L 0.25 0 Z "/>
</g>
<g id="glyph-0-3">
<path d="M 0.660156 -1.347656 L 0.660156 0 L 0.261719 0 L 0.261719 -1.347656 L 0.09375 -1.347656 L 0.09375 -1.71875 L 0.261719 -1.71875 L 0.261719 -2.347656 L 0.660156 -2.347656 L 0.660156 -1.71875 L 0.96875 -1.71875 L 0.96875 -1.347656 Z "/>
</g>
<g id="glyph-0-4">
<path d="M 0.648438 -1.71875 L 0.648438 0 L 0.25 0 L 0.25 -1.71875 Z M 0.191406 -2.429688 C 0.191406 -2.5 0.214844 -2.558594 0.265625 -2.609375 C 0.316406 -2.660156 0.378906 -2.6875 0.449219 -2.6875 C 0.519531 -2.6875 0.582031 -2.660156 0.632812 -2.609375 C 0.683594 -2.5625 0.707031 -2.5 0.707031 -2.429688 C 0.707031 -2.359375 0.683594 -2.296875 0.632812 -2.246094 C 0.582031 -2.195312 0.519531 -2.171875 0.449219 -2.171875 C 0.378906 -2.171875 0.316406 -2.195312 0.265625 -2.246094 C 0.214844 -2.296875 0.191406 -2.359375 0.191406 -2.429688 Z "/>
</g>
<g id="glyph-0-5">
<path d="M 1.8125 -0.765625 L 0.582031 -0.765625 C 0.59375 -0.625 0.640625 -0.511719 0.722656 -0.429688 C 0.800781 -0.347656 0.90625 -0.304688 1.03125 -0.304688 C 1.132812 -0.304688 1.214844 -0.328125 1.277344 -0.375 C 1.339844 -0.421875 1.414062 -0.507812 1.496094 -0.636719 L 1.828125 -0.449219 C 1.777344 -0.359375 1.722656 -0.285156 1.664062 -0.222656 C 1.609375 -0.160156 1.546875 -0.109375 1.480469 -0.0664062 C 1.414062 -0.0273438 1.34375 0.00390625 1.265625 0.0195312 C 1.191406 0.0390625 1.109375 0.0507812 1.019531 0.0507812 C 0.761719 0.0507812 0.558594 -0.03125 0.402344 -0.199219 C 0.246094 -0.363281 0.167969 -0.582031 0.167969 -0.855469 C 0.167969 -1.128906 0.246094 -1.347656 0.394531 -1.515625 C 0.546875 -1.679688 0.746094 -1.765625 0.996094 -1.765625 C 1.25 -1.765625 1.449219 -1.683594 1.597656 -1.523438 C 1.742188 -1.363281 1.816406 -1.140625 1.816406 -0.859375 Z M 1.40625 -1.089844 C 1.351562 -1.300781 1.21875 -1.40625 1.007812 -1.40625 C 0.957031 -1.40625 0.914062 -1.398438 0.871094 -1.382812 C 0.828125 -1.371094 0.789062 -1.347656 0.753906 -1.320312 C 0.71875 -1.292969 0.691406 -1.261719 0.667969 -1.222656 C 0.640625 -1.183594 0.621094 -1.140625 0.609375 -1.089844 Z "/>
</g>
<g id="glyph-0-6">
<path d="M 1.25 -1.425781 L 0.921875 -1.25 C 0.867188 -1.355469 0.804688 -1.410156 0.726562 -1.410156 C 0.691406 -1.410156 0.660156 -1.398438 0.632812 -1.371094 C 0.609375 -1.347656 0.597656 -1.316406 0.597656 -1.28125 C 0.597656 -1.214844 0.671875 -1.148438 0.824219 -1.085938 C 1.035156 -0.996094 1.175781 -0.910156 1.25 -0.832031 C 1.324219 -0.757812 1.359375 -0.65625 1.359375 -0.523438 C 1.359375 -0.359375 1.296875 -0.222656 1.175781 -0.109375 C 1.058594 -0.00390625 0.914062 0.0507812 0.746094 0.0507812 C 0.457031 0.0507812 0.253906 -0.0898438 0.132812 -0.371094 L 0.472656 -0.527344 C 0.519531 -0.445312 0.554688 -0.394531 0.578125 -0.371094 C 0.628906 -0.328125 0.6875 -0.304688 0.753906 -0.304688 C 0.886719 -0.304688 0.953125 -0.367188 0.953125 -0.488281 C 0.953125 -0.558594 0.902344 -0.625 0.796875 -0.6875 C 0.757812 -0.707031 0.71875 -0.726562 0.679688 -0.742188 C 0.640625 -0.761719 0.597656 -0.78125 0.558594 -0.800781 C 0.441406 -0.859375 0.359375 -0.914062 0.3125 -0.972656 C 0.253906 -1.042969 0.222656 -1.136719 0.222656 -1.25 C 0.222656 -1.398438 0.273438 -1.519531 0.378906 -1.617188 C 0.480469 -1.714844 0.609375 -1.765625 0.757812 -1.765625 C 0.976562 -1.765625 1.140625 -1.652344 1.25 -1.425781 Z "/>
</g>
</g>
</defs>
<g fill="rgb(90.980392%, 65.882353%, 21.960784%)" fill-opacity="1">
<use xlink:href="#glyph-0-0" x="30" y="23.75"/>
<use xlink:href="#glyph-0-1" x="33" y="23.75"/>
<use xlink:href="#glyph-0-2" x="35" y="23.75"/>
<use xlink:href="#glyph-0-3" x="37" y="23.75"/>
<use xlink:href="#glyph-0-4" x="38" y="23.75"/>
<use xlink:href="#glyph-0-2" x="39" y="23.75"/>
<use xlink:href="#glyph-0-5" x="41" y="23.75"/>
<use xlink:href="#glyph-0-2" x="43" y="23.75"/>
<use xlink:href="#glyph-0-3" x="45" y="23.75"/>
<use xlink:href="#glyph-0-6" x="46" y="23.75"/>
</g>
</svg>
