<?xml version="1.0" encoding="UTF-8"?>
<svg xmlns="http://www.w3.org/2000/svg" xmlns:xlink="http://www.w3.org/1999/xlink" width="1920" height="1080" viewBox="0 0 1920 1080">
<defs>
<g>
<g id="glyph-0-0">
<path d="M 0.972656 -0.414062 L 2.066406 -0.414062 L 2.066406 0 L 0.0976562 0 L 1.113281 -1.234375 C 1.214844 -1.355469 1.296875 -1.460938 1.367188 -1.550781 C 1.433594 -1.640625 1.484375 -1.71875 1.519531 -1.777344 C 1.59375 -1.898438 1.628906 -2.003906 1.628906 -2.097656 C 1.628906 -2.234375 1.582031 -2.351562 1.484375 -2.441406 C 1.390625 -2.535156 1.269531 -2.582031 1.128906 -2.582031 C 0.832031 -2.582031 0.664062 -2.40625 0.621094 -2.054688 L 0.179688 -2.054688 C 0.25 -2.671875 0.5625 -2.980469 1.113281 -2.980469 C 1.382812 -2.980469 1.605469 -2.898438 1.789062 -2.726562 C 1.96875 -2.558594 2.0625 -2.347656 2.0625 -2.097656 C 2.0625 -1.9375 2.019531 -1.78125 1.933594 -1.628906 C 1.890625 -1.546875 1.828125 -1.453125 1.746094 -1.34375 C 1.660156 -1.234375 1.558594 -1.105469 1.429688 -0.957031 Z "/>
</g>
<g id="glyph-0-1">
<path d="M 0.335938 -0.210938 C 0.335938 -0.28125 0.363281 -0.34375 0.414062 -0.398438 C 0.464844 -0.449219 0.527344 -0.476562 0.601562 -0.476562 C 0.671875 -0.476562 0.734375 -0.449219 0.785156 -0.398438 C 0.835938 -0.34375 0.863281 -0.28125 0.863281 -0.210938 C 0.863281 -0.136719 0.839844 -0.0742188 0.785156 -0.0234375 C 0.734375 0.0273438 0.671875 0.0546875 0.601562 0.0546875 C 0.527344 0.0546875 0.460938 0.0273438 0.414062 -0.0234375 C 0.363281 -0.0742188 0.335938 -0.136719 0.335938 -0.210938 Z "/>
</g>
<g id="glyph-0-2">
<rect x="0" y="0" width="0" height="0" mask="url(#mask-0)"/>
</g>
<g id="glyph-0-3">
<path d="M 1.816406 -2.515625 L 0.792969 -2.515625 L 0.792969 -1.8125 L 1.78125 -1.8125 L 1.78125 -1.394531 L 0.792969 -1.394531 L 0.792969 0 L 0.351562 0 L 0.351562 -2.933594 L 1.816406 -2.933594 Z "/>
</g>
<g id="glyph-0-4">
<path d="M 0.695312 -1.851562 L 0.695312 0 L 0.269531 0 L 0.269531 -1.851562 Z M 0.207031 -2.617188 C 0.207031 -2.691406 0.230469 -2.757812 0.285156 -2.8125 C 0.339844 -2.867188 0.40625 -2.894531 0.480469 -2.894531 C 0.558594 -2.894531 0.625 -2.867188 0.679688 -2.8125 C 0.734375 -2.757812 0.761719 -2.695312 0.761719 -2.617188 C 0.761719 -2.539062 0.734375 -2.472656 0.679688 -2.417969 C 0.625 -2.363281 0.5625 -2.339844 0.484375 -2.339844 C 0.40625 -2.339844 0.339844 -2.363281 0.285156 -2.417969 C 0.230469 -2.472656 0.207031 -2.539062 0.207031 -2.617188 Z "/>
</g>
<g id="glyph-0-5">
<path d="M 0.269531 -1.851562 L 0.699219 -1.851562 L 0.699219 -1.679688 C 0.847656 -1.828125 1.015625 -1.902344 1.203125 -1.902344 C 1.417969 -1.902344 1.585938 -1.832031 1.707031 -1.699219 C 1.8125 -1.582031 1.863281 -1.394531 1.863281 -1.132812 L 1.863281 0 L 1.433594 0 L 1.433594 -1.03125 C 1.433594 -1.214844 1.410156 -1.339844 1.359375 -1.410156 C 1.308594 -1.480469 1.21875 -1.515625 1.089844 -1.515625 C 0.945312 -1.515625 0.847656 -1.46875 0.785156 -1.375 C 0.726562 -1.285156 0.699219 -1.125 0.699219 -0.894531 L 0.699219 0 L 0.269531 0 Z "/>
</g>
<g id="glyph-0-6">
<path d="M 1.632812 -3.207031 L 2.0625 -3.207031 L 2.0625 0 L 1.632812 0 L 1.632812 -0.195312 C 1.464844 -0.03125 1.273438 0.0546875 1.0625 0.0546875 C 0.808594 0.0546875 0.597656 -0.0390625 0.429688 -0.222656 C 0.265625 -0.414062 0.183594 -0.648438 0.183594 -0.929688 C 0.183594 -1.207031 0.265625 -1.4375 0.429688 -1.621094 C 0.59375 -1.808594 0.804688 -1.902344 1.050781 -1.902344 C 1.269531 -1.902344 1.460938 -1.8125 1.632812 -1.636719 Z M 0.621094 -0.929688 C 0.621094 -0.753906 0.667969 -0.609375 0.761719 -0.496094 C 0.859375 -0.382812 0.980469 -0.328125 1.128906 -0.328125 C 1.289062 -0.328125 1.417969 -0.382812 1.515625 -0.492188 C 1.613281 -0.605469 1.660156 -0.746094 1.660156 -0.921875 C 1.660156 -1.09375 1.609375 -1.238281 1.515625 -1.351562 C 1.417969 -1.460938 1.289062 -1.515625 1.132812 -1.515625 C 0.988281 -1.515625 0.863281 -1.460938 0.765625 -1.347656 C 0.667969 -1.234375 0.621094 -1.097656 0.621094 -0.929688 Z "/>
</g>
<g id="glyph-0-7">
<path d="M 1.34375 -1.535156 L 0.992188 -1.347656 C 0.9375 -1.460938 0.867188 -1.515625 0.785156 -1.515625 C 0.746094 -1.515625 0.710938 -1.503906 0.683594 -1.480469 C 0.65625 -1.453125 0.640625 -1.417969 0.640625 -1.378906 C 0.640625 -1.308594 0.722656 -1.238281 0.890625 -1.167969 C 1.117188 -1.070312 1.269531 -0.980469 1.347656 -0.898438 C 1.425781 -0.816406 1.464844 -0.707031 1.464844 -0.566406 C 1.464844 -0.386719 1.398438 -0.238281 1.265625 -0.117188 C 1.136719 -0.00390625 0.984375 0.0546875 0.804688 0.0546875 C 0.492188 0.0546875 0.273438 -0.0976562 0.144531 -0.402344 L 0.507812 -0.570312 C 0.558594 -0.480469 0.597656 -0.425781 0.625 -0.402344 C 0.675781 -0.351562 0.738281 -0.328125 0.8125 -0.328125 C 0.957031 -0.328125 1.027344 -0.394531 1.027344 -0.527344 C 1.027344 -0.601562 0.972656 -0.671875 0.859375 -0.738281 C 0.816406 -0.761719 0.773438 -0.78125 0.730469 -0.800781 C 0.6875 -0.820312 0.644531 -0.84375 0.601562 -0.863281 C 0.476562 -0.925781 0.390625 -0.984375 0.339844 -1.046875 C 0.273438 -1.125 0.242188 -1.222656 0.242188 -1.34375 C 0.242188 -1.503906 0.296875 -1.636719 0.40625 -1.742188 C 0.519531 -1.847656 0.65625 -1.902344 0.816406 -1.902344 C 1.054688 -1.902344 1.230469 -1.777344 1.34375 -1.535156 Z "/>
</g>
<g id="glyph-0-8">
<path d="M 0.269531 -1.851562 L 0.695312 -1.851562 L 0.695312 -1.679688 C 0.777344 -1.765625 0.847656 -1.824219 0.90625 -1.855469 C 0.96875 -1.886719 1.046875 -1.902344 1.140625 -1.902344 C 1.351562 -1.902344 1.515625 -1.808594 1.636719 -1.628906 C 1.769531 -1.808594 1.953125 -1.902344 2.183594 -1.902344 C 2.597656 -1.902344 2.808594 -1.648438 2.808594 -1.144531 L 2.808594 0 L 2.378906 0 L 2.378906 -1.027344 C 2.378906 -1.203125 2.355469 -1.332031 2.3125 -1.402344 C 2.269531 -1.476562 2.195312 -1.515625 2.09375 -1.515625 C 1.976562 -1.515625 1.890625 -1.472656 1.835938 -1.382812 C 1.78125 -1.292969 1.757812 -1.152344 1.757812 -0.957031 L 1.757812 0 L 1.328125 0 L 1.328125 -1.023438 C 1.328125 -1.351562 1.234375 -1.515625 1.042969 -1.515625 C 0.921875 -1.515625 0.835938 -1.46875 0.78125 -1.378906 C 0.726562 -1.289062 0.695312 -1.148438 0.695312 -0.957031 L 0.695312 0 L 0.269531 0 Z "/>
</g>
<g id="glyph-0-9">
<path d="M 0.695312 -3.207031 L 0.695312 0 L 0.269531 0 L 0.269531 -3.207031 Z "/>
</g>
<g id="glyph-0-10">
<path d="M 1.632812 -1.851562 L 2.0625 -1.851562 L 2.0625 0 L 1.632812 0 L 1.632812 -0.195312 C 1.457031 -0.03125 1.269531 0.0546875 1.066406 0.0546875 C 0.808594 0.0546875 0.597656 -0.0390625 0.429688 -0.222656 C 0.265625 -0.414062 0.183594 -0.648438 0.183594 -0.929688 C 0.183594 -1.207031 0.265625 -1.4375 0.429688 -1.625 C 0.597656 -1.808594 0.804688 -1.902344 1.054688 -1.902344 C 1.269531 -1.902344 1.460938 -1.8125 1.632812 -1.636719 Z M 0.621094 -0.929688 C 0.621094 -0.753906 0.667969 -0.609375 0.761719 -0.496094 C 0.859375 -0.382812 0.980469 -0.328125 1.128906 -0.328125 C 1.289062 -0.328125 1.417969 -0.382812 1.515625 -0.492188 C 1.613281 -0.605469 1.660156 -0.746094 1.660156 -0.921875 C 1.660156 -1.09375 1.609375 -1.238281 1.515625 -1.351562 C 1.417969 -1.460938 1.289062 -1.515625 1.132812 -1.515625 C 0.988281 -1.515625 0.863281 -1.460938 0.765625 -1.347656 C 0.667969 -1.234375 0.621094 -1.097656 0.621094 -0.929688 Z "/>
</g>
<g id="glyph-0-11">
<path d="M 0.269531 -1.851562 L 0.695312 -1.851562 L 0.695312 -1.683594 C 0.773438 -1.765625 0.84375 -1.824219 0.90625 -1.855469 C 0.96875 -1.886719 1.042969 -1.902344 1.125 -1.902344 C 1.238281 -1.902344 1.355469 -1.863281 1.480469 -1.789062 L 1.285156 -1.398438 C 1.203125 -1.457031 1.125 -1.488281 1.046875 -1.488281 C 0.8125 -1.488281 0.695312 -1.3125 0.695312 -0.960938 L 0.695312 0 L 0.269531 0 Z "/>
</g>
<g id="glyph-0-12">
<path d="M 1.953125 -0.824219 L 0.628906 -0.824219 C 0.640625 -0.671875 0.6875 -0.550781 0.777344 -0.460938 C 0.863281 -0.371094 0.976562 -0.328125 1.113281 -0.328125 C 1.21875 -0.328125 1.308594 -0.355469 1.375 -0.40625 C 1.445312 -0.457031 1.523438 -0.550781 1.609375 -0.6875 L 1.972656 -0.484375 C 1.917969 -0.390625 1.855469 -0.308594 1.792969 -0.242188 C 1.730469 -0.171875 1.667969 -0.117188 1.59375 -0.0742188 C 1.523438 -0.03125 1.449219 0.00390625 1.367188 0.0234375 C 1.285156 0.0429688 1.195312 0.0546875 1.097656 0.0546875 C 0.820312 0.0546875 0.601562 -0.0351562 0.433594 -0.210938 C 0.265625 -0.390625 0.183594 -0.628906 0.183594 -0.921875 C 0.183594 -1.214844 0.261719 -1.453125 0.425781 -1.632812 C 0.589844 -1.8125 0.804688 -1.902344 1.074219 -1.902344 C 1.347656 -1.902344 1.5625 -1.8125 1.722656 -1.640625 C 1.878906 -1.46875 1.957031 -1.230469 1.957031 -0.925781 Z M 1.515625 -1.171875 C 1.457031 -1.402344 1.3125 -1.515625 1.085938 -1.515625 C 1.03125 -1.515625 0.984375 -1.507812 0.9375 -1.492188 C 0.890625 -1.476562 0.851562 -1.453125 0.8125 -1.421875 C 0.777344 -1.394531 0.746094 -1.359375 0.71875 -1.316406 C 0.691406 -1.273438 0.671875 -1.226562 0.65625 -1.171875 Z "/>
</g>
<g id="glyph-0-13">
<path d="M 0.710938 -1.449219 L 0.710938 0 L 0.28125 0 L 0.28125 -1.449219 L 0.101562 -1.449219 L 0.101562 -1.851562 L 0.28125 -1.851562 L 0.28125 -2.527344 L 0.710938 -2.527344 L 0.710938 -1.851562 L 1.042969 -1.851562 L 1.042969 -1.449219 Z "/>
</g>
</g>
<image id="source-208" x="0" y="0" width="0" height="0"/>
<mask id="mask-0">
<use xlink:href="#source-208"/>
</mask>
</defs>
<g fill="rgb(54.901961%, 54.117647%, 51.764706%)" fill-opacity="1">
<use xlink:href="#glyph-0-0" x="30" y="24.040039"/>
<use xlink:href="#glyph-0-1" x="32" y="24.040039"/>
<use xlink:href="#glyph-0-2" x="33" y="24.040039"/>
<use xlink:href="#glyph-0-3" x="34" y="24.040039"/>
<use xlink:href="#glyph-0-4" x="36" y="24.040039"/>
<use xlink:href="#glyph-0-5" x="37" y="24.040039"/>
<use xlink:href="#glyph-0-6" x="39" y="24.040039"/>
<use xlink:href="#glyph-0-2" x="41" y="24.040039"/>
<use xlink:href="#glyph-0-7" x="42" y="24.040039"/>
<use xlink:href="#glyph-0-4" x="44" y="24.040039"/>
<use xlink:href="#glyph-0-8" x="45" y="24.040039"/>
<use xlink:href="#glyph-0-4" x="48" y="24.040039"/>
<use xlink:href="#glyph-0-9" x="49" y="24.040039"/>
<use xlink:href="#glyph-0-10" x="50" y="24.040039"/>
<use xlink:href="#glyph-0-11" x="52" y="24.040039"/>
<use xlink:href="#glyph-0-2" x="53" y="24.040039"/>
<use xlink:href="#glyph-0-12" x="54" y="24.040039"/>
<use xlink:href="#glyph-0-5" x="56" y="24.040039"/>
<use xlink:href="#glyph-0-13" x="58" y="24.040039"/>
<use xlink:href="#glyph-0-4" x="59" y="24.040039"/>
<use xlink:href="#glyph-0-13" x="60" y="24.040039"/>
<use xlink:href="#glyph-0-4" x="61" y="24.040039"/>
<use xlink:href="#glyph-0-12" x="62" y="24.040039"/>
<use xlink:href="#glyph-0-7" x="64" y="24.040039"/>
</g>
</svg>
