<?xml version="1.0" encoding="UTF-8"?>
<svg xmlns="http://www.w3.org/2000/svg" xmlns:xlink="http://www.w3.org/1999/xlink" width="1920" height="1080" viewBox="0 0 1920 1080">
<defs>
<g>
<g id="glyph-0-0">
<path d="M 0.648438 -0.875 L 0.648438 -1.117188 C 0.769531 -1.117188 0.847656 -1.132812 0.890625 -1.160156 C 0.964844 -1.207031 1 -1.28125 1 -1.386719 C 1 -1.464844 0.972656 -1.53125 0.921875 -1.582031 C 0.867188 -1.632812 0.796875 -1.660156 0.714844 -1.660156 C 0.636719 -1.660156 0.574219 -1.640625 0.53125 -1.601562 C 0.488281 -1.5625 0.457031 -1.496094 0.4375 -1.402344 L 0.15625 -1.402344 C 0.183594 -1.582031 0.246094 -1.710938 0.335938 -1.792969 C 0.425781 -1.875 0.554688 -1.917969 0.71875 -1.917969 C 0.882812 -1.917969 1.019531 -1.867188 1.121094 -1.769531 C 1.226562 -1.671875 1.277344 -1.550781 1.277344 -1.398438 C 1.277344 -1.226562 1.210938 -1.089844 1.074219 -0.992188 C 1.230469 -0.902344 1.308594 -0.753906 1.308594 -0.546875 C 1.308594 -0.375 1.25 -0.238281 1.136719 -0.128906 C 1.023438 -0.0234375 0.875 0.03125 0.699219 0.03125 C 0.472656 0.03125 0.304688 -0.0546875 0.191406 -0.21875 C 0.148438 -0.289062 0.117188 -0.386719 0.105469 -0.511719 L 0.382812 -0.511719 C 0.394531 -0.417969 0.429688 -0.347656 0.488281 -0.300781 C 0.542969 -0.253906 0.617188 -0.226562 0.710938 -0.226562 C 0.800781 -0.226562 0.878906 -0.257812 0.9375 -0.320312 C 0.996094 -0.382812 1.027344 -0.460938 1.027344 -0.558594 C 1.027344 -0.683594 0.984375 -0.773438 0.890625 -0.828125 C 0.839844 -0.859375 0.757812 -0.875 0.648438 -0.875 Z "/>
</g>
<g id="glyph-0-1">
<path d="M 1.316406 -1.617188 L 0.734375 -1.617188 L 0.640625 -1.304688 C 0.65625 -1.308594 0.667969 -1.308594 0.679688 -1.308594 C 0.691406 -1.308594 0.703125 -1.3125 0.714844 -1.3125 C 0.898438 -1.3125 1.046875 -1.25 1.164062 -1.125 C 1.28125 -1.003906 1.34375 -0.84375 1.34375 -0.652344 C 1.34375 -0.453125 1.277344 -0.289062 1.140625 -0.164062 C 1.007812 -0.0351562 0.839844 0.03125 0.636719 0.03125 C 0.386719 0.03125 0.191406 -0.0859375 0.046875 -0.320312 L 0.261719 -0.503906 C 0.320312 -0.402344 0.382812 -0.332031 0.441406 -0.289062 C 0.5 -0.25 0.574219 -0.226562 0.664062 -0.226562 C 0.777344 -0.226562 0.871094 -0.269531 0.949219 -0.347656 C 1.027344 -0.429688 1.066406 -0.53125 1.066406 -0.648438 C 1.066406 -0.769531 1.027344 -0.867188 0.949219 -0.941406 C 0.875 -1.019531 0.777344 -1.0625 0.664062 -1.0625 C 0.535156 -1.0625 0.425781 -1.003906 0.332031 -0.894531 L 0.238281 -0.894531 L 0.535156 -1.882812 L 1.316406 -1.882812 Z "/>
</g>
<g id="glyph-0-2">
<path d="M 0.5625 0.0664062 L 0.351562 -0.0898438 L 0.804688 -0.703125 C 0.78125 -0.699219 0.757812 -0.699219 0.742188 -0.695312 C 0.722656 -0.695312 0.710938 -0.695312 0.699219 -0.695312 C 0.546875 -0.695312 0.414062 -0.753906 0.304688 -0.867188 C 0.195312 -0.984375 0.136719 -1.125 0.136719 -1.285156 C 0.136719 -1.460938 0.199219 -1.609375 0.320312 -1.730469 C 0.445312 -1.855469 0.59375 -1.917969 0.765625 -1.917969 C 0.9375 -1.917969 1.085938 -1.855469 1.214844 -1.734375 C 1.339844 -1.613281 1.40625 -1.46875 1.40625 -1.304688 C 1.40625 -1.15625 1.34375 -1 1.21875 -0.828125 Z M 0.414062 -1.308594 C 0.414062 -1.207031 0.449219 -1.121094 0.519531 -1.050781 C 0.589844 -0.980469 0.671875 -0.945312 0.773438 -0.945312 C 0.871094 -0.945312 0.953125 -0.980469 1.023438 -1.050781 C 1.09375 -1.121094 1.128906 -1.203125 1.128906 -1.300781 C 1.128906 -1.398438 1.09375 -1.484375 1.023438 -1.554688 C 0.953125 -1.625 0.871094 -1.660156 0.769531 -1.660156 C 0.671875 -1.660156 0.589844 -1.625 0.519531 -1.554688 C 0.449219 -1.484375 0.414062 -1.402344 0.414062 -1.308594 Z "/>
</g>
<g id="glyph-0-3">
<path d="M 1.058594 -1.617188 L 0.128906 -1.617188 L 0.128906 -1.882812 L 1.535156 -1.882812 L 0.34375 0.0664062 L 0.121094 -0.078125 Z "/>
</g>
</g>
</defs>
<g fill="rgb(54.901961%, 54.117647%, 51.764706%)" fill-opacity="1">
<use xlink:href="#glyph-0-0" x="30" y="22.59668"/>
<use xlink:href="#glyph-0-1" x="32" y="22.59668"/>
<use xlink:href="#glyph-0-2" x="34" y="22.59668"/>
<use xlink:href="#glyph-0-3" x="35" y="22.59668"/>
</g>
</svg>
