<?xml version="1.0" encoding="UTF-8"?>
<svg xmlns="http://www.w3.org/2000/svg" xmlns:xlink="http://www.w3.org/1999/xlink" width="1920" height="1080" viewBox="0 0 1920 1080">
<defs>
<g>
<g id="glyph-0-0">
<path d="M 0.382812 0 C 0.421875 -0.734375 0.574219 -1.375 0.839844 -1.921875 C 1.105469 -2.46875 1.621094 -2.960938 2.386719 -3.40625 L 3.53125 -4.070312 C 4.046875 -4.367188 4.40625 -4.625 4.613281 -4.835938 C 4.941406 -5.164062 5.101562 -5.542969 5.101562 -5.96875 C 5.101562 -6.464844 4.953125 -6.859375 4.65625 -7.152344 C 4.355469 -7.445312 3.957031 -7.589844 3.460938 -7.589844 C 2.726562 -7.589844 2.214844 -7.3125 1.933594 -6.757812 C 1.78125 -6.457031 1.699219 -6.042969 1.683594 -5.515625 L 0.589844 -5.515625 C 0.601562 -6.257812 0.738281 -6.867188 1.003906 -7.335938 C 1.46875 -8.164062 2.289062 -8.574219 3.46875 -8.574219 C 4.445312 -8.574219 5.160156 -8.3125 5.613281 -7.78125 C 6.066406 -7.253906 6.289062 -6.664062 6.289062 -6.015625 C 6.289062 -5.332031 6.050781 -4.746094 5.566406 -4.261719 C 5.289062 -3.980469 4.789062 -3.636719 4.070312 -3.234375 L 3.253906 -2.78125 C 2.863281 -2.566406 2.554688 -2.363281 2.332031 -2.167969 C 1.933594 -1.820312 1.683594 -1.4375 1.582031 -1.015625 L 6.25 -1.015625 L 6.25 0 Z "/>
</g>
<g id="glyph-0-1">
<path d="M 4.039062 -3.027344 L 4.039062 -6.898438 L 1.300781 -3.027344 Z M 4.058594 0 L 4.058594 -2.089844 L 0.308594 -2.089844 L 0.308594 -3.140625 L 4.226562 -8.570312 L 5.132812 -8.570312 L 5.132812 -3.027344 L 6.390625 -3.027344 L 6.390625 -2.089844 L 5.132812 -2.089844 L 5.132812 0 Z "/>
</g>
<g id="glyph-0-2">
<path d="M 3.304688 -8.546875 C 4.410156 -8.546875 5.210938 -8.089844 5.707031 -7.179688 C 6.089844 -6.476562 6.277344 -5.511719 6.277344 -4.285156 C 6.277344 -3.125 6.105469 -2.164062 5.757812 -1.402344 C 5.257812 -0.3125 4.4375 0.234375 3.300781 0.234375 C 2.273438 0.234375 1.511719 -0.210938 1.007812 -1.105469 C 0.589844 -1.847656 0.382812 -2.847656 0.382812 -4.101562 C 0.382812 -5.070312 0.507812 -5.90625 0.757812 -6.601562 C 1.226562 -7.898438 2.078125 -8.546875 3.304688 -8.546875 Z M 3.292969 -0.746094 C 3.851562 -0.746094 4.296875 -0.992188 4.625 -1.484375 C 4.957031 -1.980469 5.121094 -2.898438 5.121094 -4.242188 C 5.121094 -5.214844 5 -6.011719 4.761719 -6.640625 C 4.523438 -7.265625 4.058594 -7.578125 3.371094 -7.578125 C 2.738281 -7.578125 2.277344 -7.28125 1.984375 -6.6875 C 1.691406 -6.09375 1.546875 -5.214844 1.546875 -4.058594 C 1.546875 -3.1875 1.640625 -2.488281 1.828125 -1.957031 C 2.113281 -1.148438 2.601562 -0.746094 3.292969 -0.746094 Z "/>
</g>
<g id="glyph-0-3">
<path d="M 0.765625 -8.765625 L 1.796875 -8.765625 L 1.796875 -3.675781 L 4.554688 -6.390625 L 5.925781 -6.390625 L 3.480469 -4 L 6.0625 0 L 4.691406 0 L 2.699219 -3.222656 L 1.796875 -2.398438 L 1.796875 0 L 0.765625 0 Z "/>
</g>
</g>
</defs>
<g fill="rgb(96.078431%, 80%, 47.843137%)" fill-opacity="1">
<use xlink:href="#glyph-0-0" x="30" y="29.412109"/>
<use xlink:href="#glyph-0-1" x="37" y="29.412109"/>
<use xlink:href="#glyph-0-2" x="44" y="29.412109"/>
<use xlink:href="#glyph-0-3" x="51" y="29.412109"/>
</g>
</svg>
