<?xml version="1.0" encoding="UTF-8"?>
<svg xmlns="http://www.w3.org/2000/svg" xmlns:xlink="http://www.w3.org/1999/xlink" width="1920" height="1080" viewBox="0 0 1920 1080">
<defs>
<g>
<g id="glyph-0-0">
<path d="M 2.25 -2.875 L 0.90625 -2.875 L 0.90625 -2.070312 L 2.210938 -2.070312 L 2.210938 -1.59375 L 0.90625 -1.59375 L 0.90625 -0.476562 L 2.25 -0.476562 L 2.25 0 L 0.402344 0 L 0.402344 -3.351562 L 2.25 -3.351562 Z "/>
</g>
<g id="glyph-0-1">
<path d="M 0.796875 -2.113281 L 0.796875 -0.902344 C 0.796875 -0.550781 0.933594 -0.375 1.210938 -0.375 C 1.488281 -0.375 1.625 -0.550781 1.625 -0.902344 L 1.625 -2.113281 L 2.113281 -2.113281 L 2.113281 -0.890625 C 2.113281 -0.722656 2.09375 -0.574219 2.050781 -0.453125 C 2.011719 -0.34375 1.941406 -0.242188 1.839844 -0.152344 C 1.675781 -0.0117188 1.464844 0.0625 1.210938 0.0625 C 0.957031 0.0625 0.75 -0.0117188 0.582031 -0.152344 C 0.480469 -0.242188 0.410156 -0.339844 0.367188 -0.453125 C 0.328125 -0.550781 0.308594 -0.695312 0.308594 -0.890625 L 0.308594 -2.113281 Z "/>
</g>
<g id="glyph-0-2">
<path d="M 0.308594 -2.113281 L 0.796875 -2.113281 L 0.796875 -1.925781 C 0.886719 -2.019531 0.964844 -2.082031 1.035156 -2.117188 C 1.105469 -2.152344 1.191406 -2.171875 1.285156 -2.171875 C 1.414062 -2.171875 1.550781 -2.128906 1.691406 -2.046875 L 1.46875 -1.597656 C 1.375 -1.664062 1.285156 -1.699219 1.195312 -1.699219 C 0.929688 -1.699219 0.796875 -1.5 0.796875 -1.097656 L 0.796875 0 L 0.308594 0 Z "/>
</g>
<g id="glyph-0-3">
<path d="M 0.207031 -1.070312 C 0.207031 -1.375 0.316406 -1.636719 0.535156 -1.851562 C 0.753906 -2.066406 1.019531 -2.171875 1.335938 -2.171875 C 1.652344 -2.171875 1.917969 -2.066406 2.136719 -1.847656 C 2.355469 -1.632812 2.464844 -1.367188 2.464844 -1.054688 C 2.464844 -0.738281 2.355469 -0.472656 2.136719 -0.257812 C 1.914062 -0.046875 1.644531 0.0625 1.324219 0.0625 C 1.007812 0.0625 0.742188 -0.046875 0.53125 -0.265625 C 0.316406 -0.480469 0.207031 -0.746094 0.207031 -1.070312 Z M 0.707031 -1.0625 C 0.707031 -0.851562 0.765625 -0.683594 0.875 -0.5625 C 0.992188 -0.4375 1.144531 -0.375 1.335938 -0.375 C 1.527344 -0.375 1.679688 -0.4375 1.792969 -0.558594 C 1.90625 -0.683594 1.964844 -0.847656 1.964844 -1.050781 C 1.964844 -1.257812 1.90625 -1.421875 1.792969 -1.546875 C 1.675781 -1.671875 1.523438 -1.730469 1.335938 -1.730469 C 1.148438 -1.730469 0.996094 -1.667969 0.882812 -1.546875 C 0.765625 -1.421875 0.707031 -1.261719 0.707031 -1.0625 Z "/>
</g>
<g id="glyph-0-4">
<path d="M 0.796875 1.148438 L 0.308594 1.148438 L 0.308594 -2.113281 L 0.796875 -2.113281 L 0.796875 -1.882812 C 0.988281 -2.074219 1.207031 -2.171875 1.453125 -2.171875 C 1.742188 -2.171875 1.980469 -2.066406 2.171875 -1.851562 C 2.363281 -1.636719 2.457031 -1.371094 2.457031 -1.046875 C 2.457031 -0.730469 2.363281 -0.464844 2.171875 -0.253906 C 1.984375 -0.0429688 1.746094 0.0625 1.460938 0.0625 C 1.214844 0.0625 0.992188 -0.0390625 0.796875 -0.238281 Z M 1.957031 -1.042969 C 1.957031 -1.246094 1.902344 -1.410156 1.792969 -1.539062 C 1.679688 -1.667969 1.539062 -1.730469 1.371094 -1.730469 C 1.191406 -1.730469 1.046875 -1.667969 0.933594 -1.546875 C 0.824219 -1.421875 0.769531 -1.257812 0.769531 -1.054688 C 0.769531 -0.855469 0.824219 -0.691406 0.933594 -0.5625 C 1.042969 -0.4375 1.191406 -0.375 1.371094 -0.375 C 1.539062 -0.375 1.679688 -0.4375 1.789062 -0.566406 C 1.902344 -0.695312 1.957031 -0.851562 1.957031 -1.042969 Z "/>
</g>
<g id="glyph-0-5">
<path d="M 2.234375 -0.941406 L 0.71875 -0.941406 C 0.730469 -0.769531 0.789062 -0.628906 0.886719 -0.527344 C 0.988281 -0.425781 1.117188 -0.375 1.273438 -0.375 C 1.394531 -0.375 1.492188 -0.40625 1.574219 -0.460938 C 1.652344 -0.519531 1.742188 -0.628906 1.839844 -0.785156 L 2.253906 -0.554688 C 2.1875 -0.445312 2.121094 -0.351562 2.050781 -0.273438 C 1.980469 -0.195312 1.902344 -0.132812 1.824219 -0.0820312 C 1.742188 -0.03125 1.65625 0.00390625 1.558594 0.0273438 C 1.464844 0.0507812 1.363281 0.0625 1.253906 0.0625 C 0.9375 0.0625 0.6875 -0.0390625 0.496094 -0.242188 C 0.304688 -0.445312 0.207031 -0.71875 0.207031 -1.054688 C 0.207031 -1.390625 0.300781 -1.660156 0.484375 -1.867188 C 0.671875 -2.070312 0.921875 -2.171875 1.226562 -2.171875 C 1.539062 -2.171875 1.785156 -2.074219 1.964844 -1.875 C 2.144531 -1.679688 2.234375 -1.40625 2.234375 -1.058594 Z M 1.730469 -1.339844 C 1.664062 -1.601562 1.5 -1.730469 1.238281 -1.730469 C 1.179688 -1.730469 1.125 -1.722656 1.070312 -1.703125 C 1.019531 -1.6875 0.972656 -1.660156 0.929688 -1.625 C 0.886719 -1.59375 0.851562 -1.550781 0.820312 -1.503906 C 0.789062 -1.457031 0.765625 -1.402344 0.75 -1.339844 Z "/>
</g>
</g>
</defs>
<g fill="rgb(54.901961%, 54.117647%, 51.764706%)" fill-opacity="1">
<use xlink:href="#glyph-0-0" x="30" y="24.616211"/>
<use xlink:href="#glyph-0-1" x="33" y="24.616211"/>
<use xlink:href="#glyph-0-2" x="35" y="24.616211"/>
<use xlink:href="#glyph-0-3" x="37" y="24.616211"/>
<use xlink:href="#glyph-0-4" x="40" y="24.616211"/>
<use xlink:href="#glyph-0-5" x="43" y="24.616211"/>
</g>
</svg>
